<svg width="80" height="80" fill="none" xmlns="http://www.w3.org/2000/svg">
  <path d="M70 30a8.35 8.35 0 00-4.725 1.875l-.3 1.05c-.275.95-.625 2.1-.725 2.5.26 8.103-.141 16.213-1.2 24.25C61.375 71.95 54.55 72.9 52.5 72.9c-8.675 0-10.325-10.475-10.875-13.925A61.637 61.637 0 0040 51.65a61.637 61.637 0 00-1.625 7.325c-.55 3.45-2.2 13.925-10.875 13.925-4 0-9.075-2.3-10.55-13.225a170.427 170.427 0 01-1.2-23.275v-.8a24.566 24.566 0 00-.75-3.1l-.15-.525A8.225 8.225 0 0010 30c-5 0-10 7.5-10 7.5V75a5 5 0 005 5h70a5 5 0 005-5V37.5S75 30 70 30z" fill="#EED199"/>
  <path d="M22.5 59.025A14.6 14.6 0 0025 66.1c0-5.35.8-24.475 5.975-38.175a8.6 8.6 0 00-.275-5 12.127 12.127 0 01-.25-2c0-2.875 1.625-3.9 3.15-3.9a7.9 7.9 0 012.5.65 9.225 9.225 0 008.45 0 7.9 7.9 0 012.5-.65c1.525 0 3.15 1.025 3.15 3.9a12.127 12.127 0 01-.25 2 9.475 9.475 0 00-.275 5c5.125 13.55 5.875 32.5 5.975 37.975a14.575 14.575 0 002.5-6.875A142.493 142.493 0 0059.3 35.7c-.225-2.5 3.725-9.65 3.75-21.1C63.05 2.625 54.675 0 51.8 0s-6.425 2.5-11.25 2.5S32.175 0 29.3 0 18.05 2.5 18.05 14.6c0 11.35 3.75 17.65 3.75 21.1a166.961 166.961 0 00.7 23.325z" fill="#fff"/>
  <path d="M40 29.675a5.15 5.15 0 00-5.126 3.125 135.875 135.875 0 00-4.6 33.3 16.95 16.95 0 002.675-7.875C34.05 51.25 36.775 41.55 40 41.55s5.95 9.7 7.05 16.675a16.95 16.95 0 002.675 7.875 135.875 135.875 0 00-4.6-33.3A5.225 5.225 0 0040 29.675z" fill="#fff"/>
</svg>
