<svg width="86" height="86" xmlns="http://www.w3.org/2000/svg" fill="none">

 <g>
  <title>Layer 1</title>
  <path id="svg_1" fill="#fff" d="m58.271,6c-4.04,0 -8.995,2.5 -15.757,2.5c-6.761,0 -11.717,-2.5 -15.757,-2.5c-4.04,0 -15.757,4.775 -15.757,15c0,11.675 5.73,18.125 5.73,21.675a247.108,247.108 0 0 0 2.865,30.45c1.518,7.875 2.865,12.875 6.102,12.875c3.238,0 5.53,-9.525 6.933,-17.05c1.404,-7.525 5.386,-17.625 9.884,-17.625s8.596,10.425 9.884,17.625c1.29,7.2 3.582,17.05 6.962,17.05s4.555,-5 6.045,-12.875a247.128,247.128 0 0 0 2.865,-30.45c0,-3.55 5.73,-10 5.73,-21.675c0.029,-10.225 -11.69,-15 -15.73,-15l0.001,0zm-33.52,15c0,-0.593 0.202,-1.173 0.58,-1.667a3.38,3.38 0 0 1 1.543,-1.105a3.906,3.906 0 0 1 1.986,-0.17a3.61,3.61 0 0 1 1.76,0.82c0.481,0.42 0.809,0.955 0.941,1.537a2.647,2.647 0 0 1 -0.195,1.733a3.13,3.13 0 0 1 -1.266,1.346c-0.566,0.33 -1.23,0.506 -1.91,0.506c-0.912,0 -1.787,-0.316 -2.431,-0.879c-0.645,-0.562 -1.007,-1.325 -1.007,-2.121l-0.001,0zm33.75,13.6c-1.35,2.722 -3.583,5.04 -6.423,6.668c-2.84,1.628 -6.165,2.496 -9.564,2.496c-3.398,0 -6.723,-0.868 -9.563,-2.496c-2.84,-1.628 -5.073,-3.946 -6.423,-6.668a2.519,2.519 0 0 1 -0.415,-1.093a2.42,2.42 0 0 1 0.133,-1.146c0.137,-0.369 0.362,-0.709 0.66,-0.997a3.175,3.175 0 0 1 1.07,-0.674a3.552,3.552 0 0 1 1.292,-0.233c0.445,0.003 0.884,0.088 1.289,0.25c0.404,0.161 0.765,0.395 1.058,0.687c0.293,0.292 0.512,0.635 0.643,1.006c0.862,1.736 2.287,3.213 4.099,4.251c1.812,1.038 3.932,1.591 6.1,1.591c2.168,0 4.288,-0.552 6.1,-1.59c1.812,-1.039 3.237,-2.516 4.1,-4.252c0.39,-0.581 1.013,-1.016 1.747,-1.224a3.58,3.58 0 0 1 2.239,0.1c0.706,0.271 1.274,0.76 1.596,1.373c0.321,0.612 0.374,1.307 0.147,1.951l0.115,0zm-1.662,-10.6a3.8,3.8 0 0 1 -1.91,-0.506a3.13,3.13 0 0 1 -1.266,-1.346a2.648,2.648 0 0 1 -0.196,-1.733c0.133,-0.582 0.46,-1.117 0.941,-1.536a3.618,3.618 0 0 1 1.76,-0.821a3.907,3.907 0 0 1 1.987,0.17a3.38,3.38 0 0 1 1.542,1.105c0.378,0.494 0.58,1.074 0.58,1.667c0,0.796 -0.362,1.559 -1.007,2.121c-0.645,0.563 -1.52,0.879 -2.431,0.879z"/>
  <path id="svg_2" fill="#fff" d="m24.752,21c0,-0.593 0.201,-1.173 0.58,-1.667a3.38,3.38 0 0 1 1.542,-1.105a3.906,3.906 0 0 1 1.986,-0.17a3.61,3.61 0 0 1 1.76,0.82c0.481,0.42 0.809,0.955 0.941,1.537a2.647,2.647 0 0 1 -0.195,1.733a3.13,3.13 0 0 1 -1.266,1.346c-0.566,0.33 -1.23,0.506 -1.91,0.506c-0.912,0 -1.787,-0.316 -2.431,-0.879c-0.645,-0.562 -1.007,-1.325 -1.007,-2.121zm32.087,3a3.8,3.8 0 0 1 -1.91,-0.506a3.13,3.13 0 0 1 -1.266,-1.346a2.648,2.648 0 0 1 -0.196,-1.733c0.133,-0.582 0.46,-1.117 0.941,-1.536a3.618,3.618 0 0 1 1.76,-0.821a3.907,3.907 0 0 1 1.987,0.17a3.38,3.38 0 0 1 1.542,1.105c0.378,0.494 0.58,1.074 0.58,1.667c0,0.796 -0.362,1.559 -1.007,2.121c-0.645,0.563 -1.52,0.879 -2.431,0.879zm1.661,10.6c-1.349,2.722 -3.582,5.04 -6.422,6.668c-2.84,1.628 -6.165,2.496 -9.564,2.496c-3.398,0 -6.723,-0.868 -9.563,-2.496c-2.84,-1.628 -5.073,-3.946 -6.423,-6.668a2.519,2.519 0 0 1 -0.415,-1.093a2.42,2.42 0 0 1 0.133,-1.146c0.137,-0.369 0.362,-0.709 0.66,-0.997a3.175,3.175 0 0 1 1.07,-0.674a3.552,3.552 0 0 1 1.292,-0.233c0.445,0.003 0.884,0.088 1.289,0.25c0.404,0.161 0.765,0.395 1.058,0.687c0.293,0.292 0.512,0.635 0.643,1.006c0.862,1.736 2.287,3.213 4.099,4.251c1.812,1.038 3.932,1.591 6.1,1.591c2.168,0 4.288,-0.552 6.1,-1.59c1.812,-1.039 3.237,-2.516 4.1,-4.252c0.39,-0.581 1.013,-1.016 1.747,-1.224a3.58,3.58 0 0 1 2.239,0.1c0.706,0.271 1.274,0.76 1.596,1.373c0.321,0.612 0.374,1.307 0.147,1.951l0.115,0l-0.001,0z"/>
 </g>
</svg>