<?xml version="1.0" standalone="no"?>
<!DOCTYPE svg PUBLIC "-//W3C//DTD SVG 1.1//EN" "http://www.w3.org/Graphics/SVG/1.1/DTD/svg11.dtd" >
<svg>
<metadata>
Created by FontForge 20120731 at Thu Oct 24 04:44:26 2019
 By www
Copyright (c) 2012 by artmaker. All rights reserved.
</metadata>
<defs>
<font id="VDS-Thin" horiz-adv-x="513" >
  <font-face 
    font-family="VDS"
    font-weight="100"
    font-stretch="squinchy"
    units-per-em="1000"
    panose-1="2 0 5 6 0 0 0 2 0 4"
    ascent="800"
    descent="-200"
    x-height="550"
    cap-height="725"
    bbox="-0.083333 -202 1024 953"
    underline-thickness="50"
    underline-position="-50"
    unicode-range="U+0020-FB06"
  />
<missing-glyph horiz-adv-x="516" 
d="M469 178q-5 -41 -18.5 -71t-36.5 -50l-4 -5q-29 -21 -67.5 -36t-73.5 -15h-26q-20 0 -50.5 3.5t-68.5 11.5v-100q0 -12 -8 -20.5t-20 -8.5q-13 0 -21.5 8t-8.5 20v709q0 14 8.5 21.5t21.5 7.5q12 0 20 -8t8 -22v-88q37 8 68 12t51 4h26q35 0 70.5 -12.5t62.5 -32.5l6 -6
t7 -5q24 -24 36.5 -58.5t17.5 -62.5v-196zM412 365q0 24 -7 45.5t-24.5 38.5t-46.5 28.5t-74 15.5q-53 0 -88 -6t-48 -10v-402q32 -10 67.5 -12.5t64.5 -2.5q25 1 51 6.5t47.5 18.5t37 35.5t20.5 57.5v187z" />
    <glyph glyph-name=".notdef" horiz-adv-x="516" 
d="M469 178q-5 -41 -18.5 -71t-36.5 -50l-4 -5q-29 -21 -67.5 -36t-73.5 -15h-26q-20 0 -50.5 3.5t-68.5 11.5v-100q0 -12 -8 -20.5t-20 -8.5q-13 0 -21.5 8t-8.5 20v709q0 14 8.5 21.5t21.5 7.5q12 0 20 -8t8 -22v-88q37 8 68 12t51 4h26q35 0 70.5 -12.5t62.5 -32.5l6 -6
t7 -5q24 -24 36.5 -58.5t17.5 -62.5v-196zM412 365q0 24 -7 45.5t-24.5 38.5t-46.5 28.5t-74 15.5q-53 0 -88 -6t-48 -10v-402q32 -10 67.5 -12.5t64.5 -2.5q25 1 51 6.5t47.5 18.5t37 35.5t20.5 57.5v187z" />
    <glyph glyph-name=".null" horiz-adv-x="0" 
 />
    <glyph glyph-name="nonmarkingreturn" horiz-adv-x="500" 
 />
    <glyph glyph-name="space.002" horiz-adv-x="237" 
 />
    <glyph glyph-name="A" unicode="A" horiz-adv-x="440" 
d="M418 39q0 -3 0.5 -4.5t0.5 -3.5t1 -2q0 -11 -7.5 -19t-21.5 -8q-9 0 -17.5 6t-10.5 16l-55 220h-176l-55 -220q-3 -10 -11 -16t-17 -6q-14 0 -21.5 9t-7.5 20v5l173 669q8 21 29 21q8 0 15 -6.5t10 -16.5v1zM292 301l-72 301l-73 -301h145z" />
    <glyph glyph-name="B" unicode="B" 
d="M367 398q55 -31 77 -71.5t22 -84.5v-56q0 -42 -16.5 -76t-44 -58t-63.5 -37t-74 -13q-28 0 -63 2t-66 10.5t-52 26t-21 49.5v548q0 32 21 50t52 26.5t66 10.5t63 2q39 0 74.5 -13t63 -37t44 -58t16.5 -76q0 -17 -5 -37t-17 -39.5t-31 -37.5t-46 -31zM124 368v-276
q0 -8 16.5 -14t39 -10t47 -6t41.5 -2q28 0 53.5 9t45 25.5t31 39.5t11.5 52v56q0 29 -11.5 52t-31 39.5t-45 25.5t-53.5 9h-144zM268 426q26 0 51 8.5t45 24.5t32.5 37t12.5 47q0 33 -14 57t-36 39.5t-50.5 22.5t-56.5 7q-55 0 -128 -14v-229h144z" />
    <glyph glyph-name="C" unicode="C" horiz-adv-x="443" 
d="M373 106q7 9 22 9q13 0 20 -9t7 -21q0 -8 -8 -16q-29 -32 -66.5 -50.5t-81.5 -18.5q-41 0 -77.5 15.5t-63.5 42.5t-43 63.5t-16 77.5v326q0 41 16 77.5t43 63.5t63.5 43t77.5 16q50 0 86 -20t64 -49l-1 1q8 -11 8 -18q0 -11 -8.5 -20t-19.5 -9q-10 0 -18 5.5t-16 13.5
q-15 13 -36 25.5t-59 12.5q-28 0 -53.5 -10t-45 -29t-31.5 -45t-12 -58v-326q0 -25 9.5 -50t27.5 -45.5t44.5 -33t60.5 -12.5t62 15.5t44 31.5z" />
    <glyph glyph-name="D" unicode="D" 
d="M124 92q0 -5 15 -11t37 -10.5t47 -7.5t45 -3q26 0 51.5 9t45.5 25.5t32 39.5t12 52v357q0 33 -13.5 56.5t-35 39t-50 23t-58.5 7.5q-29 0 -61 -4t-52 -6q-2 0 -7.5 -0.5t-7.5 -0.5v-566zM66 635q0 33 21.5 51.5t53 27.5t66 11t61.5 2q39 0 75 -13.5t63 -37.5t43.5 -58
t16.5 -75v-357q0 -42 -17 -76t-45 -58t-63.5 -37t-72.5 -13q-30 0 -65.5 2t-66 11t-50.5 27t-20 50v543z" />
    <glyph glyph-name="E" unicode="E" horiz-adv-x="465" 
d="M160 0q-30 0 -48.5 6t-28.5 17t-13.5 25.5t-3.5 32.5v566q0 18 3.5 32.5t13.5 25.5t28.5 17t48.5 6h277q13 0 20.5 -8.5t7.5 -20.5q0 -25 -28 -25h-313v-251h228q12 0 20.5 -9t8.5 -20q0 -12 -8.5 -20.5t-20.5 -8.5h-228v-311h313q28 0 28 -25q0 -12 -7.5 -20.5
t-20.5 -8.5h-277z" />
    <glyph glyph-name="F" unicode="F" horiz-adv-x="466" 
d="M438 727q11 0 19.5 -8.5t8.5 -20.5q0 -13 -8.5 -21.5t-19.5 -8.5h-314v-243h228q14 0 21.5 -9t7.5 -20q0 -29 -29 -29h-228v-336q0 -12 -7.5 -20.5t-21.5 -8.5q-11 0 -20 8.5t-9 20.5v616q0 17 3 32t12.5 25.5t28.5 16.5t51 6h277z" />
    <glyph glyph-name="G" unicode="G" 
d="M459 654q7 -8 7 -20q0 -11 -7 -19.5t-21 -8.5q-7 0 -13.5 4t-14.5 11q-9 7 -21 15.5t-28.5 15t-38.5 11t-52 4.5q-28 0 -54.5 -9t-46.5 -25.5t-32.5 -39.5t-12.5 -52v-357q0 -14 8.5 -35.5t26 -41.5t44.5 -34.5t64 -14.5q32 0 68 3.5t74 10.5v292h-142q-14 0 -21.5 8.5
t-7.5 20.5q0 11 7.5 20t21.5 9h171q13 0 20.5 -9t7.5 -20v-304q0 -30 -19.5 -48t-48.5 -27t-61.5 -11.5t-57.5 -2.5h-12q-44 0 -80.5 16.5t-63.5 43t-42 59t-15 65.5v357q0 41 16.5 75t44 58t64 37t76.5 13q42 0 73.5 -6t54 -15.5t38 -22.5t26.5 -26z" />
    <glyph glyph-name="H" unicode="H" horiz-adv-x="510" 
d="M66 695q0 12 8.5 20.5t19.5 8.5q14 0 21.5 -8.5t7.5 -20.5v-273h284v273q0 12 8 20.5t19 8.5q14 0 21.5 -8.5t7.5 -20.5v-666q0 -29 -29 -29q-11 0 -19 7.5t-8 21.5v335h-284v-335q0 -29 -29 -29q-11 0 -19.5 7.5t-8.5 21.5v666z" />
    <glyph glyph-name="I" unicode="I" horiz-adv-x="171" 
d="M66 696q0 12 8.5 20.5t19.5 8.5q14 0 22 -8.5t8 -20.5v-666q0 -14 -8 -21.5t-22 -7.5q-11 0 -19.5 7.5t-8.5 21.5v666z" />
    <glyph glyph-name="J" unicode="J" horiz-adv-x="467" 
d="M49 667q-12 0 -20.5 8t-8.5 21q0 12 8.5 20.5t20.5 8.5h276q31 0 50 -6t29 -16.5t13 -25t3 -32.5v-446q0 -41 -16 -77.5t-43.5 -63.5t-64 -42.5t-77.5 -15.5q-30 0 -56 9.5t-45.5 22t-32.5 23.5t-16 14q-6 6 -6 17q0 9 6 19t23 10q12 0 21 -9q26 -26 51 -37t55 -11
q29 0 55 11.5t45.5 31t31 45t11.5 53.5v167h-228q-11 0 -20 7.5t-9 21.5q0 11 9 20t20 9h227v221q0 17 -8.5 19.5t-18.5 2.5h-285z" />
    <glyph glyph-name="K" unicode="K" horiz-adv-x="488" 
d="M125 29q0 -14 -7.5 -22t-21.5 -8q-12 0 -21 8t-9 22v666q0 12 9 20t21 8q14 0 21.5 -8t7.5 -20v-277h123l165 286q5 11 11.5 15.5t13.5 4.5q12 0 21 -8.5t9 -20.5q0 -5 -5 -17v1l-150 -263q34 -9 62.5 -25t49 -39t31.5 -52.5t11 -63.5v-207q0 -14 -8 -21.5t-21 -7.5
q-12 0 -20 7.5t-8 21.5v206q0 29 -12 52t-32 39.5t-45.5 25.5t-52.5 9h-143v-332z" />
    <glyph glyph-name="L" unicode="L" horiz-adv-x="465" 
d="M437 58q13 0 20.5 -8.5t7.5 -19.5q0 -14 -7.5 -22t-20.5 -8h-277q-33 0 -51.5 6.5t-28 17.5t-12 26.5t-2.5 33.5v612q0 12 9 20.5t20 8.5q12 0 20 -8.5t8 -20.5v-612q0 -14 6 -20t31 -6h277z" />
    <glyph glyph-name="M" unicode="M" horiz-adv-x="508" 
d="M404 567l-112 -247q-5 -7 -12 -12t-13 -5h-6q-6 0 -13.5 5t-11.5 12l-112 247v-536q0 -12 -7.5 -20.5t-21.5 -8.5q-11 0 -20 8.5t-9 20.5v666q0 12 9 20.5t20 8.5q21 0 29 -22l141 -307l139 307q8 22 28 22q12 0 20.5 -8.5t8.5 -20.5v-666q0 -12 -8.5 -20.5t-20.5 -8.5
q-13 0 -20.5 8.5t-7.5 20.5v536z" />
    <glyph glyph-name="N" unicode="N" horiz-adv-x="511" 
d="M66 693q0 11 9 20t20 9q18 0 29 -26l283 -551v548q0 11 8.5 20t20.5 9q11 0 19.5 -9t8.5 -20v-666q0 -19 -8 -24t-12 -5q-20 0 -27 6t-9 11l-285 553v-541q0 -14 -8 -21.5t-20 -7.5q-11 0 -20 7.5t-9 21.5v666z" />
    <glyph glyph-name="O" unicode="O" 
d="M66 522q0 42 14.5 78.5t41.5 63.5t64 43t82 16q41 0 77 -16t63 -43t42.5 -64t15.5 -79v-322q0 -41 -15.5 -77.5t-42.5 -63.5t-63 -42.5t-77 -15.5t-77.5 15.5t-64.5 42t-44 61t-16 73.5v330zM124 197q0 -28 12 -53.5t31.5 -44.5t45.5 -30t54 -11t53.5 11.5t45 30.5
t31.5 44.5t12 53.5v324q0 31 -11 57.5t-30 46t-45 30.5t-56 11t-56 -11.5t-45.5 -31.5t-30.5 -46.5t-11 -55.5v-325z" />
    <glyph glyph-name="P" unicode="P" horiz-adv-x="486" 
d="M466 484q0 -45 -17.5 -79t-47 -57.5t-68.5 -35t-82 -11.5q-23 0 -54.5 2t-72.5 11v-285q0 -29 -29 -29q-11 0 -20 8t-9 20v606q0 33 19 51t47.5 27t60 11t57.5 2q43 0 82 -12t69 -35t47.5 -57.5t17.5 -79.5v-57zM409 541q0 32 -13 55.5t-34.5 39.5t-48.5 23.5t-55 7.5
q-29 0 -66 -3.5t-68 -12.5v-278q73 -14 128 -14q29 0 57 7t50.5 22.5t36 39.5t13.5 57v56z" />
    <glyph glyph-name="Q" unicode="Q" horiz-adv-x="514" 
d="M244 130q-6 6 -6 18q0 11 7 20t21 9q9 0 22 -8l73 -77l11 10q1 1 1.5 2t2.5 3q33 45 33 92v330q0 30 -12 55.5t-31.5 43.5t-46 28t-54.5 10t-53.5 -10t-45 -28t-31 -43.5t-11.5 -55.5v-328q-1 -39 17.5 -69t47 -48.5t64 -25.5t68.5 1zM459 -12q7 -7 7 -21q0 -11 -7.5 -20
t-20.5 -9t-20 10l-66 68q-25 -9 -45 -12.5t-40 -3.5q-41 0 -77.5 16t-64 43t-43.5 63.5t-16 78.5v328q0 43 15.5 79t42.5 62t64 40t79 14q41 0 77.5 -15.5t63.5 -42t43 -62t16 -75.5v-330q0 -41 -17 -78.5t-49 -71.5z" />
    <glyph glyph-name="R" unicode="R" horiz-adv-x="514" 
d="M268 360q27 0 52.5 9t45 25.5t31.5 39.5t12 52v56q0 33 -13.5 57t-35.5 39t-49.5 22.5t-55.5 7.5q-13 0 -31.5 -1.5t-37.5 -3.5t-36 -4.5t-26 -5.5v-293h144zM124 302v-272q0 -29 -29 -29q-11 0 -20 7.5t-9 21.5v605q0 33 21 51t52 27t66 11t63 2q39 0 75 -13.5t63 -37.5
t43 -58t16 -75v-57q0 -38 -13 -66t-30 -48q-19 -23 -43 -39q8 -3 23 -13.5t30 -29t25 -46t9 -66.5v-147q0 -14 -8.5 -21.5t-19.5 -7.5q-12 0 -20.5 7.5t-8.5 21.5v147q0 29 -12 52.5t-32 39.5t-45.5 24.5t-51.5 8.5h-144z" />
    <glyph glyph-name="S" unicode="S" horiz-adv-x="495" 
d="M246 726q33 0 64.5 -10.5t58 -29t46.5 -43.5t31 -54q4 -15 -3.5 -28t-24.5 -13q-11 0 -17 5t-11 16v-1q-17 46 -58 73t-90 27q-21 0 -45.5 -8t-44.5 -23t-33.5 -35t-13.5 -44q0 -21 14 -42.5t36.5 -43t50.5 -42.5t57 -41q30 -20 62.5 -44t59.5 -52t44.5 -58t17.5 -61
q0 -38 -16.5 -70t-44.5 -55t-64.5 -35.5t-75.5 -12.5q-32 0 -63.5 10.5t-57.5 29.5t-46 44.5t-30 55.5q-5 14 3.5 26t23.5 12q20 0 28 -19q6 -21 20 -39.5t33.5 -32t42 -21.5t45.5 -8q22 0 47.5 7t47 21t36 34.5t14.5 48.5q0 24 -15.5 47t-38.5 44.5t-50 41t-50 35.5
q-32 21 -65.5 45t-61 51.5t-45 58t-17.5 65.5q0 39 18 70t47 53t64 33.5t70 11.5v0z" />
    <glyph glyph-name="T" unicode="T" horiz-adv-x="440" 
d="M247 667v-638q0 -29 -29 -29q-11 0 -19.5 7.5t-8.5 21.5v638h-141q-12 0 -20.5 9t-8.5 20q0 12 8.5 20.5t20.5 8.5h342q12 0 20.5 -8.5t8.5 -20.5q0 -11 -8.5 -20t-20.5 -9h-144z" />
    <glyph glyph-name="U" unicode="U" 
d="M124 203q0 -30 12 -56.5t31.5 -46t45.5 -30.5t54 -11t54 11.5t45.5 31t31 45t11.5 54.5v495q0 12 8.5 20.5t20.5 8.5q13 0 20.5 -8.5t7.5 -20.5v-495q0 -42 -15.5 -78.5t-42.5 -63.5t-63.5 -42.5t-77.5 -15.5t-77 15t-64 41.5t-44 62t-16 76.5v500q0 12 9 20.5t21 8.5
t20 -8.5t8 -20.5v-493z" />
    <glyph glyph-name="V" unicode="V" horiz-adv-x="453" 
d="M370 704q7 22 27 22q26 0 32 -13.5t1 -30.5l-168 -660q-5 -22 -34 -22q-32 0 -35 24l-171 666q-4 14 4 25t30 11q20 0 28 -23v1l145 -569z" />
    <glyph glyph-name="W" unicode="W" horiz-adv-x="801" 
d="M23 680q-7 17 1 31.5t28 14.5t26 -23v1l147 -569l143 569q2 14 12.5 18t19.5 4q28 0 33 -22l141 -570l147 570v-1q6 23 26 23q17 0 27 -11t5 -24l-172 -664q-3 -27 -38 -27q-10 0 -18 6t-10 16l-141 568l-142 -568q-3 -22 -34 -22q-27 0 -32 22z" />
    <glyph glyph-name="X" unicode="X" horiz-adv-x="447" 
d="M422 40q9 -12 3 -22t-17.5 -14.5t-24 -2.5t-18.5 14l-143 283l-141 -283q-8 -13 -20.5 -14.5t-23 3.5t-15.5 16t2 23l168 320l-168 322q-3 4 -3 13q0 11 8 20t25 9t27 -16l141 -277l143 277q4 8 11 12t15 4q19 0 26.5 -9t7.5 -20q0 -9 -3 -13l-168 -322z" />
    <glyph glyph-name="Y" unicode="Y" 
d="M466 203q0 -41 -9.5 -77t-32.5 -64t-62 -44t-98 -16q-20 0 -41 6t-40.5 16.5t-37.5 23t-32 26.5q-5 5 -6.5 10.5t-1.5 9.5q0 11 9 19.5t20 8.5q12 0 23 -11h-1q20 -23 49.5 -37t60.5 -14q43 0 71 8t44 25.5t22 44.5t6 65v121q-53 -13 -86.5 -15.5t-56.5 -2.5
q-39 0 -75 13t-63.5 37t-44.5 57.5t-17 74.5v211q0 14 9 21.5t20 7.5q29 0 29 -29v-210q0 -33 13.5 -56.5t35.5 -39t49.5 -23t55.5 -7.5q16 0 34.5 1.5t36.5 3.5t33.5 4.5t26.5 4.5v323q0 14 8.5 21.5t20.5 7.5q11 0 19.5 -7.5t8.5 -21.5v-497z" />
    <glyph glyph-name="Z" unicode="Z" horiz-adv-x="451" 
d="M61 667q-13 0 -21 8t-8 21q0 12 8 20.5t21 8.5h277q42 0 67.5 -23.5t25.5 -65.5q0 -16 -6 -31t-15 -28l-310 -462q-7 -9 -9 -19.5t0.5 -19.5t11 -14.5t22.5 -3.5h277q12 0 20.5 -8t8.5 -21q0 -14 -8.5 -21.5t-20.5 -7.5h-290q-16 0 -32 6.5t-29.5 18.5t-22 27.5
t-8.5 33.5q0 17 6 33.5t14 29.5l309 459q7 9 9 19.5t-1 20t-11 15t-21 4.5h-264z" />
    <glyph glyph-name="quotedbl" unicode="&#x22;" horiz-adv-x="326" 
d="M105 792q6 23 29 23q15 0 25.5 -11.5t6.5 -26.5l-57 -201q-2 -9 -10.5 -15.5t-19.5 -6.5q-17 0 -26 12.5t-4 27.5zM264 792q6 23 29 23q15 0 25.5 -11.5t6.5 -26.5l-57 -201q-2 -9 -10.5 -15.5t-19.5 -6.5q-17 0 -26 12.5t-4 27.5z" />
    <glyph glyph-name="dollar" unicode="$" horiz-adv-x="447" 
d="M196 749q0 14 8 22t22 8q11 0 19.5 -14t8.5 -33q54 -11 101.5 -48.5t70.5 -92.5q-1 -2 -0.5 -2.5t0.5 -2.5t0.5 -3t0.5 -3q0 -12 -7 -21t-21 -9t-24.5 11.5t-18.5 28.5q-9 18 -23 33t-29 26t-28.5 17t-21.5 6v-289q32 -23 63 -48t55.5 -51.5t39.5 -55t15 -59.5
q0 -34 -14 -63t-37.5 -51.5t-55 -37.5t-66.5 -21v-23q0 -12 -8.5 -20.5t-19.5 -8.5q-14 0 -22 8.5t-8 20.5v23q-36 7 -65 21.5t-51 33.5t-37 41t-22 44v-1q-3 14 4 27t24 13q9 0 16.5 -6.5t12.5 -14.5v2q13 -37 41.5 -60.5t76.5 -43.5v296q-4 2 -9.5 6t-8.5 6
q-28 20 -56.5 42t-51 46.5t-36.5 52t-14 60.5t15 62t39.5 51t56.5 37t65 21v17zM315 78q24 14 39 36t15 51q0 17 -14.5 39.5t-34 44t-38.5 39.5t-28 25v-258q30 8 41.5 13t17.5 9zM196 674q-22 -3 -43 -12t-37.5 -23.5t-27 -34t-10.5 -43.5q0 -21 14 -43.5t33.5 -42.5
t39.5 -35.5t31 -21.5v256z" />
    <glyph glyph-name="percent" unicode="%" horiz-adv-x="654" 
d="M501 306q31 0 59 -11.5t49 -32t33 -48t12 -59.5t-12 -59.5t-33 -48t-49 -32.5t-59 -12t-58.5 12t-48.5 32.5t-33 48t-12 59.5t12 59.5t33 48t48.5 32t58.5 11.5zM153 742q31 0 58 -12t47.5 -33t32.5 -48.5t12 -58.5q0 -32 -12 -59.5t-32 -48t-47.5 -32.5t-58.5 -12
q-32 0 -59.5 12t-48.5 32.5t-33 48t-12 59.5q0 31 12 58.5t33 48.5t49 33t59 12zM474 724q6 14 17.5 16t21 -3t14.5 -16t-1 -23l-349 -681q-7 -14 -18.5 -15.5t-21.5 4.5t-15 17t2 23v-1zM501 248q-18 0 -35 -7.5t-29.5 -20.5t-20 -30t-7.5 -35q0 -19 7.5 -36t20 -30
t29.5 -20.5t35 -7.5q19 0 36 7.5t30 20.5t20.5 30t7.5 36q0 18 -7.5 35t-20.5 30t-30 20.5t-36 7.5zM153 683q-19 0 -36 -8t-30 -20.5t-20.5 -29.5t-7.5 -35q0 -21 7.5 -38t20.5 -29t30.5 -19t36.5 -7t35.5 7.5t29 20t19.5 29.5t7 36q0 18 -7.5 35t-20.5 29.5t-29.5 20.5
t-34.5 8z" />
    <glyph glyph-name="colon" unicode=":" horiz-adv-x="214" 
d="M66 42q0 17 12.5 29t29.5 12t28.5 -12t11.5 -29t-11.5 -29t-28.5 -12t-29.5 12t-12.5 29zM66 457q0 17 12.5 29t29.5 12t28.5 -12t11.5 -29t-11.5 -29t-28.5 -12t-29.5 12t-12.5 29z" />
    <glyph glyph-name="semicolon" unicode=";" horiz-adv-x="264" 
d="M124 62q6 23 29 23q15 0 25.5 -11.5t6.5 -26.5l-57 -201q-2 -9 -10.5 -15.5t-19.5 -6.5q-17 0 -26 12.5t-4 27.5zM116 457q0 17 12.5 29t29.5 12t28.5 -12t11.5 -29t-11.5 -29t-28.5 -12t-29.5 12t-12.5 29z" />
    <glyph glyph-name="equal" unicode="=" horiz-adv-x="542" 
d="M96 295q-14 0 -22 7.5t-8 15.5q0 9 8 17t22 8h349q13 0 22 -8t9 -17q0 -8 -9 -15.5t-22 -7.5h-349zM96 167q-14 0 -22 7.5t-8 15.5q0 9 8 17t22 8h349q13 0 22 -8t9 -17q0 -8 -9 -15.5t-22 -7.5h-349z" />
    <glyph glyph-name="question" unicode="?" horiz-adv-x="455" 
d="M235 164q0 -12 -8.5 -18t-21.5 -6q-28 0 -31 24v59q0 37 24.5 68.5t54.5 64.5q18 18 35 37t30.5 39.5t21.5 43.5t8 50q0 31 -9.5 60t-27.5 50.5t-44 34.5t-59 13q-55 0 -93 -24t-56 -73q-4 -10 -15 -14t-22 -2t-18 11.5t-2 26.5q23 63 77.5 98t124.5 35q43 0 80.5 -16.5
t65 -45t43 -68t15.5 -84.5q0 -36 -12 -68.5t-31 -62.5t-42.5 -57.5t-46.5 -52.5q-8 -9 -17 -18.5t-17 -18.5q-5 -10 -6 -17t-1 -11v-58zM165 43q0 -17 12.5 -29t29.5 -12t28.5 12t11.5 29t-11.5 29t-28.5 12t-29.5 -12t-12.5 -29z" />
    <glyph glyph-name="at" unicode="@" horiz-adv-x="774" 
d="M289 324q0 -18 7.5 -32.5t20 -24t28.5 -15t32 -5.5q20 0 42 6t46 17v192q0 13 -7.5 19.5t-18.5 9.5t-25 3.5t-26 0.5h-11q-16 0 -31.5 -4.5t-28 -14.5t-20.5 -24.5t-8 -33.5v-94zM74 367q0 -69 27 -126.5t72.5 -99.5t105 -65t125.5 -23q16 0 31.5 5t30 10.5t29 10.5
t30.5 5q8 0 15 -6.5t7 -19.5q0 -16 -17 -26.5t-42 -17t-53 -9t-50 -2.5q-75 0 -141.5 29t-116 78.5t-78.5 116t-29 141.5q0 76 29 142.5t78.5 116t116 78t141.5 28.5q73 0 140 -28.5t118 -78t81 -116.5t29 -143q0 -36 -10 -68t-28 -56t-44.5 -38t-60.5 -14q-35 0 -56.5 11
t-45.5 31q-30 -18 -63.5 -28.5t-64.5 -10.5q-29 0 -55 9.5t-45.5 27t-31 41t-11.5 52.5v94q0 29 11.5 53t31 41.5t45 27t52.5 9.5q20 0 44.5 -1.5t45.5 -8.5t35.5 -20.5t14.5 -38.5v-145q0 -18 8 -34.5t21.5 -29t30 -20t33.5 -7.5q28 0 45 13t27 31.5t13.5 40t3.5 38.5
q0 60 -23 116.5t-65 100.5t-99.5 71t-126.5 27q-63 0 -119.5 -25t-99 -68t-67.5 -100t-25 -121v-1z" />
    <glyph glyph-name="underscore" unicode="_" horiz-adv-x="449" 
d="M50 -52q-14 0 -22 8t-8 19t8 18t22 7h349q13 0 21.5 -7t8.5 -18t-8.5 -19t-21.5 -8h-349z" />
    <glyph glyph-name="grave" unicode="`" horiz-adv-x="153" 
d="M46 703q0 14 9.5 22t20.5 8q13 0 21.5 -8t8.5 -22v-88q0 -12 -9.5 -20.5t-20.5 -8.5q-14 0 -22 8.5t-8 20.5v88z" />
    <glyph glyph-name="a" unicode="a" horiz-adv-x="475" 
d="M369 365q0 28 -7.5 52t-25 41t-45.5 26.5t-69 8.5q-35 -2 -61 -14.5t-49 -38.5q-5 -5 -11 -8t-11 -3q-12 0 -20.5 9.5t-8.5 20.5q0 12 5 17q34 37 73.5 56t90.5 19q53 0 90.5 -15.5t61.5 -43t35 -64t11 -78.5v-258q0 -35 -22.5 -53.5t-55 -27t-68 -10t-62.5 -1.5
q-39 0 -75 14.5t-64 39.5t-44.5 59.5t-16.5 74.5q0 37 17.5 69t46 56t65.5 38t77 14h143zM369 307h-143q-25 0 -50 -9t-46 -24.5t-35 -37.5t-16 -48q0 -33 13.5 -57t35.5 -40t50 -24t56 -8t64.5 4t70.5 12v232z" />
    <glyph glyph-name="b" unicode="b" horiz-adv-x="519" 
d="M472 187q0 -48 -19 -83t-50.5 -58t-71.5 -34.5t-82 -11.5q-28 0 -60 2.5t-59.5 12t-45.5 27.5t-18 49v604q0 12 8 21t22 9q11 0 20 -8.5t9 -19.5v-159q56 12 89 14t56 2q40 0 76.5 -14t64.5 -38.5t44.5 -59t16.5 -75.5v-180zM414 366q0 33 -13 57t-34.5 40t-49 24
t-55.5 8q-27 0 -64.5 -4t-72.5 -12v-399q12 -8 34.5 -12.5t45.5 -6.5t41.5 -2h23.5q28 0 54 9t46 25.5t32 40.5t12 53v179z" />
    <glyph glyph-name="c" unicode="c" horiz-adv-x="456" 
d="M359 108q7 9 21 9t21.5 -9t7.5 -20q0 -10 -9 -18q-29 -34 -66 -52t-85 -18q-41 0 -78 16t-64.5 43.5t-43.5 64t-16 78.5v144q0 43 16 80t43 64.5t63.5 43.5t77.5 16q33 0 59 -8t44.5 -19t31 -23t19.5 -20q8 -7 8 -18t-8 -20t-21 -9q-14 0 -21 9q-1 1 -3 2.5t-3 2.5h1
q-6 7 -14.5 14.5t-21 14t-29.5 11t-40 4.5q-29 0 -55 -11.5t-46 -31t-32 -46t-12 -56.5v-144q0 -31 11.5 -57t32 -45t47 -30t56.5 -11q29 0 58.5 11.5t49.5 37.5z" />
    <glyph glyph-name="d" unicode="d" horiz-adv-x="502" 
d="M106 187q0 -32 13 -56t34 -40t48.5 -24t57.5 -8q11 0 30 0.5t39 3t38.5 6.5t28.5 11v399q-39 8 -75.5 12t-69.5 4q-28 0 -54 -9.5t-46 -26.5t-32 -41t-12 -52v-179zM47 367q0 41 17 75.5t45 59t65 38.5t77 14q23 0 55.5 -2t88.5 -14v160q0 11 8.5 19.5t21.5 8.5
q14 0 22 -9t8 -21v-608q0 -32 -20 -49.5t-49.5 -26t-63.5 -10.5t-62 -2h-9q-40 0 -77 13.5t-65 38t-45 59t-17 76.5v180z" />
    <glyph glyph-name="e" unicode="e" horiz-adv-x="476" 
d="M106 305h291q0 39 -10 72.5t-29 59t-46 40t-60 14.5q-31 0 -58 -11.5t-46.5 -31t-30.5 -46t-11 -57.5v-40zM361 108q7 9 20 9q12 0 20.5 -9t8.5 -21q0 -4 -0.5 -8t-3.5 -7q-69 -72 -154 -72q-42 0 -79.5 15.5t-65 43t-44 64.5t-16.5 79v143q0 42 16.5 79.5t44 65t65 44
t79.5 16.5q43 0 80 -17t64.5 -47t43.5 -70.5t16 -87.5q0 -39 -23 -60t-63 -21h-264v-45q0 -28 12 -54t32 -45.5t46.5 -31.5t55.5 -12q43 0 69.5 16t39.5 33z" />
    <glyph glyph-name="f" unicode="f" horiz-adv-x="280" 
d="M47 535q0 41 9.5 76.5t32.5 61.5t62 40.5t98 14.5q14 0 22.5 -6t8.5 -19q0 -12 -8.5 -20t-22.5 -8q-74 0 -107 -25t-35 -76v-21h142q14 0 22.5 -9t8.5 -20q0 -14 -8.5 -22t-22.5 -8h-144v-461q0 -13 -8 -22t-22 -9q-12 0 -20 9t-8 22v502z" />
    <glyph glyph-name="g" unicode="g" horiz-adv-x="520" 
d="M395 480q-33 8 -68.5 11.5t-63.5 3.5h-12q-29 0 -55 -9t-46 -25.5t-32 -40.5t-12 -53v-179q0 -31 12 -55t32 -40.5t46 -25t55 -8.5h10q29 0 65.5 4t68.5 12v405zM454 19q0 -39 -9 -75.5t-32 -65t-62 -45.5t-100 -17q-28 0 -57 9t-53 22.5t-39 29.5t-15 31q0 12 8.5 21
t21.5 9q6 0 13 -5t16 -13q17 -15 40.5 -30.5t64.5 -15.5q39 0 65.5 7t43.5 22t25 37.5t10 52.5v22q-51 -11 -83.5 -13t-53.5 -2h-7q-40 0 -77 13.5t-65 38.5t-45 59.5t-17 76.5v179q0 43 17 77.5t45 59t65 37.5t77 13q25 0 60 -2t66.5 -10.5t54 -26t22.5 -49.5v-447z" />
    <glyph glyph-name="h" unicode="h" horiz-adv-x="501" 
d="M47 698q0 14 8 21.5t22 7.5q11 0 19.5 -7.5t8.5 -21.5v-164q58 13 90.5 15t55.5 2q40 0 77 -13.5t65 -38.5t44.5 -59.5t16.5 -76.5v-337q0 -12 -8 -20t-22 -8q-13 0 -21 8t-8 20v337q0 33 -13 57t-34.5 40t-49 24t-55.5 8q-27 0 -64.5 -4.5t-73.5 -11.5v-450
q0 -14 -8.5 -21t-19.5 -7q-14 0 -22 7t-8 21v672z" />
    <glyph glyph-name="i" unicode="i" horiz-adv-x="191" 
d="M66 522q0 11 8.5 20t20.5 9q14 0 21.5 -9t7.5 -20v-493q0 -12 -7.5 -20.5t-21.5 -8.5q-12 0 -20.5 8.5t-8.5 20.5v493zM57 690q0 15 11.5 26t26.5 11t25.5 -11t10.5 -26t-10.5 -26t-25.5 -11t-26.5 11t-11.5 26z" />
    <glyph glyph-name="j" unicode="j" horiz-adv-x="303" 
d="M235 28q0 -40 -9.5 -77t-33 -65t-63.5 -44.5t-100 -16.5q-13 0 -21 8.5t-8 20.5q0 13 8 21.5t21 8.5q48 0 77 11t44.5 30.5t20.5 46t5 56.5v465h-57q-12 0 -20.5 8.5t-8.5 22.5q0 11 8.5 20t20.5 9h86q13 0 22 -9t9 -20zM162 690q0 15 11.5 26t26.5 11t25.5 -11t10.5 -26
t-10.5 -26t-25.5 -11t-26.5 11t-11.5 26z" />
    <glyph glyph-name="k" unicode="k" horiz-adv-x="519" 
d="M124 30q0 -14 -8.5 -22t-19.5 -8q-14 0 -22 8t-8 22v493q0 12 8 21t22 9q11 0 19.5 -9t8.5 -21v-219h129l166 235q8 14 25 14q14 0 21 -10t7 -20q0 -11 -5 -16l-143 -207q33 -5 60.5 -22t47 -41.5t30 -55.5t10.5 -64v-87q0 -14 -7.5 -22t-21.5 -8q-13 0 -21 8t-8 22v87
q0 29 -12 53t-31.5 41t-45.5 26t-54 9h-147v-216z" />
    <glyph glyph-name="l" unicode="l" horiz-adv-x="238" 
d="M162 59q13 0 21 -8.5t8 -21.5q0 -12 -8 -20.5t-21 -8.5q-28 0 -46.5 8.5t-29.5 22t-15.5 30t-4.5 33.5v604q0 11 9 19.5t20 8.5q12 0 20.5 -8.5t8.5 -19.5v-596q0 -43 38 -43z" />
    <glyph glyph-name="m" unicode="m" horiz-adv-x="888" 
d="M124 29q0 -12 -8 -20.5t-21 -8.5q-14 0 -21.5 8.5t-7.5 20.5v435q0 32 22 50t53.5 27t66.5 11t62 2q79 0 149 -58q19 21 44.5 33t53.5 17.5t54.5 6.5t46.5 1q40 0 77 -14t65 -38.5t45 -59t17 -75.5v-336q0 -12 -9 -21t-22 -9q-12 0 -20 9t-8 21v336q-2 37 -17.5 62
t-39.5 40t-54 21t-62 6q-35 0 -61 -4t-57 -12v-451q0 -12 -7.5 -20.5t-21.5 -8.5q-13 0 -21 8.5t-8 20.5v344q0 36 -15 59.5t-40 38t-56 20t-62 5.5q-28 0 -59.5 -4.5t-57.5 -11.5v-451z" />
    <glyph glyph-name="n" unicode="n" horiz-adv-x="539" 
d="M125 31q0 -11 -7.5 -20t-21.5 -9t-22 9t-8 20v435q0 33 22.5 51t54 27t66.5 10.5t61 1.5q41 0 78 -14t64.5 -38.5t44 -59t16.5 -75.5v-335q0 -13 -8 -22t-22 -9q-11 0 -19.5 9t-8.5 22v335q0 33 -14.5 57t-37.5 40t-52 24t-58 8q-15 0 -33 -1.5t-36 -4t-34 -5t-25 -5.5
v-451z" />
    <glyph glyph-name="o" unicode="o" horiz-adv-x="502" 
d="M47 344q0 43 16.5 80.5t44 65.5t65 44t79.5 16t79 -16t64.5 -44t43.5 -65.5t16 -80.5v-139q0 -42 -16 -79.5t-43.5 -65.5t-64.5 -44t-79 -16t-79.5 16t-65 44t-44 65.5t-16.5 79.5v139zM106 205q0 -31 11.5 -57.5t31 -46t46 -30.5t57.5 -11q28 0 54 11t46 30.5t32.5 46
t12.5 57.5v139q0 33 -12 60.5t-32 47.5t-46.5 31.5t-54.5 11.5q-29 0 -55.5 -11t-46.5 -31t-32 -48t-12 -61v-139z" />
    <glyph glyph-name="p" unicode="p" horiz-adv-x="500" 
d="M395 368q0 33 -13.5 57t-35.5 40t-49.5 24t-55.5 8q-29 0 -66.5 -4t-69.5 -12v-401q12 -7 29 -11t35.5 -6t36.5 -2.5t32 -0.5q70 0 113.5 32t43.5 97v179zM453 189q0 -38 -14 -72.5t-42.5 -60t-71.5 -40.5t-100 -15q-41 0 -120 15v-168q0 -14 -8.5 -22t-19.5 -8
q-14 0 -22 7.5t-8 20.5v619q0 33 22 51.5t54 27t67 10.5t61 2q40 0 76.5 -13.5t64.5 -38.5t44.5 -59.5t16.5 -76.5v-179z" />
    <glyph glyph-name="q" unicode="q" horiz-adv-x="521" 
d="M105 190q0 -65 44.5 -97t114.5 -32q14 0 31 0.5t35 2.5t35 6t30 11v401q-33 11 -69.5 13.5t-65.5 2.5q-28 0 -56 -8t-50 -24t-35.5 -40t-13.5 -57v-179zM47 369q0 42 16.5 76.5t44.5 59.5t65 38.5t78 13.5q25 0 60.5 -2t67 -10.5t54 -27t22.5 -51.5v-618q0 -14 -9 -21.5
t-21 -7.5q-14 0 -22 8t-8 22v170q-38 -9 -68 -13t-53 -4q-56 0 -98.5 15t-71 40.5t-43 60t-14.5 72.5v179z" />
    <glyph glyph-name="r" unicode="r" horiz-adv-x="281" 
d="M106 29q0 -12 -8.5 -20.5t-21.5 -8.5q-11 0 -20 8.5t-9 20.5v435q0 33 22 51t54 27t67 10.5t62 1.5q11 0 20 -9t9 -20q0 -12 -7 -18.5t-19 -9.5t-27.5 -4t-31.5 -2q-17 -1 -43.5 -3t-46.5 -8v-451z" />
    <glyph glyph-name="s" unicode="s" horiz-adv-x="498" 
d="M439 427q3 -15 -4.5 -27t-23.5 -12q-11 0 -18 9.5t-14 20.5q-23 35 -56.5 56t-74.5 21q-26 0 -51.5 -9t-45.5 -24.5t-32.5 -35.5t-12.5 -42q0 -12 9 -20t24 -14t36 -11t45 -10q36 -8 77 -18.5t75 -28t56.5 -44t22.5 -65.5q0 -40 -18.5 -72t-47.5 -54t-65 -33.5t-71 -11.5
q-38 0 -71 12t-59.5 33.5t-44.5 50.5t-25 62q-4 16 5 28t23 12q9 0 17.5 -7.5t10.5 -15.5q11 -51 49.5 -83.5t93.5 -32.5q26 0 52 8t46.5 23t33 35.5t12.5 45.5q0 23 -13.5 38.5t-36 26.5t-51.5 18t-60 14q-33 7 -65.5 15t-58.5 20.5t-42.5 31.5t-16.5 47q0 40 18 71.5
t47 53.5t65 33.5t73 11.5q63 0 114.5 -35t73.5 -92z" />
    <glyph glyph-name="t" unicode="t" horiz-adv-x="320" 
d="M66 698q0 13 9 21t20 8q13 0 21.5 -8t8.5 -21v-145h146q11 0 20 -8.5t9 -21.5q0 -12 -9 -20.5t-20 -8.5h-146v-292q0 -30 11 -56t31 -45.5t46.5 -30.5t58.5 -11q11 0 19.5 -8.5t8.5 -22.5q0 -12 -9 -20t-20 -8q-42 0 -79.5 16t-65 43.5t-44 64t-16.5 78.5v496z" />
    <glyph glyph-name="u" unicode="u" horiz-adv-x="538" 
d="M413 527q0 12 8 20t21 8q14 0 22 -8t8 -20v-435q0 -35 -22.5 -53.5t-54 -26.5t-67 -9.5t-60.5 -1.5q-41 0 -77.5 13.5t-64.5 38.5t-44 59.5t-16 76.5v335q0 14 7.5 22t21.5 8q11 0 19.5 -8t8.5 -22v-335q0 -34 14.5 -58.5t37.5 -40t52 -23t59 -7.5q28 0 59 3.5t51 7.5
q2 0 8.5 0.5t8.5 0.5v455z" />
    <glyph glyph-name="v" unicode="v" horiz-adv-x="451" 
d="M370 533q4 12 16 17t23 3t17 -10.5t4 -20.5q0 -1 -0.5 -3t-0.5 -4l-173 -495v1q-8 -21 -30 -21q-10 0 -18 5.5t-10 14.5l-177 491l1 -1q-3 13 1 26.5t21 16.5q14 2 22.5 -4t12.5 -16v1l148 -414z" />
    <glyph glyph-name="w" unicode="w" horiz-adv-x="800" 
d="M23 512q-7 15 2 28t27 13q20 0 29 -20v1l146 -430l144 430q4 8 11.5 13.5t16.5 5.5q10 0 17 -5.5t10 -13.5l147 -431l149 433q2 9 9 13t15 5q14 2 25.5 -9.5t6.5 -28.5q-43 -123 -87.5 -247t-89.5 -249q-6 -19 -30 -19q-11 0 -18 6.5t-10 14.5v-1l-143 422l-145 -424
q-6 -19 -28 -19q-23 0 -28 20z" />
    <glyph glyph-name="x" unicode="x" horiz-adv-x="451" 
d="M26 506q-9 12 -2.5 29t27.5 17q7 0 13.5 -4.5t11.5 -9.5l152 -216l148 216q10 14 25 14q18 0 24.5 -16.5t-0.5 -30.5l-163 -230l163 -230q5 -8 5 -16t-3.5 -15t-10.5 -11t-15 -4q-18 0 -25 11l-150 215l-150 -213q-5 -5 -11 -9t-14 -4q-11 0 -17.5 5t-9.5 12.5t-2.5 15.5
t4.5 13l163 230z" />
    <glyph glyph-name="y" unicode="y" horiz-adv-x="537" 
d="M471 18q0 -93 -48.5 -148.5t-154.5 -55.5q-35 0 -65 10t-52 24t-34.5 30.5t-12.5 28.5q0 11 9 21t20 10t20.5 -7.5t20.5 -16.5h-1q17 -15 40 -28.5t55 -13.5q48 0 76.5 14.5t44 36t20 46.5t4.5 48q-15 -6 -35 -9t-40 -4.5t-37 -2t-26 -0.5h-7q-41 0 -77.5 13.5t-64.5 38
t-44 59t-16 76.5v338q0 11 7.5 19t21.5 8q11 0 19.5 -8t8.5 -19v-338q0 -34 14 -58t36.5 -39.5t50.5 -23t57 -7.5q28 0 63.5 3.5t68.5 11.5v451q0 11 8 19t21 8q14 0 21.5 -8t7.5 -19v-508z" />
    <glyph glyph-name="z" unicode="z" horiz-adv-x="493" 
d="M77 494q-12 0 -21 8.5t-9 20.5t9 21t21 9h281q24 0 42 -8t30.5 -21t18.5 -29.5t6 -33.5t-7.5 -34.5t-19.5 -31.5l-312 -280q-8 -8 -9.5 -18.5t2.5 -19.5t13 -14.5t22 -3.5h282q11 0 20 -8.5t9 -21.5q0 -12 -9 -20.5t-20 -8.5h-282q-42 0 -69.5 26.5t-27.5 65.5q0 17 7 36
t21 30l313 281q8 8 8 21q0 34 -38 34h-281z" />
    <glyph glyph-name="bracketleft" unicode="[" horiz-adv-x="214" 
d="M183 -44q14 0 22.5 -8.5t8.5 -20.5q0 -13 -8.5 -21.5t-22.5 -8.5h-88q-11 0 -20 8.5t-9 21.5v881q0 12 9 20.5t20 8.5h89q13 0 21.5 -8.5t8.5 -20.5q0 -14 -8.5 -22t-21.5 -8h-59v-822h58z" />
    <glyph glyph-name="backslash" unicode="\" horiz-adv-x="434" 
d="M23 683q-1 3 -2 7t-1 7q0 11 7.5 20.5t21.5 9.5q9 0 16 -5t11 -12q39 -80 78.5 -159.5t84.5 -167.5t88 -174.5t83 -165.5q4 -10 4 -14q0 -11 -8 -20t-21 -9q-8 0 -15.5 4t-11.5 13z" />
    <glyph glyph-name="bracketright" unicode="]" horiz-adv-x="194" 
d="M89 -43v823h-59q-14 0 -22 8.5t-8 21.5q0 12 8 20.5t22 8.5h89q12 0 20 -8.5t8 -20.5v-882q0 -13 -8 -21.5t-20 -8.5h-88q-14 0 -22.5 8.5t-8.5 21.5q0 12 8.5 20.5t22.5 8.5h58z" />
    <glyph glyph-name="space" unicode=" " horiz-adv-x="313" 
 />
    <glyph glyph-name="Scaron" unicode="&#x160;" horiz-adv-x="485" 
d="M445 587l20 4h-20v-4zM445 587q0 -1 0.5 -1.5t0.5 -1.5q0 -2 0.5 -3t0.5 -3q0 -12 -7 -20.5t-21 -8.5q-8 0 -15.5 6t-12.5 14q-8 22 -23.5 40t-36 31.5t-43.5 21t-46 7.5q-21 0 -45 -8t-44.5 -23t-34 -35t-13.5 -44q0 -21 13.5 -42t35 -41.5t48.5 -41t55 -39.5
q33 -21 67 -46t61 -52.5t44.5 -58t17.5 -63.5q0 -38 -16.5 -70t-44.5 -55t-63.5 -35.5t-74.5 -12.5q-33 0 -64.5 10.5t-58 29.5t-47 44.5t-30.5 55.5l1 -1q-2 6 -2 7q0 14 7.5 23t21.5 9q9 0 17.5 -5t11.5 -14l-1 1q5 -22 19.5 -40.5t34.5 -32t43 -21.5t45 -8t47.5 7t47 21
t35.5 34.5t14 48.5q0 25 -16.5 49.5t-40.5 47t-51.5 42t-49.5 34.5q-30 23 -62.5 45t-59.5 47t-44.5 55t-17.5 68q0 39 17.5 70t46 53t64.5 33.5t72 11.5q33 0 64 -10.5t57.5 -29.5t46 -44.5t29.5 -55.5zM265 820q-8 -9 -18 -9q-11 0 -18 9l-72 65q-5 2 -6 7.5t-1 11.5
q0 10 7 16.5t18 6.5t17 -6l55 -48l55 48q6 6 17 6t18 -6.5t7 -16.5q0 -6 -1 -11.5t-6 -7.5z" />
    <glyph glyph-name="quotedblleft" unicode="&#x201c;" horiz-adv-x="354" 
d="M324 594q5 -15 -4 -27.5t-26 -12.5q-11 0 -19.5 6.5t-10.5 15.5l-57 201q-4 15 6.5 26.5t25.5 11.5q23 0 29 -23zM165 594q5 -15 -4 -27.5t-26 -12.5q-11 0 -19.5 6.5t-10.5 15.5l-57 201q-4 15 6.5 26.5t25.5 11.5q23 0 29 -23z" />
    <glyph glyph-name="quotedblright" unicode="&#x201d;" horiz-adv-x="354" 
d="M105 792q6 23 29 23q15 0 25.5 -11.5t6.5 -26.5l-57 -201q-2 -9 -10.5 -15.5t-19.5 -6.5q-17 0 -26 12.5t-4 27.5zM264 792q6 23 29 23q15 0 25.5 -11.5t6.5 -26.5l-57 -201q-2 -9 -10.5 -15.5t-19.5 -6.5q-17 0 -26 12.5t-4 27.5z" />
    <glyph glyph-name="bullet" unicode="&#x2022;" horiz-adv-x="275" 
d="M66 343q0 32 21 52t51 20t50.5 -20t20.5 -52q0 -27 -21 -48t-50 -21q-30 0 -51 20t-21 49z" />
    <glyph glyph-name="endash" unicode="&#x2013;" horiz-adv-x="542" 
d="M96 258q-14 0 -22 7.5t-8 17.5q0 11 8 18.5t22 7.5h349q13 0 22 -7.5t9 -18.5q0 -10 -9 -17.5t-22 -7.5h-349z" />
    <glyph glyph-name="emdash" unicode="&#x2014;" horiz-adv-x="695" 
d="M98 258q-14 0 -23 7.5t-9 17.5q0 11 9 18.5t23 7.5h501q13 0 21.5 -7.5t8.5 -18.5q0 -10 -8.5 -17.5t-21.5 -7.5h-501z" />
    <glyph glyph-name="trademark" unicode="&#x2122;" horiz-adv-x="666" 
d="M190 512v-233q0 -10 -9 -17t-20 -7q-9 0 -17 7t-8 17v233h-93q-10 0 -17 7.5t-7 17.5q0 11 7 17.5t17 6.5h238q10 0 17 -6.5t7 -17.5q0 -10 -7 -17.5t-17 -7.5h-91zM405 280q0 -10 -6.5 -17.5t-17.5 -7.5q-10 0 -17.5 7.5t-7.5 17.5v256q0 11 7.5 17.5t17.5 6.5
q17 0 23 -16l90 -195l4 -19l4 19l94 199q2 5 8.5 8.5t13.5 3.5q11 0 17.5 -7t6.5 -17v-256q0 -10 -7.5 -17.5t-16.5 -7.5q-11 0 -18 7.5t-7 17.5v129l3 26l-7 -22l-69 -137q-2 -8 -9 -12.5t-14 -4.5q-8 0 -14 5t-8 12l-66 137l-7 22l3 -26v-129z" />
    <glyph glyph-name="scaron" unicode="&#x161;" horiz-adv-x="498" 
d="M439 425q3 -15 -4.5 -27.5t-23.5 -12.5q-8 0 -15.5 9.5t-15.5 20.5q-4 7 -9.5 15.5t-11.5 14.5q-23 23 -52.5 35.5t-58.5 12.5q-26 0 -51.5 -9t-45.5 -24.5t-32.5 -35.5t-12.5 -42q0 -12 9 -20t24 -14t36 -11t45 -10q36 -8 77 -18.5t75 -28t56.5 -44t22.5 -65.5
q0 -40 -18.5 -72t-47.5 -54t-65 -33.5t-71 -11.5q-33 0 -69 12.5t-65.5 34.5t-48.5 52t-19 65q0 14 8 24t22 10q9 0 17.5 -7.5t11.5 -16.5q11 -50 49 -82.5t93 -32.5q26 0 52 8t46.5 23t33 35.5t12.5 45.5q0 23 -13.5 38.5t-36 26.5t-51.5 18t-60 14q-33 7 -65.5 15
t-58.5 20.5t-42.5 31.5t-16.5 47q0 40 18 71.5t47 53.5t65 33.5t73 11.5q63 0 114.5 -35t73.5 -92zM268 636q-8 -9 -18 -9q-11 0 -18 9l-72 65q-5 2 -6 7.5t-1 11.5q0 10 7 16.5t18 6.5t17 -6l55 -48l55 48q6 6 17 6t18 -6.5t7 -16.5q0 -6 -1 -11.5t-6 -7.5z" />
    <glyph glyph-name="Amacron.001" unicode="&#x100;" horiz-adv-x="440" 
d="M122 813q-14 0 -22 7.5t-8 18.5q0 9 8 17t22 8h196q12 0 20.5 -8t8.5 -17q0 -11 -8.5 -18.5t-20.5 -7.5h-196zM418 39q0 -3 0.5 -4.5t0.5 -3.5t1 -2q0 -11 -7.5 -19t-21.5 -8q-9 0 -17.5 6t-10.5 16l-55 220h-176l-55 -220q-3 -10 -11 -16t-17 -6q-14 0 -21.5 9t-7.5 20
v5l173 669q8 21 29 21q8 0 15 -6.5t10 -16.5v1zM292 301l-72 301l-73 -301h145z" />
    <glyph glyph-name="amacron.001" unicode="&#x101;" horiz-adv-x="475" 
d="M143 672q-14 0 -22.5 8t-8.5 19q0 10 8.5 17.5t22.5 7.5h200q14 0 21.5 -7.5t7.5 -17.5q0 -11 -7.5 -19t-21.5 -8h-200zM369 365q0 28 -7.5 52t-25 41t-45.5 26.5t-69 8.5q-35 -2 -61 -14.5t-49 -38.5q-5 -5 -11 -8t-11 -3q-12 0 -20.5 9.5t-8.5 20.5q0 12 5 17
q34 37 73.5 56t90.5 19q53 0 90.5 -15.5t61.5 -43t35 -64t11 -78.5v-258q0 -35 -22.5 -53.5t-55 -27t-68 -10t-62.5 -1.5q-39 0 -75 14.5t-64 39.5t-44.5 59.5t-16.5 74.5q0 37 17.5 69t46 56t65.5 38t77 14h143zM369 307h-143q-25 0 -50 -9t-46 -24.5t-35 -37.5t-16 -48
q0 -33 13.5 -57t35.5 -40t50 -24t56 -8t64.5 4t70.5 12v232z" />
    <glyph glyph-name="copyright" unicode="&#xa9;" horiz-adv-x="569" 
d="M285 551q50 0 93 -18.5t75 -50.5t50.5 -75.5t18.5 -92.5q0 -50 -18.5 -93.5t-50.5 -76t-75 -50.5t-93 -18q-49 0 -92 18t-76 50.5t-51.5 76t-18.5 93.5q0 49 18.5 92.5t51.5 75.5t76 50.5t92 18.5zM285 499q-38 0 -71.5 -15t-56.5 -39q-28 -25 -41.5 -58t-13.5 -71
q0 -41 13.5 -74t41.5 -57q23 -27 56.5 -41t71.5 -14q36 0 70 14t59 41q25 24 39.5 57t17.5 74q-3 38 -17.5 71t-39.5 58q-25 24 -59 39t-70 15zM336 230q8 9 20 9q10 0 18 -6q9 -8 9 -21q0 -10 -7 -18q-16 -19 -39 -29.5t-50 -10.5q-25 0 -46 9t-38 26q-16 17 -25.5 38
t-9.5 46v77q0 25 9.5 46.5t25.5 37.5t37 25.5t46 9.5h1q20 0 34.5 -4.5t25.5 -11t18 -13.5l11 -11q7 -8 7 -18q0 -5 -2 -10.5t-7 -9.5q-7 -7 -18 -7q-5 0 -10.5 2.5t-9.5 6.5q-2 3 -6 7t-9.5 7.5t-13.5 5.5t-20 2q-13 0 -25 -5t-21 -14t-14.5 -21t-5.5 -25v-77
q0 -14 5.5 -25.5t14.5 -20.5t21.5 -14t25.5 -5t26 5t22 17z" />
    <glyph glyph-name="Ccaron" unicode="&#x10c;" horiz-adv-x="442" 
d="M371 105q9 10 23 10q13 0 20 -9t7 -21q0 -9 -7 -16q-29 -32 -66.5 -50.5t-81.5 -18.5q-41 0 -77.5 15.5t-63.5 42.5t-43 63.5t-16 77.5v326q0 41 16 77.5t43 63.5t63.5 43t77.5 16q54 0 87 -18.5t62 -50.5q7 -7 7 -17q0 -11 -7.5 -20t-20.5 -9q-8 0 -14.5 4.5t-13.5 10.5
q-1 1 -2.5 2t-2.5 2q-15 13 -36 25.5t-59 12.5q-27 0 -53 -10t-46 -29t-32 -45t-12 -58v-326q0 -25 10 -50t28.5 -45.5t45 -33t59.5 -12.5q35 0 63.5 15.5t42.5 32.5zM283 820q-8 -9 -18 -9q-11 0 -18 9l-72 65q-5 2 -6 7.5t-1 11.5q0 10 7 16.5t18 6.5t17 -6l55 -48l55 48
q6 6 17 6t18 -6.5t7 -16.5q0 -6 -1 -11.5t-6 -7.5z" />
    <glyph glyph-name="ccaron" unicode="&#x10d;" horiz-adv-x="429" 
d="M359 108q7 9 21 9t21.5 -9t7.5 -20q0 -10 -9 -18q-29 -34 -66 -52t-85 -18q-41 0 -78 16t-64.5 43.5t-43.5 64t-16 78.5v144q0 43 16 80t43 64.5t63.5 43.5t77.5 16q33 0 59 -8t44.5 -19t31 -23t19.5 -20q8 -7 8 -18t-8 -20t-21 -9q-8 0 -14 5t-13 11q-7 7 -16 14.5
t-21 13.5t-28.5 10t-38.5 4q-29 0 -55 -11.5t-46 -31t-32 -46t-12 -56.5v-144q0 -31 11.5 -57t32 -45t47 -30t56.5 -11q29 0 58.5 11.5t49.5 37.5zM265 636q-8 -9 -18 -9q-11 0 -18 9l-72 65q-5 2 -6 7.5t-1 11.5q0 10 7 16.5t18 6.5t17 -6l55 -48l55 48q6 6 17 6t18 -6.5
t7 -16.5q0 -6 -1 -11.5t-6 -7.5z" />
    <glyph glyph-name="Emacron" unicode="&#x112;" horiz-adv-x="485" 
d="M170 809q-12 0 -21 7.5t-9 18.5q0 9 9 16.5t21 7.5h198q11 0 19.5 -7.5t8.5 -16.5q0 -11 -8.5 -18.5t-19.5 -7.5h-198zM160 0q-30 0 -48.5 6t-28.5 17t-13.5 25.5t-3.5 32.5v562q0 18 3.5 32.5t13.5 25.5t28.5 17t48.5 6h277q13 0 20.5 -8.5t7.5 -20.5q0 -26 -28 -26
h-313v-246h228q12 0 20.5 -9t8.5 -20q0 -12 -8.5 -20.5t-20.5 -8.5h-228v-311h313q28 0 28 -25q0 -12 -7.5 -20.5t-20.5 -8.5h-277z" />
    <glyph glyph-name="emacron" unicode="&#x113;" horiz-adv-x="476" 
d="M153 674q-14 0 -22 8t-8 19t8 18t22 7h200q14 0 22 -7t8 -18t-8 -19t-22 -8h-200zM107 306h289q0 39 -10 72.5t-28.5 59t-45 40t-59.5 14.5q-31 0 -58 -11.5t-46.5 -31t-30.5 -46t-11 -57.5v-40zM361 109q7 9 20 9q14 0 22 -9t8 -21q0 -10 -5 -15q-69 -72 -153 -72
q-42 0 -79.5 15.5t-65.5 43t-44.5 64.5t-16.5 79v143q0 42 16.5 79.5t44.5 65.5t65.5 44t79.5 16t79 -17t64.5 -47t43.5 -70.5t16 -87.5q0 -39 -22.5 -60t-62.5 -21h-264v-45q0 -28 11.5 -54t31.5 -45.5t46.5 -31.5t56.5 -12q43 0 70 16t38 33z" />
    <glyph glyph-name="Gcommaaccent" unicode="&#x122;" 
d="M459 654q7 -8 7 -20q0 -11 -7 -19.5t-21 -8.5q-7 0 -13.5 4t-14.5 11q-9 7 -21 15.5t-28.5 15t-38.5 11t-52 4.5q-28 0 -54.5 -9t-46.5 -25.5t-32.5 -39.5t-12.5 -52v-357q0 -14 8.5 -35.5t26 -41.5t44.5 -34.5t64 -14.5q32 0 68 3.5t74 10.5v292h-142q-14 0 -21.5 8.5
t-7.5 20.5q0 11 7.5 20t21.5 9h171q13 0 20.5 -9t7.5 -20v-304q0 -30 -19.5 -48t-48.5 -27t-61.5 -11.5t-57.5 -2.5h-12q-44 0 -80.5 16.5t-63.5 43t-42 59t-15 65.5v357q0 41 16.5 75t44 58t64 37t76.5 13q42 0 73.5 -6t54 -15.5t38 -22.5t26.5 -26zM296 820q-8 -9 -18 -9
q-11 0 -18 9l-72 65q-5 2 -6 7.5t-1 11.5q0 10 7 16.5t18 6.5t17 -6l55 -48l55 48q6 6 17 6t18 -6.5t7 -16.5q0 -6 -1 -11.5t-6 -7.5z" />
    <glyph glyph-name="gcommaaccent" unicode="&#x123;" horiz-adv-x="520" 
d="M395 480q-33 8 -68.5 11.5t-63.5 3.5h-12q-29 0 -55 -9t-46 -25.5t-32 -40.5t-12 -53v-179q0 -31 12 -55t32 -40.5t46 -25t55 -8.5h10q29 0 65.5 4t68.5 12v405zM454 19q0 -39 -9 -75.5t-32 -65t-62 -45.5t-100 -17q-28 0 -57 9t-53 22.5t-39 29.5t-15 31q0 12 8.5 21
t21.5 9q6 0 13 -5t16 -13q17 -15 40.5 -30.5t64.5 -15.5q39 0 65.5 7t43.5 22t25 37.5t10 52.5l2 29q-53 -17 -85.5 -19.5t-53.5 -2.5h-7q-40 0 -77 13.5t-65 38.5t-45 59.5t-17 76.5v179q0 43 17 77.5t45 59t65 37.5t77 13q25 0 60 -2t66.5 -10.5t54 -26t22.5 -49.5v-447z
M293 636q-8 -9 -18 -9q-11 0 -18 9l-72 65q-5 2 -6 7.5t-1 11.5q0 10 7 16.5t18 6.5t17 -6l55 -48l55 48q6 6 17 6t18 -6.5t7 -16.5q0 -6 -1 -11.5t-6 -7.5z" />
    <glyph glyph-name="Kcommaaccent" unicode="&#x136;" horiz-adv-x="515" 
d="M125 29q0 -14 -7.5 -22t-21.5 -8q-12 0 -21 8t-9 22v666q0 12 9 20t21 8q14 0 21.5 -8t7.5 -20v-277h123l165 286q5 11 11.5 15.5t13.5 4.5q12 0 21 -8.5t9 -20.5q0 -5 -5 -17v1l-150 -263q34 -9 62.5 -25t49 -39t31.5 -52.5t11 -63.5v-207q0 -14 -8 -21.5t-21 -7.5
q-12 0 -20 7.5t-8 21.5v206q0 29 -12 52t-32 39.5t-45.5 25.5t-52.5 9h-143v-332zM243 -71q6 21 27 21q14 0 23 -10t6 -24l-26 -89q-2 -8 -9.5 -14t-17.5 -6q-16 0 -24 11t-4 25z" />
    <glyph glyph-name="kcommaaccent" unicode="&#x137;" horiz-adv-x="519" 
d="M124 30q0 -14 -8.5 -22t-19.5 -8q-14 0 -22 8t-8 22v493q0 12 8 21t22 9q11 0 19.5 -9t8.5 -21v-219h129l166 235q8 14 25 14q14 0 21 -10t7 -20q0 -11 -5 -16l-143 -207q33 -5 60.5 -22t47 -41.5t30 -55.5t10.5 -64v-87q0 -14 -7.5 -22t-21.5 -8q-13 0 -21 8t-8 22v87
q0 29 -12 53t-31.5 41t-45.5 26t-54 9h-147v-216zM243 -71q6 21 27 21q14 0 23 -10t6 -24l-26 -89q-2 -8 -9.5 -14t-17.5 -6q-16 0 -24 11t-4 25z" />
    <glyph glyph-name="Lcommaaccent" unicode="&#x13b;" horiz-adv-x="465" 
d="M437 58q13 0 20.5 -8.5t7.5 -19.5q0 -14 -7.5 -22t-20.5 -8h-277q-33 0 -51.5 6.5t-28 17.5t-12 26.5t-2.5 33.5v612q0 12 9 20.5t20 8.5q12 0 20 -8.5t8 -20.5v-612q0 -14 6 -20t31 -6h277zM243 -69q6 21 27 21q14 0 23 -10t6 -24l-26 -89q-2 -8 -9.5 -14t-17.5 -6
q-16 0 -24 11t-4 25z" />
    <glyph glyph-name="lcommaaccent" unicode="&#x13c;" horiz-adv-x="211" 
d="M162 60q11 0 20 -8.5t9 -21.5q0 -11 -9 -20t-20 -9q-28 0 -46.5 8.5t-29.5 22t-15.5 30t-4.5 33.5v615q0 11 9 19.5t20 8.5q12 0 21 -8.5t9 -19.5v-607q0 -43 37 -43zM113 -71q6 21 27 21q14 0 23 -10t6 -24l-26 -89q-2 -8 -9.5 -14t-17.5 -6q-16 0 -24 11t-4 25z" />
    <glyph glyph-name="Ncommaaccent" unicode="&#x145;" horiz-adv-x="511" 
d="M66 693q0 11 9 20t20 9q18 0 29 -26l283 -551v548q0 11 8.5 20t20.5 9q11 0 19.5 -9t8.5 -20v-666q0 -19 -8 -24t-12 -5q-20 0 -27 6t-9 11l-285 553v-541q0 -14 -8 -21.5t-20 -7.5q-11 0 -20 7.5t-9 21.5v666zM243 -70q6 21 27 21q14 0 23 -10t6 -24l-26 -89
q-2 -8 -9.5 -14t-17.5 -6q-16 0 -24 11t-4 25z" />
    <glyph glyph-name="ncommaaccent" unicode="&#x146;" horiz-adv-x="539" 
d="M125 28q0 -12 -7.5 -20.5t-21.5 -8.5t-22 8.5t-8 20.5v434q0 33 22.5 51.5t54 27.5t66.5 10.5t61 1.5q41 0 78 -14t64.5 -38.5t44 -59t16.5 -75.5v-336q0 -13 -8 -21.5t-22 -8.5q-11 0 -20 8.5t-9 21.5v336q0 33 -14 57t-37 40t-51.5 24t-58.5 8q-15 0 -33 -1.5t-36 -4
t-34 -5.5t-25 -5v-451zM243 -69q6 21 27 21q14 0 23 -10t6 -24l-26 -89q-2 -8 -9.5 -14t-17.5 -6q-16 0 -24 11t-4 25z" />
    <glyph glyph-name="Umacron" unicode="&#x16a;" 
d="M168 821q-11 0 -20 7t-9 18q0 10 9 17.5t20 7.5h197q13 0 21 -7.5t8 -17.5q0 -11 -8 -18t-21 -7h-197zM124 204q0 -30 11.5 -56.5t31.5 -46t45.5 -30.5t54.5 -11q28 0 54 11.5t45.5 31t31 45t11.5 54.5v495q0 12 8.5 20.5t20.5 8.5q13 0 20.5 -8.5t7.5 -20.5v-495
q0 -41 -15.5 -77.5t-42.5 -63.5t-63.5 -43t-77.5 -16t-77.5 15.5t-64 42t-43.5 62t-16 75.5v500q0 12 9 20.5t21 8.5t20 -8.5t8 -20.5v-493z" />
    <glyph glyph-name="umacron" unicode="&#x16b;" horiz-adv-x="538" 
d="M173 673q-13 0 -21.5 8t-8.5 19t8.5 18t21.5 7h201q11 0 20 -7t9 -18t-9 -19t-20 -8h-201zM413 526q0 12 8 20t21 8q14 0 22 -8t8 -20v-435q0 -35 -22.5 -53.5t-54 -26.5t-67 -9.5t-60.5 -1.5q-41 0 -77.5 13.5t-64.5 38.5t-44 59.5t-16 76.5v335q0 13 7.5 21.5t21.5 8.5
q11 0 19.5 -8.5t8.5 -21.5v-335q0 -34 14.5 -58.5t37.5 -40t52 -23t59 -7.5q28 0 59 3.5t51 7.5q2 0 8.5 0.5t8.5 0.5v455z" />
    <glyph glyph-name="Zcaron" unicode="&#x17d;" horiz-adv-x="451" 
d="M61 667q-13 0 -21 8t-8 21q0 12 8 20.5t21 8.5h276q42 0 68 -23.5t26 -65.5q0 -16 -6 -31t-15 -28l-309 -460l-3 -7.5t-3 -4.5q-2 -4 -4 -7.5t-2 -10.5q0 -29 36 -29h277q12 0 20.5 -8t8.5 -21q0 -14 -8.5 -21.5t-20.5 -7.5h-290q-28 0 -60 23t-32 63q0 17 6 33.5
t14 29.5v-1q38 57 76.5 114t77.5 115q38 58 76.5 115.5t77.5 115.5v-1q11 12 11 28q0 32 -35 32h-263zM242 820q-8 -9 -18 -9q-11 0 -18 9l-72 65q-5 2 -6 7.5t-1 11.5q0 10 7 16.5t18 6.5t17 -6l55 -48l55 48q6 6 17 6t18 -6.5t7 -16.5q0 -6 -1 -11.5t-6 -7.5z" />
    <glyph glyph-name="zcaron" unicode="&#x17e;" horiz-adv-x="448" 
d="M49 494q-11 0 -20 8.5t-9 20.5t9 21t20 9h282q24 0 42 -8t30.5 -21t18.5 -29.5t6 -33.5q0 -16 -8 -34t-19 -32l-312 -280q-10 -10 -10 -22q0 -34 38 -34h281q12 0 21 -8.5t9 -21.5q0 -12 -9 -20.5t-21 -8.5h-281q-42 0 -69.5 26.5t-27.5 65.5q0 16 8.5 34t19.5 32
l313 281q8 8 8 21q0 34 -38 34h-282zM237 636q-8 -9 -18 -9q-11 0 -18 9l-72 65q-5 2 -6 7.5t-1 11.5q0 10 7 16.5t18 6.5t17 -6l55 -48l55 48q6 6 17 6t18 -6.5t7 -16.5q0 -6 -1 -11.5t-6 -7.5z" />
    <glyph glyph-name="exclam" unicode="!" horiz-adv-x="214" 
d="M136 216q0 -13 -7.5 -21.5t-21.5 -8.5t-22 8.5t-8 21.5v478q0 13 8 21.5t22 8.5t21.5 -8.5t7.5 -21.5v-478zM66 42q0 -17 12 -29t29 -12t29 12t12 29t-12 29t-29 12t-29 -12t-12 -29z" />
    <glyph glyph-name="semicolon.001" horiz-adv-x="264" 
d="M124 62q6 23 29 23q15 0 25.5 -11.5t6.5 -26.5l-57 -201q-2 -9 -10.5 -15.5t-19.5 -6.5q-17 0 -26 12.5t-4 27.5zM116 457q0 17 12.5 29t29.5 12t28.5 -12t11.5 -29t-11.5 -29t-28.5 -12t-29.5 12t-12.5 29z" />
    <glyph glyph-name="greater" unicode="&#x3e;" horiz-adv-x="353" 
d="M353 276q-2 -16 -14 -24l-270 -215q-6 -6 -19 -6q-11 0 -20.5 8.5t-9.5 19.5q0 13 12 25l249 198l-249 197q-12 7 -12 24q0 14 9.5 21t20.5 7q13 0 19 -6l274 -218l-2 1q5 -5 8.5 -11.5t3.5 -13.5v-7z" />
    <glyph glyph-name="bar" unicode="|" horiz-adv-x="190" 
d="M66 757q0 14 8.5 21.5t20.5 7.5q29 0 29 -29v-843q0 -12 -7.5 -20.5t-21.5 -8.5q-12 0 -20.5 8.5t-8.5 20.5v843z" />
    <glyph glyph-name="macron" unicode="&#xaf;" horiz-adv-x="301" 
d="M49 676q-11 0 -20 7t-9 17q0 9 9 15t20 6h201q13 0 22 -6t9 -15q0 -10 -9 -17t-22 -7h-201z" />
    <glyph glyph-name="macron.cap" horiz-adv-x="300" 
d="M50 818q-13 0 -21.5 8.5t-8.5 22.5q0 11 8.5 20t21.5 9h201q12 0 20.5 -9t8.5 -20q0 -14 -8.5 -22.5t-20.5 -8.5h-201z" />
    <glyph glyph-name="I.001" horiz-adv-x="190" 
d="M66 696q0 12 8.5 20.5t19.5 8.5q14 0 22 -8.5t8 -20.5v-666q0 -14 -8 -21.5t-22 -7.5q-11 0 -19.5 7.5t-8.5 21.5v666z" />
    <glyph glyph-name="dotlessi.002" horiz-adv-x="190" 
d="M66 522q0 11 8.5 20t20.5 9q14 0 21.5 -9t7.5 -20v-493q0 -12 -7.5 -20.5t-21.5 -8.5q-12 0 -20.5 8.5t-8.5 20.5v493z" />
    <glyph glyph-name="imacron.001" unicode="&#x12b;" horiz-adv-x="271" 
d="M105 523q0 11 9 20t20 9q13 0 21.5 -9t8.5 -20v-493q0 -11 -8.5 -20t-21.5 -9q-11 0 -20 9t-9 20v493zM47 674q-11 0 -19 8t-8 19t8 18t19 7h180q11 0 17.5 -7t6.5 -18t-6.5 -19t-17.5 -8h-180z" />
    <glyph glyph-name="Imcaron" unicode="&#x12a;" horiz-adv-x="249" 
d="M45 807q-11 0 -18 8t-7 19q0 9 7 17t18 8h177q11 0 19 -8t8 -17q0 -11 -8 -19t-19 -8h-177zM102 696q0 12 8.5 20.5t20.5 8.5q11 0 19.5 -8.5t8.5 -20.5v-666q0 -14 -8.5 -21.5t-19.5 -7.5q-12 0 -20.5 7.5t-8.5 21.5v666z" />
    <glyph glyph-name="nine" unicode="9" horiz-adv-x="509" 
d="M126 434q0 -29 11 -56t30.5 -47t46 -32t56.5 -12q24 0 48 7t43.5 20t31.5 32t12 42v137q0 33 -8 61.5t-25.5 49.5t-43.5 33t-62 12q-30 0 -55.5 -11.5t-44.5 -32t-29.5 -48t-10.5 -58.5v-97zM66 531q0 43 15 81t42.5 66.5t65 45.5t82.5 17q46 0 81.5 -17.5t60 -47.5
t37 -69t12.5 -82v-338q0 -41 -16.5 -75.5t-44.5 -59.5t-64.5 -38.5t-76.5 -13.5q-65 0 -117.5 37.5t-74.5 100.5q-5 12 2 22t17.5 14t21.5 0.5t16 -18.5l-1 1q16 -48 52 -72.5t84 -24.5q27 0 52.5 8.5t46 25t33 40t12.5 54.5v90l-26 -18q-32 -15 -55.5 -24t-52.5 -9
q-42 0 -79 16.5t-65 44.5t-44 65t-16 78v100z" />
    <glyph glyph-name="eight" unicode="8" horiz-adv-x="503" 
d="M251 0q-48 0 -85.5 16t-64 44t-40.5 66.5t-14 83.5q0 63 28 113.5t82 77.5q-20 7 -36 24t-27 38t-16.5 44t-5.5 41q0 39 13.5 72t37 57t56.5 38t72 14h1q39 0 72 -14t56.5 -38t37 -57t13.5 -72q0 -18 -5.5 -41t-16.5 -44t-27 -38t-36 -24q54 -27 82 -77.5t28 -113.5
q0 -45 -14 -83.5t-40.5 -66.5t-64 -44t-85.5 -16h-1zM397 218q0 63 -37.5 104.5t-107.5 41.5h-1q-70 0 -107.5 -41.5t-37.5 -104.5q0 -34 9 -64.5t27 -53t45.5 -35.5t63.5 -11h1q36 -2 63.5 11t45.5 35.5t27 53t9 64.5zM372 548q0 25 -8.5 48t-24.5 40.5t-38 28t-49 10.5h-1
q-27 0 -49 -10.5t-38 -28t-24.5 -40.5t-8.5 -48q0 -55 33 -89t87 -34h1q54 0 87 34t33 89z" />
    <glyph glyph-name="seven" unicode="7" horiz-adv-x="448" 
d="M50 667q-13 0 -21.5 7t-8.5 21q0 11 8.5 20t21.5 9h348q11 0 20.5 -6.5t9.5 -16.5q0 -8 -1.5 -14t-3.5 -11v1l-337 -660q-9 -16 -28 -16q-16 0 -24.5 8.5t-8.5 16.5q0 4 2 14l-1 -2l321 629h-297z" />
    <glyph glyph-name="six" unicode="6" horiz-adv-x="489" 
d="M382 307q0 28 -11 54.5t-30.5 47t-45.5 32.5t-56 12q-22 0 -46 -7t-44.5 -19.5t-33.5 -31.5t-13 -43v-136q0 -33 8.5 -61.5t26 -49.5t44 -33t61.5 -12q30 0 56 11.5t44.5 32t29 47.5t10.5 59v97zM442 210q0 -44 -15 -82t-42 -66.5t-64.5 -45t-83.5 -16.5
q-45 0 -80.5 17.5t-60 47t-37 68.5t-12.5 83v329q0 42 16.5 75t44.5 56t64.5 35.5t76.5 12.5q31 0 61 -9t55 -25.5t44.5 -41t31.5 -55.5v-2q1 -4 1 -8q0 -11 -8 -20t-21 -9q-21 0 -30 22l2 -1q-14 47 -51 72t-85 25q-27 0 -53 -8.5t-46.5 -25t-33 -40.5t-12.5 -54v-88
q10 15 27.5 25t37 16t38.5 8.5t32 2.5q42 0 79 -16t64.5 -43t43.5 -63.5t16 -76.5v-99z" />
    <glyph glyph-name="five" unicode="5" horiz-adv-x="520" 
d="M415 307q-2 31 -14 58t-31.5 46.5t-45 30.5t-55.5 11q-28 0 -52.5 -11t-44 -29t-32.5 -41t-19 -47v1q-6 -17 -26 -17q-19 0 -24 10.5t-5 18.5v358q0 13 8.5 20.5t20.5 7.5h292q14 0 23 -8.5t9 -19.5q0 -14 -9 -22.5t-23 -8.5h-263v-223q10 17 27 29.5t37 20.5t41.5 11.5
t39.5 3.5q45 0 82.5 -16t64.5 -43t42 -63t15 -77v-103q0 -42 -16.5 -79.5t-44 -65.5t-65 -44t-79.5 -16q-81 0 -131 37t-74 97l1 -2q-2 10 -2 11q0 13 7.5 21.5t21.5 8.5q9 0 17 -5.5t12 -13.5v1q18 -49 59 -72.5t89 -23.5q30 0 56.5 12t46.5 32t32 46.5t12 55.5v102z" />
    <glyph glyph-name="four" unicode="4" horiz-adv-x="522" 
d="M397 330q-31 -14 -71 -17.5t-75 -3.5q-38 0 -74.5 12.5t-65 36.5t-46.5 58.5t-18 78.5v203q0 12 9 20.5t20 8.5q14 0 21.5 -8.5t7.5 -20.5v-201q0 -30 12.5 -54t33 -40.5t47 -25t53.5 -8.5q38 0 77.5 3t68.5 17v312q0 14 8.5 21.5t20.5 7.5q14 0 22 -7.5t8 -21.5v-672
q0 -12 -8 -20.5t-22 -8.5q-12 0 -20.5 8.5t-8.5 20.5v301z" />
    <glyph glyph-name="three" unicode="3" horiz-adv-x="504" 
d="M117 585q-8 -21 -28 -21q-16 0 -23 7.5t-7 18.5q0 29 17.5 56.5t45 48.5t62 33.5t69.5 12.5q39 0 75.5 -13t64.5 -37.5t45 -58.5t17 -76q0 -18 -3.5 -40t-13 -43.5t-27 -40.5t-44.5 -32q27 -15 44.5 -37.5t27.5 -48t14 -51.5t4 -47q0 -44 -13.5 -83.5t-40 -69t-64 -46.5
t-85.5 -17q-43 0 -81 15.5t-66 43.5t-44 66.5t-16 83.5q0 14 9 23t21 9q14 0 22 -8t8 -21q0 -71 40.5 -111.5t105.5 -40.5q37 0 64 11.5t45 32.5t27 49.5t9 62.5q0 70 -38.5 112t-102.5 42h-4q-14 1 -22 10t-8 20q0 14 8 22.5t22 8.5q27 0 52.5 8t45.5 24t32.5 38.5
t12.5 52.5t-12.5 53.5t-32.5 40t-45.5 25t-52.5 8.5q-51 0 -85 -27t-51 -70v1z" />
    <glyph glyph-name="two" unicode="2" horiz-adv-x="502" 
d="M425 62q13 0 21.5 -8.5t8.5 -22.5q0 -11 -8.5 -20t-21.5 -9h-282q-24 0 -42 8t-30 20.5t-17.5 28.5t-5.5 32q0 20 7.5 37.5t22 35.5t36 38.5t50.5 47.5q5 5 10 9t10 9q36 34 73.5 69.5t68 69.5t50 64.5t19.5 53.5q0 36 -10.5 65t-29.5 49.5t-45 32t-56 11.5
q-64 0 -97.5 -26.5t-50.5 -72.5v1q-6 -16 -17.5 -20t-22 1t-16 16.5t-0.5 25.5q25 65 79 99t122 34q42 0 79 -15.5t65 -43.5t44 -68t16 -89q0 -33 -22 -70.5t-55.5 -76.5t-74.5 -78t-79 -75q-33 -30 -63 -58t-46 -49q-6 -7 -7.5 -13t-1.5 -11q0 -32 37 -32h282z" />
    <glyph glyph-name="one" unicode="1" horiz-adv-x="234" 
d="M168 29q0 -12 -9 -20.5t-20 -8.5q-13 0 -21.5 8.5t-8.5 20.5l1 598l-16 -25q-2 -5 -5 -9.5t-5 -8.5l1 1q-9 -19 -22.5 -22.5t-25 2.5t-16 18t4.5 25l90 120q9 11 23 11q11 0 20 -8.5t9 -19.5v-682z" />
    <glyph glyph-name="zero" unicode="0" horiz-adv-x="519" 
d="M66 534q0 42 15 79.5t42 65t64.5 43.5t82.5 16q42 0 78.5 -16t64 -44t43.5 -65t16 -80v-328q0 -42 -16 -79t-43.5 -64.5t-64 -43.5t-78.5 -16t-79 15.5t-64.5 42.5t-44 62.5t-16.5 75.5v336zM124 202q0 -28 12 -53.5t32.5 -45t46.5 -31t54 -11.5t54 11.5t46.5 31
t32.5 45.5t12 54v331q0 31 -11 58.5t-30.5 47t-46 31t-57.5 11.5t-57.5 -12t-46 -32t-30.5 -47t-11 -57v-332z" />
    <glyph glyph-name="slash" unicode="/" horiz-adv-x="444" 
d="M77 17v1q-6 -14 -18 -16t-22 3.5t-15 16.5t2 23l343 681v-1q6 13 18 15.5t22 -3t15 -16t-2 -23.5z" />
    <glyph glyph-name="period" unicode="." horiz-adv-x="214" 
d="M66 43q0 17 12 29t29 12t29 -12t12 -29t-12 -29t-29 -12t-29 12t-12 29z" />
    <glyph glyph-name="hyphen" unicode="-" horiz-adv-x="542" 
d="M96 258q-14 0 -22 7.5t-8 17.5q0 11 8 18.5t22 7.5h349q13 0 22 -7.5t9 -18.5q0 -10 -9 -17.5t-22 -7.5h-349z" />
    <glyph glyph-name="comma" unicode="," horiz-adv-x="252" 
d="M124 62q6 23 29 23q15 0 25.5 -11.5t6.5 -26.5l-57 -201q-2 -9 -10.5 -15.5t-19.5 -6.5q-17 0 -26 12.5t-4 27.5z" />
    <glyph glyph-name="plus" unicode="+" horiz-adv-x="542" 
d="M300 130q0 -14 -8 -22.5t-22 -8.5q-11 0 -20 8.5t-9 22.5v144h-145q-14 0 -22 8.5t-8 20.5q0 14 8 21.5t22 7.5h145v146q0 14 9 21.5t20 7.5q14 0 22 -7.5t8 -21.5v-146h145q13 0 22 -7.5t9 -21.5q0 -12 -9 -20.5t-22 -8.5h-145v-144z" />
    <glyph glyph-name="asterisk" unicode="*" horiz-adv-x="223" 
d="M94 580q-8 -8 -14 -13.5t-12 -13.5q-4 -4 -9.5 -5.5t-7.5 -1.5q-6 0 -10.5 4t-4.5 13q0 6 6 12l28 28h-40q-10 0 -14 5.5t-4 12.5q0 5 4 10.5t14 5.5h40q-8 8 -16 15.5t-12 11.5q-6 6 -6 14q0 5 4.5 11.5t10.5 6.5l28 -21l15 -15v40q0 8 4 13t12 5q6 0 10.5 -5t4.5 -13
v-40l28 29q7 7 15 7q6 0 10.5 -6.5t4.5 -11.5q0 -7 -5 -14l-29 -27h41q8 0 13 -5.5t5 -10.5q0 -7 -5 -12.5t-13 -5.5h-41q7 -7 14 -13.5t15 -14.5q5 -7 5 -12q0 -9 -4.5 -13t-10.5 -4q-8 0 -14 5l-29 28v-38q0 -10 -4.5 -14.5t-10.5 -4.5q-16 0 -16 19v39z" />
    <glyph glyph-name="parenright" unicode=")" horiz-adv-x="301" 
d="M174 641q0 28 -12 52t-32.5 41t-46.5 26.5t-54 9.5q-11 0 -20 7.5t-9 21.5q0 12 8.5 21t21.5 9q39 0 76 -14t65.5 -39t46 -59t17.5 -74v-556q0 -44 -18 -77.5t-48 -59.5h1q-29 -24 -65 -37t-75 -13q-13 0 -21.5 9t-8.5 20q0 14 9 22t20 8q28 0 54 9.5t46.5 26t32.5 40
t12 52.5v554z" />
    <glyph glyph-name="parenleft" unicode="(" horiz-adv-x="300" 
d="M125 86q0 -29 12 -53t32 -41t46.5 -26t55.5 -9q11 0 20 -7.5t9 -21.5q0 -12 -9 -21t-20 -9q-39 0 -76 13.5t-66 37.5l1 -1q-29 26 -46.5 59.5t-17.5 78.5v556q0 42 18 76t47 60l-1 -1q29 24 66 37.5t75 13.5q11 0 20 -9t9 -21q0 -14 -9 -21.5t-20 -7.5q-29 0 -55.5 -9.5
t-46.5 -26.5t-32 -41t-12 -52v-554z" />
    <glyph glyph-name="quotesingle" unicode="'" horiz-adv-x="100" 
d="M20 695q0 14 9.5 22t20.5 8q13 0 21.5 -8t8.5 -22v-88q0 -12 -9.5 -20.5t-20.5 -8.5q-14 0 -22 8.5t-8 20.5v88z" />
    <glyph glyph-name="numbersign" unicode="#" horiz-adv-x="652" 
d="M101 357q-13 0 -22 8.5t-9 21.5q0 14 9 21.5t22 7.5h114l26 101q5 22 18 28t26 6q11 0 15.5 -9t-0.5 -18l-27 -108h170l27 101q5 23 17.5 29t25.5 6q11 0 15 -9t0 -18l-27 -109h101q14 0 22 -7.5t8 -21.5q0 -13 -8 -21.5t-22 -8.5h-118l-40 -153h108q13 0 21.5 -8
t8.5 -22q0 -11 -8.5 -20t-21.5 -9h-125l-29 -111q-5 -23 -16.5 -28.5t-26.5 -5.5q-9 0 -14 7.5t-1 18.5l31 119h-172l-28 -113q-6 -24 -17.5 -28.5t-26.5 -4.5q-10 0 -16 6t2 27l30 113h-92q-14 0 -22.5 9t-8.5 20q0 14 8.5 22t22.5 8h107l42 153h-99zM213 204h174l40 153
h-171z" />
    <glyph glyph-name="less" unicode="&#x3c;" horiz-adv-x="358" 
d="M35 255q-16 15 -14.5 29.5t16.5 23.5l-2 -1l274 218q6 6 19 6q12 0 21 -7t9 -21q0 -16 -10 -24l-250 -198l249 -196q8 -6 9.5 -13t1.5 -13q0 -11 -9 -19.5t-21 -8.5q-13 0 -19 6z" />
    <glyph glyph-name="asciicircum" unicode="^" horiz-adv-x="542" 
d="M245 723q9 11 27 11t26 -12l217 -272q9 -11 6 -22.5t-11.5 -19t-20 -7.5t-20.5 12l-198 248l-198 -248q-9 -12 -20.5 -12t-20.5 7.5t-11.5 19.5t7.5 22z" />
    <glyph glyph-name="Euro" unicode="&#x20ac;" horiz-adv-x="482" 
d="M99 254q-22 0 -37 7.5t-15 18.5q0 12 15 19t37 7v125q-26 0 -38.5 7.5t-12.5 18.5q0 10 11.5 17.5t39.5 9.5v51q0 42 16 78.5t44 64.5t64.5 44t78.5 16q50 0 87.5 -21t65.5 -48q2 -3 4.5 -8.5t2.5 -10.5q0 -11 -8.5 -20t-20.5 -9q-9 0 -17.5 5.5t-16.5 13.5
q-15 14 -36.5 26.5t-60.5 12.5q-28 0 -54 -10.5t-46.5 -29.5t-32.5 -45.5t-12 -58.5v-53h256q12 0 20.5 -7t8.5 -18t-8.5 -18.5t-20.5 -7.5h-256v-125h257q12 0 20.5 -7t8.5 -19q0 -11 -8.5 -18.5t-20.5 -7.5h-257v-52q0 -25 9.5 -50.5t28 -46t45.5 -33.5t62 -13q34 0 57 13
t40 27q10 8 18.5 13t15.5 5q14 0 21 -9t7 -22q0 -8 -7 -15q-29 -34 -68 -52.5t-84 -18.5q-42 0 -78.5 16t-64.5 43.5t-44 64t-16 78.5v52z" />
    <glyph glyph-name="quotedblbase" unicode="&#x201e;" horiz-adv-x="373" 
d="M105 62q6 23 29 23q15 0 25.5 -11.5t6.5 -26.5l-57 -201q-2 -9 -10.5 -15.5t-19.5 -6.5q-17 0 -26 12.5t-4 27.5zM264 62q6 23 29 23q15 0 25.5 -11.5t6.5 -26.5l-57 -201q-2 -9 -10.5 -15.5t-19.5 -6.5q-17 0 -26 12.5t-4 27.5z" />
    <glyph glyph-name="ellipsis" unicode="&#x2026;" horiz-adv-x="633" 
d="M66 43q0 17 12.5 29t29.5 12t28.5 -12t11.5 -29t-11.5 -29t-28.5 -12t-29.5 12t-12.5 29zM274 43q0 17 12.5 29t29.5 12t28.5 -12t11.5 -29t-11.5 -29t-28.5 -12t-29.5 12t-12.5 29zM485 43q0 17 12.5 29t29.5 12t28.5 -12t11.5 -29t-11.5 -29t-28.5 -12t-29.5 12
t-12.5 29z" />
    <glyph glyph-name="quoteleft" unicode="&#x2018;" horiz-adv-x="220" 
d="M114 792q6 23 29 23q15 0 25.5 -11.5t6.5 -26.5l-57 -201q-2 -9 -10.5 -15.5t-19.5 -6.5q-17 0 -26 12.5t-4 27.5z" />
    <glyph glyph-name="quoteright" unicode="&#x2019;" horiz-adv-x="118" 
d="M26 769q0 15 10 24t23 9q14 0 23.5 -9t9.5 -24v-96q0 -14 -11 -23t-22 -9q-15 0 -24 9t-9 23v96z" />
    <glyph glyph-name="registered" unicode="&#xae;" horiz-adv-x="569" 
d="M285 551q50 0 93 -18.5t75 -50.5t50.5 -75.5t18.5 -92.5q0 -50 -18.5 -93.5t-50.5 -76t-75 -50.5t-93 -18q-49 0 -92 18t-76 50.5t-51.5 76t-18.5 93.5q0 49 18.5 92.5t51.5 75.5t76 50.5t92 18.5zM285 499q-38 0 -71.5 -15t-56.5 -39q-28 -25 -41.5 -58t-13.5 -71
q0 -41 13.5 -74t41.5 -57q23 -27 56.5 -41t71.5 -14q36 0 70 14t59 41q25 24 39.5 57t17.5 74q-3 38 -17.5 71t-39.5 58q-25 24 -59 39t-70 15zM289 293q11 0 20.5 3.5t17 9.5t12.5 15t5 20v25q0 13 -5.5 22t-13.5 14.5t-19.5 8.5t-21.5 3q-6 0 -13.5 -0.5l-15 -1t-12.5 -2
t-9 -2.5v-115h55zM234 247v-51q0 -9 -6.5 -15t-16.5 -6q-9 0 -15.5 6t-6.5 15v212q0 18 10 28.5t25.5 15t33.5 6t31 1.5q20 0 37.5 -6.5t31.5 -19t22 -29.5t8 -38v-25q0 -23 -8.5 -40t-24.5 -30q16 -12 25 -30.5t9 -40.5v-4q0 -9 -6.5 -15t-15.5 -6q-11 0 -17 6t-6 15v4
q0 12 -5 21t-12.5 14.5t-17 8.5t-20.5 3h-55z" />
    <glyph glyph-name="degree" unicode="&#xb0;" horiz-adv-x="255" 
d="M128 742q22 0 41.5 -8.5t34 -23.5t23 -34.5t8.5 -41.5t-8.5 -41.5t-23 -34.5t-34 -23.5t-41.5 -8.5t-41.5 8.5t-34.5 23.5t-23.5 34.5t-8.5 41.5t8.5 41.5t23.5 34.5t34.5 23.5t41.5 8.5zM128 709q-15 0 -28.5 -6t-24 -16.5t-16.5 -24t-6 -28.5q0 -33 22 -54t54 -21
q14 0 27.5 6t23.5 16.5t16 24t6 28.5t-6 28.5t-16.5 24t-24 16.5t-27.5 6z" />
    <glyph glyph-name="plusminus" unicode="&#xb1;" horiz-adv-x="543" 
d="M97 24q-13 0 -21.5 7t-8.5 18t8.5 18t21.5 7h350q13 0 21.5 -7t8.5 -18t-8.5 -18t-21.5 -7h-350zM301 174q0 -12 -8.5 -21t-21.5 -9q-12 0 -20.5 9t-8.5 21v144h-146q-13 0 -21.5 9t-8.5 21q0 13 8.5 21.5t21.5 8.5h146v146q0 11 8.5 20t20.5 9q13 0 21.5 -9t8.5 -20
v-146h145q13 0 21.5 -8.5t8.5 -21.5q0 -12 -8.5 -21t-21.5 -9h-145v-144z" />
    <glyph glyph-name="quotesinglbase" unicode="&#x201a;" horiz-adv-x="252" 
d="M124 62q6 23 29 23q15 0 25.5 -11.5t6.5 -26.5l-57 -201q-2 -9 -10.5 -15.5t-19.5 -6.5q-17 0 -26 12.5t-4 27.5z" />
    <glyph glyph-name="oe" unicode="&#x153;" horiz-adv-x="824" 
d="M708 107q9 10 22 10t21.5 -9t8.5 -21q0 -10 -5 -15q-35 -36 -70.5 -54t-83.5 -18q-24 0 -50.5 5t-50.5 16.5t-43.5 30t-28.5 45.5q-9 -27 -29.5 -45.5t-46 -30t-52.5 -16.5t-49 -5q-42 0 -79 16t-65 44t-44 65.5t-16 79.5v139q0 43 16 80.5t44 65.5t65 44t79 16
q38 0 67.5 -10t51 -24.5t35.5 -31t21 -30.5q15 25 36 43t44.5 30t48 17.5t46.5 5.5q42 0 79 -17t64.5 -47t43.5 -70.5t16 -87.5q0 -39 -22.5 -60t-62.5 -21h-263v-50q0 -29 11.5 -55t31.5 -45.5t46 -31t56 -11.5q21 0 38.5 5.5t31 13.5t23 17.5t15.5 17.5zM106 205
q0 -30 11.5 -57t31 -48t46 -33.5t56.5 -12.5q55 0 84.5 20t43 45t15.5 48t2 30v165q0 28 -12.5 52t-33 41t-46.5 26.5t-53 9.5q-29 0 -55 -10.5t-46 -29.5t-32 -46.5t-12 -60.5v-139zM456 305h289q0 39 -10 72.5t-29 59t-45.5 40t-59.5 14.5q-31 0 -57.5 -11.5t-46 -31
t-30.5 -46t-11 -57.5v-40z" />
    <glyph glyph-name="cent" unicode="&#xa2;" horiz-adv-x="429" 
d="M221 605q0 13 9 21.5t21 8.5q13 0 21 -8.5t8 -21.5v-56q35 -7 59.5 -19t40 -24.5t22.5 -24.5t7 -19q0 -11 -7.5 -20t-21.5 -9q-8 0 -12.5 2.5t-12.5 9.5q-5 5 -13 12.5t-19 15.5q-5 3 -14 9t-29 8v-432q29 5 45.5 18t25.5 21q10 8 15.5 14t13.5 6q14 0 21.5 -9t7.5 -20
q0 -20 -16.5 -35t-38.5 -26t-43 -17.5t-31 -8.5v-47q0 -12 -8 -21t-21 -9q-12 0 -21 9t-9 21v46q-42 8 -74.5 28t-54.5 47t-33.5 60t-11.5 67v144q0 41 14 75.5t38 61t55.5 43.5t66.5 23v56zM148 449q-20 -20 -32 -46t-12 -57v-144q0 -24 8.5 -47.5t24 -43.5t37 -34.5
t47.5 -19.5v433q-20 -5 -39.5 -16t-33.5 -25z" />
    <glyph glyph-name="exclamdown" unicode="&#xa1;" horiz-adv-x="191" 
d="M67 522q0 11 8.5 20t20.5 9q14 0 21.5 -9t7.5 -20v-493q0 -12 -7.5 -20.5t-21.5 -8.5q-12 0 -20.5 8.5t-8.5 20.5v493zM58 690q0 15 11.5 26t26.5 11t25.5 -11t10.5 -26t-10.5 -26t-25.5 -11t-26.5 11t-11.5 26z" />
    <glyph glyph-name="sterling" unicode="&#xa3;" horiz-adv-x="477" 
d="M446 59q14 0 22.5 -8.5t8.5 -20.5q0 -14 -8.5 -22t-22.5 -8h-282q-33 0 -52 6.5t-28 17.5t-11.5 27t-2.5 34v376q-10 2 -16.5 10t-6.5 19t6.5 19t16.5 10v190q0 13 7.5 21t21.5 8q11 0 20 -8t9 -21v-189h300q11 0 20 -8.5t9 -21.5q0 -12 -9 -20.5t-20 -8.5h-300v-376
q0 -11 5.5 -18.5t30.5 -7.5h282z" />
    <glyph glyph-name="OE" unicode="&#x152;" horiz-adv-x="808" 
d="M759 724q14 0 21.5 -8.5t7.5 -20.5q0 -27 -29 -27h-311v-245h227q11 0 20 -9t9 -20q0 -14 -9 -21.5t-20 -7.5h-228v-308h312q14 0 21.5 -8t7.5 -21q0 -29 -29 -29h-276q-45 0 -65.5 13t-33.5 39q-26 -28 -64 -39.5t-73 -11.5q-41 0 -77.5 15.5t-63.5 42t-43 61t-16 73.5
v330q0 42 14.5 78.5t41 63.5t63 43t81.5 16q33 0 65.5 -12t71.5 -40q13 26 34 39.5t65 13.5h276zM104 197q0 -28 12 -53.5t31.5 -44.5t45 -30t53.5 -11t54 11.5t45.5 30.5t31.5 44.5t12 53.5v324q0 31 -11 57.5t-30.5 46t-45.5 30.5t-56 11t-56 -11.5t-45 -31.5t-30 -46.5
t-11 -55.5v-325z" />
    <glyph glyph-name="section" unicode="&#xa7;" horiz-adv-x="443" 
d="M20 576q0 40 18 70.5t46.5 51.5t64.5 31.5t73 10.5q62 0 114.5 -33t75.5 -89q1 -2 0.5 -4t-0.5 -4q0 -11 -7.5 -20t-21.5 -9q-10 0 -17 9t-15 21q-5 8 -10.5 16t-10.5 13q-23 23 -51.5 35.5t-59.5 12.5q-26 0 -51.5 -7t-46 -21.5t-33 -35.5t-10.5 -48q2 -23 33 -37.5
t79 -22.5q39 -6 80 -16.5t74.5 -27.5t55 -42.5t20.5 -61.5q0 -12 -3 -28t-10.5 -33.5t-21 -34.5t-35.5 -31q24 -8 38 -17t22 -19.5t10.5 -22t2.5 -25.5q0 -39 -18 -70.5t-46.5 -54t-64.5 -34.5t-72 -12q-31 0 -60 9.5t-54.5 27t-45 41t-30.5 52.5q-1 2 -0.5 3.5t0.5 3.5
q0 12 7 21t21 9q7 0 10 -3.5t7 -10.5q11 -18 27 -35.5t35 -31.5t40.5 -22.5t44.5 -8.5q25 0 50 10t45.5 26t33 37t12.5 43t-32.5 34t-79.5 20q-38 7 -79 17t-75 27.5t-56.5 44.5t-22.5 67q0 23 7.5 43t17.5 36t20.5 27.5t16.5 17.5q-25 18 -43.5 37t-18.5 48zM316 283
q48 34 48 84q0 18 -14.5 33.5t-36.5 27t-49 20t-52 13.5t-44.5 7t-27.5 1q-23 -13 -42 -39t-19 -63q0 -23 16.5 -41t43.5 -31.5t62 -21t73 -9.5q11 3 20.5 8t20.5 11h1z" />
    <glyph glyph-name="dagger" unicode="&#x2020;" horiz-adv-x="409" 
d="M30 278q-14 0 -22 7t-8 18t8 18t22 7h145v429q0 14 8.5 21.5t20.5 7.5q29 0 29 -29v-429h146q13 0 21.5 -7t8.5 -18t-8.5 -18t-21.5 -7h-146v-364q0 -12 -7.5 -20.5t-21.5 -8.5q-12 0 -20.5 8.5t-8.5 20.5v364h-145z" />
    <glyph glyph-name="ampersand" unicode="&#x26;" horiz-adv-x="570" 
d="M457 209q0 -45 -16 -83.5t-43.5 -66.5t-65 -43.5t-80.5 -15.5q-49 0 -87 17t-64.5 46.5t-40 69t-13.5 83.5q0 27 5 53t16.5 50t31 44.5t48.5 34.5q-29 12 -48 30.5t-30.5 40t-16 44t-4.5 43.5q0 44 18 78.5t48 58t68.5 36t79.5 12.5q16 0 33 -7.5t17 -27.5
q0 -10 -9.5 -17.5t-19.5 -10.5q-6 1 -14.5 2t-16.5 1q-27 0 -53 -8.5t-46.5 -25t-33 -40t-12.5 -53.5t11 -52t30 -37t42.5 -23.5t49.5 -10.5h156v43q0 14 9 21.5t22 7.5q29 0 29 -29v-43h84q12 0 20.5 -9t8.5 -23q0 -11 -8.5 -20t-20.5 -9h-84v-161zM235 370
q-13 -1 -24 -4.5t-23 -8.5q-34 -17 -58 -52.5t-24 -88.5q0 -34 9 -62.5t27.5 -49.5t46 -32.5t64.5 -11.5q65 0 104.5 40.5t39.5 111.5v158h-162z" />
    <glyph glyph-name="glyph146" horiz-adv-x="0" 
 />
    <glyph glyph-name="Aacute" unicode="&#xc1;" horiz-adv-x="440" 
d="M418 39q0 -3 0.5 -4.5t0.5 -3.5t1 -2q0 -11 -7.5 -19t-21.5 -8q-9 0 -17.5 6t-10.5 16l-55 220h-176l-55 -220q-3 -10 -11 -16t-17 -6q-14 0 -21.5 9t-7.5 20v5l173 669q8 21 29 21q8 0 15 -6.5t10 -16.5v1zM292 301l-72 301l-73 -301h145zM214 919q6 21 27 21
q14 0 23 -10t6 -24l-22 -89q-2 -8 -9.5 -14t-17.5 -6q-16 0 -24 11t-4 25z" />
    <glyph glyph-name="Agrave" unicode="&#xc0;" horiz-adv-x="440" 
d="M418 39q0 -3 0.5 -4.5t0.5 -3.5t1 -2q0 -11 -7.5 -19t-21.5 -8q-9 0 -17.5 6t-10.5 16l-55 220h-176l-55 -220q-3 -10 -11 -16t-17 -6q-14 0 -21.5 9t-7.5 20v5l173 669q8 21 29 21q8 0 15 -6.5t10 -16.5v1zM292 301l-72 301l-73 -301h145zM246 833q4 -14 -4 -25t-24 -11
q-10 0 -17.5 6t-9.5 14l-22 89q-3 14 6 24t23 10q21 0 27 -21z" />
    <glyph glyph-name="Cacute" unicode="&#x106;" horiz-adv-x="397" 
d="M327 106q7 9 22 9q13 0 20 -9t7 -21q0 -8 -8 -16q-29 -32 -66.5 -50.5t-81.5 -18.5q-41 0 -77.5 15.5t-63.5 42.5t-43 63.5t-16 77.5v326q0 41 16 77.5t43 63.5t63.5 43t77.5 16q50 0 86 -20t64 -49l-1 1q8 -11 8 -18q0 -11 -8.5 -20t-19.5 -9q-10 0 -18 5.5t-16 13.5
q-15 13 -36 25.5t-59 12.5q-28 0 -53.5 -10t-45 -29t-31.5 -45t-12 -58v-326q0 -25 9.5 -50t27.5 -45.5t44.5 -33t60.5 -12.5t62 15.5t44 31.5zM213 919q6 21 27 21q14 0 23 -10t6 -24l-22 -89q-2 -8 -9.5 -14t-17.5 -6q-16 0 -24 11t-4 25z" />
    <glyph glyph-name="Cdotaccent" unicode="&#x10a;" horiz-adv-x="443" 
d="M373 106q7 9 22 9q13 0 20 -9t7 -21q0 -8 -8 -16q-29 -32 -66.5 -50.5t-81.5 -18.5q-41 0 -77.5 15.5t-63.5 42.5t-43 63.5t-16 77.5v326q0 41 16 77.5t43 63.5t63.5 43t77.5 16q50 0 86 -20t64 -49l-1 1q8 -11 8 -18q0 -11 -8.5 -20t-19.5 -9q-10 0 -18 5.5t-16 13.5
q-15 13 -36 25.5t-59 12.5q-28 0 -53.5 -10t-45 -29t-31.5 -45t-12 -58v-326q0 -25 9.5 -50t27.5 -45.5t44.5 -33t60.5 -12.5t62 15.5t44 31.5zM224 864q0 17 12.5 29t29.5 12t28.5 -12t11.5 -29t-11.5 -29t-28.5 -12t-29.5 12t-12.5 29z" />
    <glyph glyph-name="AE" unicode="&#xc6;" horiz-adv-x="761" 
d="M712 724q11 0 20 -8.5t9 -20.5q0 -13 -9 -21t-20 -8h-313v-243h227q12 0 20.5 -9t8.5 -20q0 -14 -8.5 -21.5t-20.5 -7.5h-228v-283q0 -11 6.5 -18t29.5 -7h278q11 0 20 -8t9 -21q0 -14 -9 -21.5t-20 -7.5h-278q-32 0 -50.5 6.5t-28 17.5t-12 26t-2.5 33v168h-150
l-117 -233q-5 -7 -11.5 -11.5t-13.5 -4.5q-14 0 -21.5 9t-7.5 20q0 6 3 14l334 669v-1q7 12 45 12h310zM341 561l-121 -254h121v254z" />
    <glyph glyph-name="scedilla" unicode="&#x15f;" horiz-adv-x="498" 
d="M438 426q2 -2 2 -4q0 -14 -6.5 -24t-22.5 -10q-11 0 -18 9.5t-14 20.5l-10 16t-10 13q-23 23 -52.5 35.5t-58.5 12.5q-26 0 -51.5 -9t-45.5 -24.5t-32.5 -35.5t-12.5 -42q0 -12 9 -20t24 -14t36 -11t45 -10q36 -8 77 -18.5t75 -28t56.5 -44t22.5 -65.5q0 -40 -18.5 -72
t-47.5 -54t-65 -33.5t-71 -11.5q-37 0 -70 13t-60 35.5t-46 53t-26 64.5v2q0 13 8.5 21.5t21.5 8.5q9 0 17.5 -7.5t11.5 -16.5l-1 1q11 -51 49.5 -83.5t93.5 -32.5q26 0 52 8t46.5 23t33 35.5t12.5 45.5q0 23 -13.5 38.5t-36 26.5t-51.5 18t-60 14q-33 7 -65.5 15
t-58.5 20.5t-42.5 31.5t-16.5 47q0 40 18 71.5t47 53.5t65 33.5t73 11.5q63 0 114.5 -35t73.5 -92zM223 -70q6 21 27 21q14 0 23 -10t6 -24l-26 -89q-2 -8 -9.5 -14t-17.5 -6q-16 0 -24 11t-4 25z" />
    <glyph glyph-name="Adieresis" unicode="&#xc4;" horiz-adv-x="440" 
d="M418 39q0 -3 0.5 -4.5t0.5 -3.5t1 -2q0 -11 -7.5 -19t-21.5 -8q-9 0 -17.5 6t-10.5 16l-55 220h-176l-55 -220q-3 -10 -11 -16t-17 -6q-14 0 -21.5 9t-7.5 20v5l173 669q8 21 29 21q8 0 15 -6.5t10 -16.5v1zM292 301l-72 301l-73 -301h145zM73 854q0 15 11.5 26t26.5 11
t25.5 -11t10.5 -26t-10.5 -26t-25.5 -11t-26.5 11t-11.5 26zM295 854q0 15 11.5 26t26.5 11t25.5 -11t10.5 -26t-10.5 -26t-25.5 -11t-26.5 11t-11.5 26z" />
    <glyph glyph-name="Edieresis" unicode="&#xcb;" horiz-adv-x="485" 
d="M160 0q-30 0 -48.5 6t-28.5 17t-13.5 25.5t-3.5 32.5v562q0 18 3.5 32.5t13.5 25.5t28.5 17t48.5 6h277q13 0 20.5 -8.5t7.5 -20.5q0 -26 -28 -26h-313v-246h228q12 0 20.5 -9t8.5 -20q0 -12 -8.5 -20.5t-20.5 -8.5h-228v-311h313q28 0 28 -25q0 -12 -7.5 -20.5
t-20.5 -8.5h-277zM108 854q0 15 11.5 26t26.5 11t25.5 -11t10.5 -26t-10.5 -26t-25.5 -11t-26.5 11t-11.5 26zM330 854q0 15 11.5 26t26.5 11t25.5 -11t10.5 -26t-10.5 -26t-25.5 -11t-26.5 11t-11.5 26z" />
    <glyph glyph-name="AEacute" unicode="&#x1fc;" horiz-adv-x="761" 
d="M712 724q12 0 20.5 -8.5t8.5 -20.5q0 -13 -8.5 -21t-20.5 -8h-312v-243h227q11 0 20 -9t9 -20q0 -14 -9 -21.5t-20 -7.5h-228v-283q0 -11 6.5 -18t29.5 -7h277q12 0 20.5 -8t8.5 -21q0 -14 -8.5 -21.5t-20.5 -7.5h-277q-32 0 -51 6.5t-28.5 17.5t-12 26t-2.5 33v168h-149
l-117 -233q-5 -7 -12 -11.5t-14 -4.5q-13 0 -21 9t-8 20q0 6 3 14l334 669v-1q9 12 46 12h309zM341 563l-120 -256h120v256zM392 919q6 21 27 21q14 0 23 -10t6 -24l-22 -89q-2 -8 -9.5 -14t-17.5 -6q-16 0 -24 11t-4 25z" />
    <glyph glyph-name="Edotaccent" unicode="&#x116;" horiz-adv-x="485" 
d="M160 0q-30 0 -48.5 6t-28.5 17t-13.5 25.5t-3.5 32.5v562q0 18 3.5 32.5t13.5 25.5t28.5 17t48.5 6h277q13 0 20.5 -8.5t7.5 -20.5q0 -26 -28 -26h-313v-246h228q12 0 20.5 -9t8.5 -20q0 -12 -8.5 -20.5t-20.5 -8.5h-228v-311h313q28 0 28 -25q0 -12 -7.5 -20.5
t-20.5 -8.5h-277zM228 864q0 17 12.5 29t29.5 12t28.5 -12t11.5 -29t-11.5 -29t-28.5 -12t-29.5 12t-12.5 29z" />
    <glyph glyph-name="Gdotaccent" unicode="&#x120;" 
d="M459 654q7 -8 7 -20q0 -11 -7 -19.5t-21 -8.5q-7 0 -13.5 4t-14.5 11q-9 7 -21 15.5t-28.5 15t-38.5 11t-52 4.5q-28 0 -54.5 -9t-46.5 -25.5t-32.5 -39.5t-12.5 -52v-357q0 -14 8.5 -35.5t26 -41.5t44.5 -34.5t64 -14.5q32 0 68 3.5t74 10.5v292h-142q-14 0 -21.5 8.5
t-7.5 20.5q0 11 7.5 20t21.5 9h171q13 0 20.5 -9t7.5 -20v-304q0 -30 -19.5 -48t-48.5 -27t-61.5 -11.5t-57.5 -2.5h-12q-44 0 -80.5 16.5t-63.5 43t-42 59t-15 65.5v357q0 41 16.5 75t44 58t64 37t76.5 13q42 0 73.5 -6t54 -15.5t38 -22.5t26.5 -26zM225 864q0 17 12.5 29
t29.5 12t28.5 -12t11.5 -29t-11.5 -29t-28.5 -12t-29.5 12t-12.5 29z" />
    <glyph glyph-name="Idotaccent" unicode="&#x130;" horiz-adv-x="172" 
d="M66 696q0 12 8.5 20.5t19.5 8.5q14 0 22 -8.5t8 -20.5v-666q0 -14 -8 -21.5t-22 -7.5q-11 0 -19.5 7.5t-8.5 21.5v666zM52 864q0 17 12.5 29t29.5 12t28.5 -12t11.5 -29t-11.5 -29t-28.5 -12t-29.5 12t-12.5 29z" />
    <glyph glyph-name="Idieresis" unicode="&#xcf;" horiz-adv-x="265" 
d="M103 696q0 12 8.5 20.5t19.5 8.5q14 0 22 -8.5t8 -20.5v-666q0 -14 -8 -21.5t-22 -7.5q-11 0 -19.5 7.5t-8.5 21.5v666zM0 854q0 15 11.5 26t26.5 11t25.5 -11t10.5 -26t-10.5 -26t-25.5 -11t-26.5 11t-11.5 26zM190 854q0 15 11.5 26t26.5 11t25.5 -11t10.5 -26
t-10.5 -26t-25.5 -11t-26.5 11t-11.5 26z" />
    <glyph glyph-name="Odieresis" unicode="&#xd6;" 
d="M66 522q0 42 14.5 78.5t41.5 63.5t64 43t82 16q41 0 77 -16t63 -43t42.5 -64t15.5 -79v-322q0 -41 -15.5 -77.5t-42.5 -63.5t-63 -42.5t-77 -15.5t-78 15.5t-64.5 42t-43.5 61t-16 73.5v330zM124 197q0 -28 12 -53.5t31.5 -44.5t45.5 -30t54 -11t53.5 11.5t45 30.5
t31.5 44.5t12 53.5v324q0 31 -11 57.5t-30 46t-45 30.5t-56 11t-56 -11.5t-45.5 -31.5t-30.5 -46.5t-11 -55.5v-325zM118 854q0 15 11.5 26t26.5 11t25.5 -11t10.5 -26t-10.5 -26t-25.5 -11t-26.5 11t-11.5 26zM340 854q0 15 11.5 26t26.5 11t25.5 -11t10.5 -26t-10.5 -26
t-25.5 -11t-26.5 11t-11.5 26z" />
    <glyph glyph-name="Udieresis" unicode="&#xdc;" 
d="M124 203q0 -30 12 -56.5t31.5 -46t45.5 -30.5t54 -11t54 11.5t45.5 31t31 45t11.5 54.5v495q0 12 8.5 20.5t20.5 8.5q13 0 20.5 -8.5t7.5 -20.5v-495q0 -42 -15.5 -78.5t-42.5 -63.5t-63.5 -42.5t-77.5 -15.5t-77 15t-64 41.5t-44 62t-16 76.5v500q0 12 9 20.5t21 8.5
t20 -8.5t8 -20.5v-493zM116 854q0 15 11.5 26t26.5 11t25.5 -11t10.5 -26t-10.5 -26t-25.5 -11t-26.5 11t-11.5 26zM338 854q0 15 11.5 26t26.5 11t25.5 -11t10.5 -26t-10.5 -26t-25.5 -11t-26.5 11t-11.5 26z" />
    <glyph glyph-name="Wdieresis" unicode="&#x1e84;" horiz-adv-x="801" 
d="M368 704q-2 -7 -1 -3t1 3zM23 680q-7 17 1 31.5t28 14.5t26 -23v1l147 -569l143 569q2 12 12.5 17t19.5 5q28 0 33 -22l141 -570l147 570v-1q6 23 26 23q17 0 27 -11t5 -24l-172 -664q-3 -27 -38 -27q-10 0 -18 6t-10 16l-141 568l-142 -568q-3 -22 -34 -22q-27 0 -32 22
zM237 864q0 17 12.5 29t29.5 12t28.5 -12t11.5 -29t-11.5 -29t-28.5 -12t-29.5 12t-12.5 29zM481 864q0 17 12.5 29t29.5 12t28.5 -12t11.5 -29t-11.5 -29t-28.5 -12t-29.5 12t-12.5 29z" />
    <glyph glyph-name="Ydieresis" unicode="&#x178;" horiz-adv-x="494" 
d="M447 203q0 -41 -9.5 -77t-32.5 -64t-62 -44t-98 -16q-20 0 -41 6t-40.5 16.5t-37.5 23t-32 26.5q-5 5 -6.5 10.5t-1.5 9.5q0 11 9 19.5t20 8.5q12 0 23 -11q20 -23 49 -37t60 -14q43 0 71 8t44 25.5t22 44.5t6 65v121q-53 -13 -86.5 -15.5t-56.5 -2.5q-39 0 -75 13
t-63.5 37t-44.5 57.5t-17 74.5v211q0 14 9 21.5t20 7.5q29 0 29 -29v-210q0 -33 13.5 -56.5t35.5 -39t49.5 -23t55.5 -7.5q16 0 34.5 1.5t36.5 3.5t33.5 4.5t26.5 4.5v323q0 14 8.5 21.5t20.5 7.5q11 0 19.5 -7.5t8.5 -21.5v-497zM99 854q0 15 11.5 26t26.5 11t25.5 -11
t10.5 -26t-10.5 -26t-25.5 -11t-26.5 11t-11.5 26zM321 854q0 15 11.5 26t26.5 11t25.5 -11t10.5 -26t-10.5 -26t-25.5 -11t-26.5 11t-11.5 26z" />
    <glyph glyph-name="Zdotaccent" unicode="&#x17b;" horiz-adv-x="451" 
d="M61 667q-13 0 -21 8t-8 21q0 12 8 20.5t21 8.5h277q42 0 67.5 -23.5t25.5 -65.5q0 -16 -6 -31t-15 -28l-310 -462q-5 -8 -7.5 -14t-2.5 -14q0 -29 35 -29h277q12 0 20.5 -8t8.5 -21q0 -14 -8.5 -21.5t-20.5 -7.5h-290q-38 0 -65 22t-27 64q0 17 6 33.5t14 29.5v-1
q77 114 154.5 230t154.5 230q4 6 7 13.5t3 13.5q0 32 -34 32h-264zM188 864q0 17 12.5 29t29.5 12t28.5 -12t11.5 -29t-11.5 -29t-28.5 -12t-29.5 12t-12.5 29z" />
    <glyph glyph-name="adieresis" unicode="&#xe4;" horiz-adv-x="502" 
d="M396 365q0 28 -7.5 52t-25 41t-45.5 26.5t-69 8.5q-35 -2 -61 -14.5t-49 -38.5q-5 -5 -11 -8t-11 -3q-12 0 -20.5 9.5t-8.5 20.5q0 12 5 17q34 37 73.5 56t90.5 19q53 0 90.5 -15.5t61.5 -43t35 -64t11 -78.5v-258q0 -35 -22.5 -53.5t-55 -27t-68 -10t-62.5 -1.5
q-39 0 -75 14.5t-64 39.5t-44.5 59.5t-16.5 74.5q0 37 17.5 69t46 56t65.5 38t77 14h143zM396 307h-143q-25 0 -50 -9t-46 -24.5t-35 -37.5t-16 -48q0 -33 13.5 -57t35.5 -40t50 -24t56 -8t64.5 4t70.5 12v232zM115 690q0 15 11.5 26t26.5 11t25.5 -11t10.5 -26t-10.5 -26
t-25.5 -11t-26.5 11t-11.5 26zM337 690q0 15 11.5 26t26.5 11t25.5 -11t10.5 -26t-10.5 -26t-25.5 -11t-26.5 11t-11.5 26z" />
    <glyph glyph-name="cdotaccent" unicode="&#x10b;" horiz-adv-x="448" 
d="M378 108q7 9 21 9t21.5 -9t7.5 -20q0 -10 -9 -18q-29 -34 -66 -52t-85 -18q-41 0 -78 16t-64.5 43.5t-43.5 64t-16 78.5v144q0 43 16 80t43 64.5t63.5 43.5t77.5 16q33 0 59 -8t44.5 -19t31 -23t19.5 -20q8 -7 8 -18t-8 -20t-21 -9q-8 0 -14 5t-13 11q-7 7 -16 14.5
t-21 13.5t-28.5 10t-38.5 4q-29 0 -55 -11.5t-46 -31t-32 -46t-12 -56.5v-144q0 -31 11.5 -57t32 -45t47 -30t56.5 -11q29 0 58.5 11.5t49.5 37.5zM225 686q0 17 12.5 29t29.5 12t28.5 -12t11.5 -29t-11.5 -29t-28.5 -12t-29.5 12t-12.5 29z" />
    <glyph glyph-name="edieresis" unicode="&#xeb;" horiz-adv-x="476" 
d="M106 305h291q0 39 -10 72.5t-29 59t-46 40t-60 14.5q-31 0 -58 -11.5t-46.5 -31t-30.5 -46t-11 -57.5v-40zM361 108q7 9 20 9q12 0 20.5 -9t8.5 -21q0 -4 -0.5 -8t-3.5 -7q-69 -72 -154 -72q-42 0 -79.5 15.5t-65 43t-44 64.5t-16.5 79v143q0 42 16.5 79.5t44 65t65 44
t79.5 16.5q43 0 80 -17t64.5 -47t43.5 -70.5t16 -87.5q0 -39 -23 -60t-63 -21h-264v-45q0 -28 12 -54t32 -45.5t46.5 -31.5t55.5 -12q43 0 69.5 16t39.5 33zM108 690q0 15 11.5 26t26.5 11t25.5 -11t10.5 -26t-10.5 -26t-25.5 -11t-26.5 11t-11.5 26zM330 690q0 15 11.5 26
t26.5 11t25.5 -11t10.5 -26t-10.5 -26t-25.5 -11t-26.5 11t-11.5 26z" />
    <glyph glyph-name="edotaccent" unicode="&#x117;" horiz-adv-x="476" 
d="M361 108q7 9 20 9q12 0 20.5 -9t8.5 -21q0 -4 -0.5 -8t-3.5 -7q-69 -72 -154 -72q-42 0 -79.5 15.5t-65 43t-44 64.5t-16.5 79v143q0 42 16.5 79.5t44 65t65 44t79.5 16.5q43 0 80 -17t64.5 -47t43.5 -70.5t16 -87.5q0 -39 -23 -60t-63 -21h-264v-45q0 -28 12 -54
t32 -45.5t46.5 -31.5t55.5 -12q43 0 69.5 16t39.5 33zM106 305h291q0 39 -10 72.5t-29 59t-46 40t-60 14.5q-31 0 -58 -11.5t-46.5 -31t-30.5 -46t-11 -57.5v-40zM210 686q0 17 12.5 29t29.5 12t28.5 -12t11.5 -29t-11.5 -29t-28.5 -12t-29.5 12t-12.5 29z" />
    <glyph glyph-name="gdotaccent" unicode="&#x121;" horiz-adv-x="539" 
d="M414 480q-33 8 -68.5 11.5t-63.5 3.5h-12q-29 0 -55 -9t-46 -25.5t-32 -40.5t-12 -53v-179q0 -31 12 -55t32 -40.5t46 -25t55 -8.5h10q29 0 65.5 4t68.5 12v405zM473 19q0 -39 -9 -75.5t-32 -65t-62 -45.5t-100 -17q-28 0 -57 9t-53 22.5t-39 29.5t-15 31q0 12 8.5 21
t21.5 9q6 0 13 -5t16 -13q17 -15 40.5 -30.5t64.5 -15.5q39 0 65.5 7t43.5 22t25 37.5t10 52.5l2 29l-21 -11q-1 -1 -3 -1q-38 -8 -66 -9t-49 -1h-7q-40 0 -77 13.5t-65 38.5t-45 59.5t-17 76.5v179q0 43 17 77.5t45 59t65 37.5t77 13q25 0 60 -2t66.5 -10.5t54 -26
t22.5 -49.5v-447zM229 686q0 17 12.5 29t29.5 12t28.5 -12t11.5 -29t-11.5 -29t-28.5 -12t-29.5 12t-12.5 29z" />
    <glyph glyph-name="idieresis" unicode="&#xef;" horiz-adv-x="251" 
d="M95 522q0 11 8.5 20t20.5 9q13 0 21 -9t8 -20v-493q0 -12 -8 -20.5t-21 -8.5q-12 0 -20.5 8.5t-8.5 20.5v493zM0 690q0 15 11.5 26t26.5 11t25.5 -11t10.5 -26t-10.5 -26t-25.5 -11t-26.5 11t-11.5 26zM176 690q0 15 11.5 26t26.5 11t25.5 -11t10.5 -26t-10.5 -26
t-25.5 -11t-26.5 11t-11.5 26z" />
    <glyph glyph-name="udieresis" unicode="&#xfc;" horiz-adv-x="538" 
d="M413 527q0 12 8 20t21 8q14 0 22 -8t8 -20v-435q0 -35 -22.5 -53.5t-54 -26.5t-67 -9.5t-60.5 -1.5q-41 0 -77.5 13.5t-64.5 38.5t-44 59.5t-16 76.5v335q0 14 7.5 22t21.5 8q11 0 19.5 -8t8.5 -22v-335q0 -34 14.5 -58.5t37.5 -40t52 -23t59 -7.5q28 0 59 3.5t51 7.5
q2 0 8.5 0.5t8.5 0.5v455zM117 690q0 15 11.5 26t26.5 11t25.5 -11t10.5 -26t-10.5 -26t-25.5 -11t-26.5 11t-11.5 26zM339 690q0 15 11.5 26t26.5 11t25.5 -11t10.5 -26t-10.5 -26t-25.5 -11t-26.5 11t-11.5 26z" />
    <glyph glyph-name="wdieresis" unicode="&#x1e85;" horiz-adv-x="800" 
d="M23 512q-7 15 2 28t27 13q20 0 29 -20v1l146 -430l144 430q4 8 11.5 13.5t16.5 5.5q10 0 17 -5.5t10 -13.5l147 -431l149 433q2 9 9 13t15 5q14 2 25.5 -9.5t6.5 -28.5q-43 -123 -87.5 -247t-89.5 -249q-6 -19 -30 -19q-11 0 -18 6.5t-10 14.5v-1l-143 422l-145 -424
q-6 -19 -28 -19q-23 0 -28 20zM240 690q0 17 12.5 29t29.5 12t28.5 -12t11.5 -29t-11.5 -29t-28.5 -12t-29.5 12t-12.5 29zM484 690q0 17 12.5 29t29.5 12t28.5 -12t11.5 -29t-11.5 -29t-28.5 -12t-29.5 12t-12.5 29z" />
    <glyph glyph-name="zdotaccent" unicode="&#x17c;" horiz-adv-x="448" 
d="M50 494q-12 0 -21 8.5t-9 20.5t9 21t21 9h281q24 0 42 -8t30.5 -21t18.5 -29.5t6 -33.5t-7.5 -34.5t-19.5 -31.5l-312 -280q-10 -10 -10 -22q0 -34 38 -34h282q11 0 20 -8.5t9 -21.5q0 -12 -9 -20.5t-20 -8.5h-282q-42 0 -69.5 26.5t-27.5 65.5q0 16 8.5 34t19.5 32
l313 281q8 8 8 21q0 34 -38 34h-281zM177 686q0 17 12.5 29t29.5 12t28.5 -12t11.5 -29t-11.5 -29t-28.5 -12t-29.5 12t-12.5 29z" />
    <glyph glyph-name="odieresis" unicode="&#xf6;" horiz-adv-x="502" 
d="M47 344q0 43 16.5 80.5t44 65.5t65 44t79.5 16t79 -16t64.5 -44t43.5 -65.5t16 -80.5v-139q0 -42 -16 -79.5t-43.5 -65.5t-64.5 -44t-79 -16t-79.5 16t-65 44t-44 65.5t-16.5 79.5v139zM106 205q0 -31 11.5 -57.5t31 -46t46 -31t57.5 -11.5q28 0 54 11.5t46 31t32.5 46
t12.5 57.5v140q0 33 -12 59.5t-32 46t-46.5 30t-54.5 10.5q-29 0 -55.5 -10.5t-46.5 -29.5t-32 -46.5t-12 -60.5v-139zM107 690q0 15 11.5 26t26.5 11t25.5 -11t10.5 -26t-10.5 -26t-25.5 -11t-26.5 11t-11.5 26zM329 690q0 15 11.5 26t26.5 11t25.5 -11t10.5 -26t-10.5 -26
t-25.5 -11t-26.5 11t-11.5 26z" />
    <glyph glyph-name="ydieresis" unicode="&#xff;" horiz-adv-x="537" 
d="M471 18q0 -93 -48.5 -148.5t-154.5 -55.5q-35 0 -65 10t-52 24t-34.5 30.5t-12.5 28.5q0 11 9 21t20 10t20.5 -7.5t20.5 -16.5h-1q17 -15 40 -28.5t55 -13.5q48 0 76.5 14.5t44 36t20 46.5t4.5 48q-15 -6 -35 -9t-40 -4.5t-37 -2t-26 -0.5h-7q-41 0 -77.5 13.5t-64.5 38
t-44 59t-16 76.5v338q0 11 7.5 19t21.5 8q11 0 19.5 -8t8.5 -19v-338q0 -34 14 -58t36.5 -39.5t50.5 -23t57 -7.5q28 0 63.5 3.5t68.5 11.5v451q0 11 8 19t21 8q14 0 21.5 -8t7.5 -19v-508zM118 690q0 15 11.5 26t26.5 11t25.5 -11t10.5 -26t-10.5 -26t-25.5 -11t-26.5 11
t-11.5 26zM340 690q0 15 11.5 26t26.5 11t25.5 -11t10.5 -26t-10.5 -26t-25.5 -11t-26.5 11t-11.5 26z" />
    <glyph glyph-name="Lacute" unicode="&#x139;" horiz-adv-x="465" 
d="M437 58q13 0 20.5 -8.5t7.5 -19.5q0 -14 -7.5 -22t-20.5 -8h-277q-33 0 -51.5 6.5t-28 17.5t-12 26.5t-2.5 33.5v612q0 12 9 20.5t20 8.5q12 0 20 -8.5t8 -20.5v-612q0 -14 6 -20t31 -6h277zM87 919q6 21 27 21q14 0 23 -10t6 -24l-22 -89q-2 -8 -9.5 -14t-17.5 -6
q-16 0 -24 11t-4 25z" />
    <glyph glyph-name="Igrave" unicode="&#xcc;" horiz-adv-x="172" 
d="M67 696q0 12 8.5 20.5t20.5 8.5q13 0 21 -8.5t8 -20.5v-666q0 -14 -8 -21.5t-21 -7.5q-12 0 -20.5 7.5t-8.5 21.5v666zM123 833q4 -14 -4 -25t-24 -11q-10 0 -17.5 6t-9.5 14l-22 89q-3 14 6 24t23 10q21 0 27 -21z" />
    <glyph glyph-name="Iacute" unicode="&#xcd;" horiz-adv-x="188" 
d="M66 696q0 12 8.5 20.5t19.5 8.5q14 0 21.5 -8.5t7.5 -20.5v-666q0 -29 -29 -29q-11 0 -19.5 7.5t-8.5 21.5v666zM90 919q6 21 27 21q14 0 23 -10t6 -24l-22 -89q-2 -8 -9.5 -14t-17.5 -6q-16 0 -24 11t-4 25z" />
    <glyph glyph-name="Nacute" unicode="&#x143;" horiz-adv-x="511" 
d="M66 693q0 11 9 20t20 9q18 0 29 -26l283 -551v548q0 11 8.5 20t20.5 9q11 0 19.5 -9t8.5 -20v-666q0 -19 -8 -24t-12 -5q-20 0 -27 6t-9 11l-285 553v-541q0 -14 -8 -21.5t-20 -7.5q-11 0 -20 7.5t-9 21.5v666zM262 919q6 21 27 21q14 0 23 -10t6 -24l-22 -89
q-2 -8 -9.5 -14t-17.5 -6q-16 0 -24 11t-4 25z" />
    <glyph glyph-name="Oacute" unicode="&#xd3;" 
d="M66 522q0 42 14.5 78.5t41.5 63.5t64 43t82 16q41 0 77 -16t63 -43t42.5 -64t15.5 -79v-322q0 -41 -15.5 -77.5t-42.5 -63.5t-63 -42.5t-77 -15.5t-78 15.5t-64.5 42t-43.5 61t-16 73.5v330zM124 197q0 -28 12 -53.5t31.5 -44.5t45.5 -30t54 -11t53.5 11.5t45 30.5
t31.5 44.5t12 53.5v324q0 31 -11 57.5t-30 46t-45 30.5t-56 11t-56 -11.5t-45.5 -31.5t-30.5 -46.5t-11 -55.5v-325zM261 919q6 21 27 21q14 0 23 -10t6 -24l-22 -89q-2 -8 -9.5 -14t-17.5 -6q-16 0 -24 11t-4 25z" />
    <glyph glyph-name="Ograve" unicode="&#xd2;" 
d="M66 522q0 42 14.5 78.5t41.5 63.5t64 43t82 16q41 0 77 -16t63 -43t42.5 -64t15.5 -79v-322q0 -41 -15.5 -77.5t-42.5 -63.5t-63 -42.5t-77 -15.5t-77.5 15.5t-64.5 42t-44 61t-16 73.5v330zM124 197q0 -28 12 -53.5t31.5 -44.5t45.5 -30t54 -11t53.5 11.5t45 30.5
t31.5 44.5t12 53.5v324q0 31 -11 57.5t-30 46t-45 30.5t-56 11t-56 -11.5t-45.5 -31.5t-30.5 -46.5t-11 -55.5v-325zM295 833q4 -14 -4 -25t-24 -11q-10 0 -17.5 6t-9.5 14l-22 89q-3 14 6 24t23 10q21 0 27 -21z" />
    <glyph glyph-name="Racute" unicode="&#x154;" horiz-adv-x="514" 
d="M268 360q27 0 52.5 9t45 25.5t31.5 39.5t12 52v56q0 33 -13.5 57t-35.5 39t-49.5 22.5t-55.5 7.5q-13 0 -31.5 -1.5t-37.5 -3.5t-36 -4.5t-26 -5.5v-293h144zM124 302v-272q0 -29 -29 -29q-11 0 -20 7.5t-9 21.5v605q0 33 21 51t52 27t66 11t63 2q39 0 75 -13.5t63 -37.5
t43 -58t16 -75v-57q0 -38 -13 -66t-30 -48q-19 -23 -43 -39q8 -3 23 -13.5t30 -29t25 -46t9 -66.5v-147q0 -14 -8.5 -21.5t-19.5 -7.5q-12 0 -20.5 7.5t-8.5 21.5v147q0 29 -12 52.5t-32 39.5t-45.5 24.5t-51.5 8.5h-144zM246 919q6 21 27 21q14 0 23 -10t6 -24l-22 -89
q-2 -8 -9.5 -14t-17.5 -6q-16 0 -24 11t-4 25z" />
    <glyph glyph-name="Rcommaaccent" unicode="&#x156;" horiz-adv-x="514" 
d="M268 360q27 0 52.5 9t45 25.5t31.5 39.5t12 52v56q0 33 -13.5 57t-35.5 39t-49.5 22.5t-55.5 7.5q-13 0 -31.5 -1.5t-37.5 -3.5t-36 -4.5t-26 -5.5v-293h144zM124 302v-272q0 -29 -29 -29q-11 0 -20 7.5t-9 21.5v605q0 33 21 51t52 27t66 11t63 2q39 0 75 -13.5t63 -37.5
t43 -58t16 -75v-57q0 -38 -13 -66t-30 -48q-19 -23 -43 -39q8 -3 23 -13.5t30 -29t25 -46t9 -66.5v-147q0 -14 -8.5 -21.5t-19.5 -7.5q-12 0 -20.5 7.5t-8.5 21.5v147q0 29 -12 52.5t-32 39.5t-45.5 24.5t-51.5 8.5h-144zM243 -70q6 21 27 21q14 0 23 -10t6 -24l-26 -89
q-2 -8 -9.5 -14t-17.5 -6q-16 0 -24 11t-4 25z" />
    <glyph glyph-name="Sacute" unicode="&#x15a;" horiz-adv-x="467" 
d="M445 615v-11t1 -15q0 -2 1 -3zM246 726q33 0 64.5 -10.5t58 -29t46.5 -43.5t31 -54v-6q0 -2 0.5 -3t0.5 -3q0 -12 -7.5 -20.5t-21.5 -8.5q-11 0 -17 5t-11 16v-1q-17 46 -58 73t-90 27q-21 0 -45.5 -8t-44.5 -23t-33.5 -35t-13.5 -44q0 -21 14 -42.5t36.5 -43t50.5 -42.5
t57 -41q30 -20 62.5 -44t59.5 -52t44.5 -58t17.5 -61q0 -38 -16.5 -70t-44.5 -55t-64.5 -35.5t-75.5 -12.5q-32 0 -63.5 10.5t-57.5 29.5t-46 44.5t-30 55.5v-1q-2 6 -2 7q0 14 7.5 23t21.5 9q9 0 17 -5t12 -14h-1q6 -21 20 -39.5t33.5 -32t42 -21.5t45.5 -8q22 0 47.5 7
t47 21t36 34.5t14.5 48.5q0 21 -12.5 42.5t-32.5 41t-44 38t-47 33.5q1 1 -6 5.5t-12 7.5l-6 4q-30 19 -62.5 42.5t-59 50.5t-44 57.5t-17.5 65.5q0 39 18 70t47 53t64 33.5t70 11.5zM239 919q6 21 27 21q14 0 23 -10t6 -24l-22 -89q-2 -8 -9.5 -14t-17.5 -6q-16 0 -24 11
t-4 25z" />
    <glyph glyph-name="Uacute" unicode="&#xda;" 
d="M124 203q0 -30 12 -56.5t31.5 -46t45.5 -30.5t54 -11t54 11.5t45.5 31t31 45t11.5 54.5v495q0 12 8.5 20.5t20.5 8.5q13 0 20.5 -8.5t7.5 -20.5v-495q0 -42 -15.5 -78.5t-42.5 -63.5t-63.5 -42.5t-77.5 -15.5t-77 15t-64 41.5t-44 62t-16 76.5v500q0 12 9 20.5t21 8.5
t20 -8.5t8 -20.5v-493zM262 919q6 21 27 21q14 0 23 -10t6 -24l-22 -89q-2 -8 -9.5 -14t-17.5 -6q-16 0 -24 11t-4 25z" />
    <glyph glyph-name="Ugrave" unicode="&#xd9;" 
d="M124 203q0 -30 12 -56.5t31.5 -46t45.5 -30.5t54 -11t54 11.5t45.5 31t31 45t11.5 54.5v495q0 12 8.5 20.5t20.5 8.5q13 0 20.5 -8.5t7.5 -20.5v-495q0 -42 -15.5 -78.5t-42.5 -63.5t-63.5 -42.5t-77.5 -15.5t-77 15t-64 41.5t-44 62t-16 76.5v500q0 12 9 20.5t21 8.5
t20 -8.5t8 -20.5v-493zM299 833q4 -14 -4 -25t-24 -11q-10 0 -17.5 6t-9.5 14l-22 89q-3 14 6 24t23 10q21 0 27 -21z" />
    <glyph glyph-name="Uhungarumlaut" unicode="&#x170;" horiz-adv-x="523" 
d="M134 203q0 -30 12 -56.5t31.5 -46t45.5 -30.5t54 -11t54 11.5t45.5 31t31 45t11.5 54.5v495q0 12 8.5 20.5t20.5 8.5q13 0 20.5 -8.5t7.5 -20.5v-495q0 -42 -15.5 -78.5t-42.5 -63.5t-63.5 -42.5t-77.5 -15.5t-77 15t-64 41.5t-44 62t-16 76.5v500q0 12 9 20.5t21 8.5
t20 -8.5t8 -20.5v-493zM216 934q5 19 23 19q8 0 13 -3q5 -2 8.5 -7t3.5 -13q0 -3 -1 -7q0 -2 -0.5 -3t-0.5 -3v1l-19 -70q-2 -11 -10.5 -14.5t-15.5 -3.5q-9 0 -15.5 6.5t-6.5 16.5v7zM328 934q5 19 23 19q8 0 13 -3q5 -2 8.5 -7t3.5 -13q0 -3 -1 -7q0 -2 -0.5 -3t-0.5 -3v1
l-19 -70q-2 -11 -10.5 -14.5t-15.5 -3.5q-9 0 -15.5 6.5t-6.5 16.5v7z" />
    <glyph glyph-name="Wacute" unicode="&#x1e82;" horiz-adv-x="801" 
d="M368 704q-2 -7 -1 -3t1 3zM23 680q-7 17 1 31.5t28 14.5t26 -23v1l147 -569l143 569q2 12 12.5 17t19.5 5q28 0 33 -22l141 -570l147 570v-1q6 23 26 23q17 0 27 -11t5 -24l-172 -664q-3 -27 -38 -27q-10 0 -18 6t-10 16l-141 568l-142 -568q-3 -22 -34 -22q-27 0 -32 22
zM393 919q6 21 27 21q14 0 23 -10t6 -24l-22 -89q-2 -8 -9.5 -14t-17.5 -6q-16 0 -24 11t-4 25z" />
    <glyph glyph-name="Wgrave" unicode="&#x1e80;" horiz-adv-x="801" 
d="M368 704q-2 -7 -1 -3t1 3zM23 680q-7 17 1 31.5t28 14.5t26 -23v1l147 -569l143 569q2 12 12.5 17t19.5 5q28 0 33 -22l141 -570l147 570v-1q6 23 26 23q17 0 27 -11t5 -24l-172 -664q-3 -27 -38 -27q-10 0 -18 6t-10 16l-141 568l-142 -568q-3 -22 -34 -22q-27 0 -32 22
zM427 833q4 -14 -4 -25t-24 -11q-10 0 -17.5 6t-9.5 14l-22 89q-3 14 6 24t23 10q21 0 27 -21z" />
    <glyph glyph-name="Yacute" unicode="&#xdd;" 
d="M466 203q0 -41 -9.5 -77t-32.5 -64t-62 -44t-98 -16q-20 0 -41 6t-40.5 16.5t-37.5 23t-32 26.5l-5 10t-3 10q0 11 9 19.5t20 8.5q12 0 23 -11h-1q20 -23 49.5 -37t60.5 -14q43 0 71 8t44 25.5t22 44.5t6 65v121q-53 -13 -86.5 -15.5t-56.5 -2.5q-39 0 -75 13t-63.5 37
t-44.5 57.5t-17 74.5v211q0 14 9 21.5t20 7.5q29 0 29 -29v-210q0 -33 13.5 -56.5t35.5 -39t49.5 -23t55.5 -7.5q16 0 34.5 1.5t36.5 3.5t33.5 4.5t26.5 4.5v323q0 14 8.5 21.5t20.5 7.5q11 0 19.5 -7.5t8.5 -21.5v-497zM263 919q6 21 27 21q14 0 23 -10t6 -24l-22 -89
q-2 -8 -9.5 -14t-17.5 -6q-16 0 -24 11t-4 25z" />
    <glyph glyph-name="Ygrave" unicode="&#x1ef2;" 
d="M466 203q0 -41 -9.5 -77t-32.5 -64t-62 -44t-98 -16q-20 0 -41 6t-40.5 16.5t-37.5 23t-32 26.5l-5 10t-3 10q0 11 9 19.5t20 8.5q12 0 23 -11h-1q20 -23 49.5 -37t60.5 -14q43 0 71 8t44 25.5t22 44.5t6 65v121q-53 -13 -86.5 -15.5t-56.5 -2.5q-39 0 -75 13t-63.5 37
t-44.5 57.5t-17 74.5v211q0 14 9 21.5t20 7.5q29 0 29 -29v-210q0 -33 13.5 -56.5t35.5 -39t49.5 -23t55.5 -7.5q16 0 34.5 1.5t36.5 3.5t33.5 4.5t26.5 4.5v323q0 14 8.5 21.5t20.5 7.5q11 0 19.5 -7.5t8.5 -21.5v-497zM302 833q4 -14 -4 -25t-24 -11q-10 0 -17.5 6
t-9.5 14l-22 89q-3 14 6 24t23 10q21 0 27 -21z" />
    <glyph glyph-name="Zacute" unicode="&#x179;" horiz-adv-x="451" 
d="M61 667q-13 0 -21 8t-8 21q0 12 8 20.5t21 8.5h277q42 0 67.5 -23.5t25.5 -65.5q0 -16 -6 -31t-15 -28l-310 -462q-5 -8 -7.5 -14t-2.5 -14q0 -29 35 -29h277q12 0 20.5 -8t8.5 -21q0 -14 -8.5 -21.5t-20.5 -7.5h-290q-38 0 -65 22t-27 64q0 17 6 33.5t14 29.5v-1
q77 114 154.5 230t154.5 230q4 6 7 13.5t3 13.5q0 32 -34 32h-264zM223 919q6 21 27 21q14 0 23 -10t6 -24l-22 -89q-2 -8 -9.5 -14t-17.5 -6q-16 0 -24 11t-4 25z" />
    <glyph glyph-name="Eacute" unicode="&#xc9;" horiz-adv-x="485" 
d="M160 0q-30 0 -48.5 6t-28.5 17t-13.5 25.5t-3.5 32.5v562q0 18 3.5 32.5t13.5 25.5t28.5 17t48.5 6h277q13 0 20.5 -8.5t7.5 -20.5q0 -26 -28 -26h-313v-246h228q12 0 20.5 -9t8.5 -20q0 -12 -8.5 -20.5t-20.5 -8.5h-228v-311h313q28 0 28 -25q0 -12 -7.5 -20.5
t-20.5 -8.5h-277zM263 919q6 21 27 21q14 0 23 -10t6 -24l-22 -89q-2 -8 -9.5 -14t-17.5 -6q-16 0 -24 11t-4 25z" />
    <glyph glyph-name="Egrave" unicode="&#xc8;" horiz-adv-x="485" 
d="M160 0q-30 0 -48.5 6t-28.5 17t-13.5 25.5t-3.5 32.5v562q0 18 3.5 32.5t13.5 25.5t28.5 17t48.5 6h277q13 0 20.5 -8.5t7.5 -20.5q0 -26 -28 -26h-313v-246h228q12 0 20.5 -9t8.5 -20q0 -12 -8.5 -20.5t-20.5 -8.5h-228v-311h313q28 0 28 -25q0 -12 -7.5 -20.5
t-20.5 -8.5h-277zM293 833q4 -14 -4 -25t-24 -11q-10 0 -17.5 6t-9.5 14l-22 89q-3 14 6 24t23 10q21 0 27 -21z" />
    <glyph glyph-name="Ohungarumlaut" unicode="&#x150;" 
d="M66 522q0 42 14.5 78.5t41.5 63.5t64 43t82 16q41 0 77 -16t63 -43t42.5 -64t15.5 -79v-322q0 -41 -15.5 -77.5t-42.5 -63.5t-63 -42.5t-77 -15.5t-78 15.5t-64.5 42t-43.5 61t-16 73.5v330zM124 197q0 -28 12 -53.5t31.5 -44.5t45.5 -30t54 -11t53.5 11.5t45 30.5
t31.5 44.5t12 53.5v324q0 31 -11 57.5t-30 46t-45 30.5t-56 11t-56 -11.5t-45.5 -31.5t-30.5 -46.5t-11 -55.5v-325zM193 919q6 21 27 21q14 0 23 -10t6 -24l-22 -89q-2 -8 -9.5 -14t-17.5 -6q-16 0 -24 11t-4 25zM323 919q6 21 27 21q14 0 23 -10t6 -24l-22 -89
q-2 -8 -9.5 -14t-17.5 -6q-16 0 -24 11t-4 25z" />
    <glyph glyph-name="ohungarumlaut" unicode="&#x151;" horiz-adv-x="502" 
d="M47 344q0 43 16.5 80.5t44 65.5t65 44t79.5 16t79 -16t64.5 -44t43.5 -65.5t16 -80.5v-139q0 -42 -16 -79.5t-43.5 -65.5t-64.5 -44t-79 -16t-79.5 16t-65 44t-44 65.5t-16.5 79.5v139zM106 205q0 -31 11.5 -57.5t31 -46t46 -31t57.5 -11.5q28 0 54 11.5t46 31t32.5 46
t12.5 57.5v140q0 33 -12 59.5t-32 46t-46.5 30t-54.5 10.5q-29 0 -55.5 -10.5t-46.5 -29.5t-32 -46.5t-12 -60.5v-139zM300 747q6 20 24 20q7 0 16 -5t9 -19q0 -2 -1.5 -7t-3.5 -15q-2 -8 -6 -23.5t-11 -39.5q-5 -17 -23 -17q-10 0 -18 6.5t-8 16.5q0 3 1 3v-2zM190 747
q6 20 24 20q7 0 16 -5t9 -19q0 -2 -1.5 -7t-3.5 -15q-2 -8 -6 -23.5t-11 -39.5q-5 -17 -23 -17q-10 0 -18 6.5t-8 16.5q0 3 1 3v-2z" />
    <glyph glyph-name="uhungarumlaut" unicode="&#x171;" horiz-adv-x="538" 
d="M413 527q0 12 8 20t21 8q14 0 22 -8t8 -20v-435q0 -35 -22.5 -53.5t-54 -26.5t-67 -9.5t-60.5 -1.5q-41 0 -77.5 13.5t-64.5 38.5t-44 59.5t-16 76.5v335q0 14 7.5 22t21.5 8q11 0 19.5 -8t8.5 -22v-335q0 -34 14.5 -58.5t37.5 -40t52 -23t59 -7.5q28 0 59 3.5t51 7.5
q2 0 8.5 0.5t8.5 0.5v455zM321 747q5 20 24 20q6 0 15.5 -5t9.5 -19q0 -2 -1.5 -7t-3.5 -15q-3 -8 -7 -23.5t-10 -39.5q-5 -17 -24 -17q-9 0 -17.5 6.5t-8.5 16.5q0 3 1 3v-2zM211 747q5 20 24 20q6 0 15.5 -5t9.5 -19q0 -2 -1.5 -7t-3.5 -15q-3 -8 -7 -23.5t-10 -39.5
q-5 -17 -24 -17q-9 0 -17.5 6.5t-8.5 16.5q0 3 1 3v-2z" />
    <glyph glyph-name="aacute" unicode="&#xe1;" horiz-adv-x="475" 
d="M369 365q0 28 -7.5 52t-25 41t-45.5 26.5t-69 8.5q-35 -2 -61 -14.5t-49 -38.5q-5 -5 -11 -8t-11 -3q-12 0 -20.5 9.5t-8.5 20.5q0 12 5 17q34 37 73.5 56t90.5 19q53 0 90.5 -15.5t61.5 -43t35 -64t11 -78.5v-258q0 -35 -22.5 -53.5t-55 -27t-68 -10t-62.5 -1.5
q-39 0 -75 14.5t-64 39.5t-44.5 59.5t-16.5 74.5q0 37 17.5 69t46 56t65.5 38t77 14h143zM369 307h-143q-25 0 -50 -9t-46 -24.5t-35 -37.5t-16 -48q0 -33 13.5 -57t35.5 -40t50 -24t56 -8t64.5 4t70.5 12v232zM233 743q6 21 27 21q14 0 23 -10t6 -24l-22 -89
q-2 -8 -9.5 -14t-17.5 -6q-16 0 -24 11t-4 25z" />
    <glyph glyph-name="agrave" unicode="&#xe0;" horiz-adv-x="475" 
d="M369 365q0 28 -7.5 52t-25 41t-45.5 26.5t-69 8.5q-35 -2 -61 -14.5t-49 -38.5q-5 -5 -11 -8t-11 -3q-12 0 -20.5 9.5t-8.5 20.5q0 12 5 17q34 37 73.5 56t90.5 19q53 0 90.5 -15.5t61.5 -43t35 -64t11 -78.5v-258q0 -35 -22.5 -53.5t-55 -27t-68 -10t-62.5 -1.5
q-39 0 -75 14.5t-64 39.5t-44.5 59.5t-16.5 74.5q0 37 17.5 69t46 56t65.5 38t77 14h143zM369 307h-143q-25 0 -50 -9t-46 -24.5t-35 -37.5t-16 -48q0 -33 13.5 -57t35.5 -40t50 -24t56 -8t64.5 4t70.5 12v232zM257 657q4 -14 -4 -25t-24 -11q-10 0 -17.5 6t-9.5 14l-22 89
q-3 14 6 24t23 10q21 0 27 -21z" />
    <glyph glyph-name="cacute" unicode="&#x107;" horiz-adv-x="429" 
d="M359 108q7 9 21 9t21.5 -9t7.5 -20q0 -10 -9 -18q-29 -34 -66 -52t-85 -18q-41 0 -78 16t-64.5 43.5t-43.5 64t-16 78.5v144q0 43 16 80t43 64.5t63.5 43.5t77.5 16q33 0 59 -8t44.5 -19t31 -23t19.5 -20q8 -7 8 -18t-8 -20t-21 -9q-8 0 -14 5t-13 11q-7 7 -16 14.5
t-21 13.5t-28.5 10t-38.5 4q-29 0 -55 -11.5t-46 -31t-32 -46t-12 -56.5v-144q0 -31 11.5 -57t32 -45t47 -30t56.5 -11q29 0 58.5 11.5t49.5 37.5zM238 743q6 21 27 21q14 0 23 -10t6 -24l-22 -89q-2 -8 -9.5 -14t-17.5 -6q-16 0 -24 11t-4 25z" />
    <glyph glyph-name="eacute" unicode="&#xe9;" horiz-adv-x="495" 
d="M125 305h290q0 39 -10 72.5t-29 59t-46 40t-60 14.5q-31 0 -57.5 -11.5t-46 -31t-30.5 -46t-11 -57.5v-40zM379 108q7 9 21 9q11 0 20 -9t9 -21q0 -4 -0.5 -8t-3.5 -7q-71 -72 -155 -72q-42 0 -79 15.5t-65 43t-44 64.5t-16 79v143q0 42 16 79.5t44 65t65 44t79 16.5
q43 0 80 -17t65 -47t44 -70.5t16 -87.5q0 -39 -23.5 -60t-63.5 -21h-263v-45q0 -28 12 -54t32 -45.5t46 -31.5t55 -12q43 0 69.5 16t39.5 33zM264 743q6 21 27 21q14 0 23 -10t6 -24l-22 -89q-2 -8 -9.5 -14t-17.5 -6q-16 0 -24 11t-4 25z" />
    <glyph glyph-name="egrave" unicode="&#xe8;" horiz-adv-x="495" 
d="M125 305h290q0 39 -10 72.5t-29 59t-46 40t-60 14.5q-31 0 -57.5 -11.5t-46 -31t-30.5 -46t-11 -57.5v-40zM379 108q7 9 21 9q11 0 20 -9t9 -21q0 -4 -0.5 -8t-3.5 -7q-71 -72 -155 -72q-42 0 -79 15.5t-65 43t-44 64.5t-16 79v143q0 42 16 79.5t44 65t65 44t79 16.5
q43 0 80 -17t65 -47t44 -70.5t16 -87.5q0 -39 -23.5 -60t-63.5 -21h-263v-45q0 -28 12 -54t32 -45.5t46 -31.5t55 -12q43 0 69.5 16t39.5 33zM297 657q4 -14 -4 -25t-24 -11q-10 0 -17.5 6t-9.5 14l-22 89q-3 14 6 24t23 10q21 0 27 -21z" />
    <glyph glyph-name="iacute" unicode="&#xed;" horiz-adv-x="189" 
d="M66 522q0 11 8.5 20t21.5 9q14 0 21.5 -9t7.5 -20v-493q0 -12 -7.5 -20.5t-21.5 -8.5q-13 0 -21.5 8.5t-8.5 20.5v493zM89 743q6 21 27 21q14 0 23 -10t6 -24l-22 -89q-2 -8 -9.5 -14t-17.5 -6q-16 0 -24 11t-4 25z" />
    <glyph glyph-name="igrave" unicode="&#xec;" horiz-adv-x="189" 
d="M64 522q0 11 9 20t20 9q14 0 22 -9t8 -20v-493q0 -12 -8 -20.5t-22 -8.5q-11 0 -20 8.5t-9 20.5v493zM121 657q4 -14 -4 -25t-24 -11q-10 0 -17.5 6t-9.5 14l-22 89q-3 14 6 24t23 10q21 0 27 -21z" />
    <glyph glyph-name="imacron.002" horiz-adv-x="298" 
d="M118 523q0 11 8 20t21 9q12 0 21 -9t9 -20v-493q0 -11 -9 -20t-21 -9q-13 0 -21 9t-8 20v493zM51 682q-12 0 -21.5 6.5t-9.5 16.5q0 9 8.5 15t21.5 6h199q12 0 20.5 -6.5t8.5 -16.5t-8.5 -15.5t-19.5 -5.5h-199z" />
    <glyph glyph-name="dotlessi" unicode="&#x131;" horiz-adv-x="190" 
d="M66 522q0 11 8.5 20t20.5 9q14 0 21.5 -9t7.5 -20v-493q0 -12 -7.5 -20.5t-21.5 -8.5q-12 0 -20.5 8.5t-8.5 20.5v493z" />
    <glyph glyph-name="nacute" unicode="&#x144;" horiz-adv-x="539" 
d="M125 31q0 -11 -7.5 -20t-21.5 -9t-22 9t-8 20v435q0 33 22.5 51t54 27t66.5 10.5t61 1.5q41 0 78 -14t64.5 -38.5t44 -59t16.5 -75.5v-335q0 -13 -8 -22t-22 -9q-11 0 -19.5 9t-8.5 22v335q0 33 -14.5 57t-37.5 40t-52 24t-58 8q-15 0 -33 -1.5t-36 -4t-34 -5t-25 -5.5
v-451zM243 723q6 21 27 21q14 0 23 -10t6 -24l-22 -89q-2 -8 -9.5 -14t-17.5 -6q-16 0 -24 11t-4 25z" />
    <glyph glyph-name="oacute" unicode="&#xf3;" horiz-adv-x="502" 
d="M47 344q0 43 16.5 80.5t44 65.5t65 44t79.5 16t79 -16t64.5 -44t43.5 -65.5t16 -80.5v-139q0 -42 -16 -79.5t-43.5 -65.5t-64.5 -44t-79 -16t-79.5 16t-65 44t-44 65.5t-16.5 79.5v139zM106 205q0 -31 11.5 -57.5t31 -46t46 -31t57.5 -11.5q28 0 54 11.5t46 31t32.5 46
t12.5 57.5v140q0 33 -12 59.5t-32 46t-46.5 30t-54.5 10.5q-29 0 -55.5 -10.5t-46.5 -29.5t-32 -46.5t-12 -60.5v-139zM242 743q6 21 27 21q14 0 23 -10t6 -24l-22 -89q-2 -8 -9.5 -14t-17.5 -6q-16 0 -24 11t-4 25z" />
    <glyph glyph-name="ograve" unicode="&#xf2;" horiz-adv-x="502" 
d="M47 344q0 43 16.5 80.5t44 65.5t65 44t79.5 16t79 -16t64.5 -44t43.5 -65.5t16 -80.5v-139q0 -42 -16 -79.5t-43.5 -65.5t-64.5 -44t-79 -16t-79.5 16t-65 44t-44 65.5t-16.5 79.5v139zM106 205q0 -31 11.5 -57.5t31 -46t46 -31t57.5 -11.5q28 0 54 11.5t46 31t32.5 46
t12.5 57.5v140q0 33 -12 59.5t-32 46t-46.5 30t-54.5 10.5q-29 0 -55.5 -10.5t-46.5 -29.5t-32 -46.5t-12 -60.5v-139zM281 657q4 -14 -4 -25t-24 -11q-10 0 -17.5 6t-9.5 14l-22 89q-3 14 6 24t23 10q21 0 27 -21z" />
    <glyph glyph-name="omacron" unicode="&#x14d;" horiz-adv-x="502" 
d="M47 344q0 43 16.5 80.5t44 65.5t65 44t79.5 16t79 -16t64.5 -44t43.5 -65.5t16 -80.5v-139q0 -42 -16 -79.5t-43.5 -65.5t-64.5 -44t-79 -16t-79.5 16t-65 44t-44 65.5t-16.5 79.5v139zM106 205q0 -31 11.5 -57.5t31 -46t46 -31t57.5 -11.5q28 0 54 11.5t46 31t32.5 46
t12.5 57.5v140q0 33 -12 59.5t-32 46t-46.5 30t-54.5 10.5q-29 0 -55.5 -10.5t-46.5 -29.5t-32 -46.5t-12 -60.5v-139zM152 673q-12 0 -20.5 8t-8.5 19t8.5 18t20.5 7h201q13 0 21.5 -7t8.5 -18t-8.5 -19t-21.5 -8h-201z" />
    <glyph glyph-name="oslash" unicode="&#xf8;" horiz-adv-x="502" 
d="M47 344q0 43 16.5 80.5t44 65.5t65 44t79.5 16q46 0 93 -23q10 18 18.5 22t13.5 4q14 0 21.5 -9t7.5 -20q0 -2 -2 -12l-10 -18q37 -32 49 -70.5t12 -79.5v-139q0 -42 -16 -79.5t-43.5 -65.5t-64.5 -44t-79 -16q-38 0 -90 21l-9 -10q-5 -5 -9.5 -8.5t-15.5 -3.5
q-13 0 -21 9t-8 20q0 6 8 25q-26 19 -43 61.5t-17 90.5v139zM106 205q0 -10 2 -25t6.5 -30t10 -27.5t13.5 -17.5l182 372q-6 4 -15.5 6.5t-19 4t-18.5 2.5t-15 1q-29 0 -55.5 -10.5t-46.5 -29.5t-32 -46.5t-12 -60.5v-139zM252 59q28 0 54 11.5t46 31t32.5 46t12.5 57.5v140
q0 30 -8.5 60t-21.5 44l-182 -376q21 -6 38 -10t29 -4z" />
    <glyph glyph-name="oslashacute" unicode="&#x1ff;" horiz-adv-x="502" 
d="M47 344q0 43 16.5 80.5t44 65.5t65 44t79.5 16q46 0 93 -23q10 18 18.5 22t13.5 4q14 0 21.5 -9t7.5 -20q0 -2 -2 -12l-10 -18q37 -32 49 -70.5t12 -79.5v-139q0 -42 -16 -79.5t-43.5 -65.5t-64.5 -44t-79 -16q-38 0 -90 21l-9 -10q-5 -5 -9.5 -8.5t-15.5 -3.5
q-13 0 -21 9t-8 20q0 6 8 25q-26 19 -43 61.5t-17 90.5v139zM106 205q0 -10 2 -25t6.5 -30t10 -27.5t13.5 -17.5l182 372q-6 4 -15.5 6.5t-19 4t-18.5 2.5t-15 1q-29 0 -55.5 -10.5t-46.5 -29.5t-32 -46.5t-12 -60.5v-139zM252 59q28 0 54 11.5t46 31t32.5 46t12.5 57.5v140
q0 30 -8.5 60t-21.5 44l-182 -376q21 -6 38 -10t29 -4zM243 741q6 21 27 21q14 0 23 -10t6 -24l-22 -89q-2 -8 -9.5 -14t-17.5 -6q-16 0 -24 11t-4 25z" />
    <glyph glyph-name="racute" unicode="&#x155;" horiz-adv-x="320" 
d="M125 29q0 -12 -8.5 -20.5t-21.5 -8.5q-11 0 -20 8.5t-9 20.5v435q0 33 22 51t54 27t67 10.5t62 1.5q11 0 20 -9t9 -20q0 -12 -7 -18.5t-19 -9.5t-27.5 -4t-31.5 -2q-17 -1 -43.5 -3t-46.5 -8v-451zM183 743q6 21 27 21q14 0 23 -10t6 -24l-22 -89q-2 -8 -9.5 -14
t-17.5 -6q-16 0 -24 11t-4 25z" />
    <glyph glyph-name="sacute" unicode="&#x15b;" horiz-adv-x="498" 
d="M439 427q4 -7 2.5 -14t-6.5 -12.5t-11.5 -9t-12.5 -3.5q-8 0 -15.5 7t-13.5 17l-12 20t-11 15q-23 23 -52.5 35.5t-58.5 12.5q-26 0 -51.5 -9t-45.5 -24.5t-32.5 -35.5t-12.5 -42q0 -12 9 -20t24 -14t36 -11t45 -10q36 -8 77 -18.5t75 -28t56.5 -44t22.5 -65.5
q0 -40 -18.5 -72t-47.5 -54t-65 -33.5t-71 -11.5q-37 0 -70 13t-60 35.5t-46 53t-26 64.5v2q0 13 8.5 21.5t21.5 8.5q9 0 17.5 -7.5t11.5 -16.5l-1 1q11 -51 49.5 -83.5t93.5 -32.5q26 0 52 8t46.5 23t33 35.5t12.5 45.5q0 23 -13.5 38.5t-36 26.5t-51.5 18t-60 14
q-33 7 -65.5 15t-58.5 20.5t-42.5 31.5t-16.5 47q0 40 18 71.5t47 53.5t65 33.5t73 11.5q63 0 114.5 -35t73.5 -92zM244 743q6 21 27 21q14 0 23 -10t6 -24l-22 -89q-2 -8 -9.5 -14t-17.5 -6q-16 0 -24 11t-4 25z" />
    <glyph glyph-name="uacute" unicode="&#xfa;" horiz-adv-x="538" 
d="M413 527q0 12 8 20t21 8q14 0 22 -8t8 -20v-435q0 -35 -22.5 -53.5t-54 -26.5t-67 -9.5t-60.5 -1.5q-41 0 -77.5 13.5t-64.5 38.5t-44 59.5t-16 76.5v335q0 14 7.5 22t21.5 8q11 0 19.5 -8t8.5 -22v-335q0 -34 14.5 -58.5t37.5 -40t52 -23t59 -7.5q28 0 59 3.5t51 7.5
q2 0 8.5 0.5t8.5 0.5v455zM259 743q6 21 27 21q14 0 23 -10t6 -24l-22 -89q-2 -8 -9.5 -14t-17.5 -6q-16 0 -24 11t-4 25z" />
    <glyph glyph-name="ugrave" unicode="&#xf9;" horiz-adv-x="538" 
d="M413 527q0 12 8 20t21 8q14 0 22 -8t8 -20v-435q0 -35 -22.5 -53.5t-54 -26.5t-67 -9.5t-60.5 -1.5q-41 0 -77.5 13.5t-64.5 38.5t-44 59.5t-16 76.5v335q0 14 7.5 22t21.5 8q11 0 19.5 -8t8.5 -22v-335q0 -34 14.5 -58.5t37.5 -40t52 -23t59 -7.5q28 0 59 3.5t51 7.5
q2 0 8.5 0.5t8.5 0.5v455zM297 657q4 -14 -4 -25t-24 -11q-10 0 -17.5 6t-9.5 14l-22 89q-3 14 6 24t23 10q21 0 27 -21z" />
    <glyph glyph-name="wacute" unicode="&#x1e83;" horiz-adv-x="800" 
d="M23 512q-7 15 2 28t27 13q20 0 29 -20v1l146 -430l144 430q4 8 11.5 13.5t16.5 5.5q10 0 17 -5.5t10 -13.5l147 -431l149 433q2 9 9 13t15 5q14 2 25.5 -9.5t6.5 -28.5q-43 -123 -87.5 -247t-89.5 -249q-6 -19 -30 -19q-11 0 -18 6.5t-10 14.5v-1l-143 422l-145 -424
q-6 -19 -28 -19q-23 0 -28 20zM357 743q6 21 27 21q14 0 23 -10t6 -24l-22 -89q-2 -8 -9.5 -14t-17.5 -6q-16 0 -24 11t-4 25z" />
    <glyph glyph-name="wgrave" unicode="&#x1e81;" horiz-adv-x="800" 
d="M23 512q-7 15 2 28t27 13q20 0 29 -20v1l146 -430l144 430q4 8 11.5 13.5t16.5 5.5q10 0 17 -5.5t10 -13.5l147 -431l149 433q2 9 9 13t15 5q14 2 25.5 -9.5t6.5 -28.5q-43 -123 -87.5 -247t-89.5 -249q-6 -19 -30 -19q-11 0 -18 6.5t-10 14.5v-1l-143 422l-145 -424
q-6 -19 -28 -19q-23 0 -28 20zM464 657q4 -14 -4 -25t-24 -11q-10 0 -17.5 6t-9.5 14l-22 89q-3 14 6 24t23 10q21 0 27 -21z" />
    <glyph glyph-name="yacute" unicode="&#xfd;" horiz-adv-x="537" 
d="M471 18q0 -93 -48.5 -148.5t-154.5 -55.5q-35 0 -65 10t-52 24t-34.5 30.5t-12.5 28.5q0 11 9 21t20 10t20.5 -7.5t20.5 -16.5h-1q17 -15 40 -28.5t55 -13.5q48 0 76.5 14.5t44 36t20 46.5t4.5 48q-15 -6 -35 -9t-40 -4.5t-37 -2t-26 -0.5h-7q-41 0 -77.5 13.5t-64.5 38
t-44 59t-16 76.5v338q0 11 7.5 19t21.5 8q11 0 19.5 -8t8.5 -19v-338q0 -34 14 -58t36.5 -39.5t50.5 -23t57 -7.5q28 0 63.5 3.5t68.5 11.5v451q0 11 8 19t21 8q14 0 21.5 -8t7.5 -19v-508zM263 743q6 21 27 21q14 0 23 -10t6 -24l-22 -89q-2 -8 -9.5 -14t-17.5 -6
q-16 0 -24 11t-4 25z" />
    <glyph glyph-name="ygrave" unicode="&#x1ef3;" horiz-adv-x="537" 
d="M471 18q0 -93 -48.5 -148.5t-154.5 -55.5q-35 0 -65 10t-52 24t-34.5 30.5t-12.5 28.5q0 11 9 21t20 10t20.5 -7.5t20.5 -16.5h-1q17 -15 40 -28.5t55 -13.5q48 0 76.5 14.5t44 36t20 46.5t4.5 48q-15 -6 -35 -9t-40 -4.5t-37 -2t-26 -0.5h-7q-41 0 -77.5 13.5t-64.5 38
t-44 59t-16 76.5v338q0 11 7.5 19t21.5 8q11 0 19.5 -8t8.5 -19v-338q0 -34 14 -58t36.5 -39.5t50.5 -23t57 -7.5q28 0 63.5 3.5t68.5 11.5v451q0 11 8 19t21 8q14 0 21.5 -8t7.5 -19v-508zM301 657q4 -14 -4 -25t-24 -11q-10 0 -17.5 6t-9.5 14l-22 89q-3 14 6 24t23 10
q21 0 27 -21z" />
    <glyph glyph-name="zacute" unicode="&#x17a;" horiz-adv-x="448" 
d="M50 494q-12 0 -21 8.5t-9 20.5t9 21t21 9h281q24 0 42 -8t30.5 -21t18.5 -29.5t6 -33.5t-7.5 -34.5t-19.5 -31.5l-312 -280q-10 -10 -10 -22q0 -34 38 -34h282q11 0 20 -8.5t9 -21.5q0 -12 -9 -20.5t-20 -8.5h-282q-42 0 -69.5 26.5t-27.5 65.5q0 16 8.5 34t19.5 32
l313 281q8 8 8 21q0 34 -38 34h-281zM213 743q6 21 27 21q14 0 23 -10t6 -24l-22 -89q-2 -8 -9.5 -14t-17.5 -6q-16 0 -24 11t-4 25z" />
    <glyph glyph-name="Acircumflex" unicode="&#xc2;" horiz-adv-x="441" 
d="M335 862q9 -6 9 -14t-5.5 -15t-13 -10t-12.5 2l-60 43q-10 8 -10 17q0 4 4 13t19 9q7 0 12 -3zM419 39q0 -3 0.5 -4.5t0.5 -3.5t1 -2q0 -11 -7.5 -19t-21.5 -8q-9 0 -17.5 6t-10.5 16l-55 220h-176l-55 -220q-2 -11 -10.5 -16.5t-17.5 -5.5q-14 0 -23.5 10t-5.5 24
l173 669q8 21 29 21q8 0 15 -6.5t10 -16.5v1zM293 301l-72 301l-73 -301h145zM108 862q-9 -6 -9 -14t5.5 -15t13 -10t12.5 2l60 43q10 8 10 17q0 4 -4 13t-19 9q-8 0 -12 -3z" />
    <glyph glyph-name="Ccircumflex" unicode="&#x108;" horiz-adv-x="442" 
d="M373 106q7 9 21 9q13 0 20 -9t7 -21q0 -9 -7 -16q-29 -32 -66.5 -50.5t-81.5 -18.5q-41 0 -77.5 15.5t-63.5 42.5t-43 63.5t-16 77.5v326q0 41 16 77.5t43 63.5t63.5 43t77.5 16q24 0 51 -7.5t50.5 -19.5t39 -27.5t15.5 -31.5q0 -11 -7.5 -20t-20.5 -9q-8 0 -14.5 4.5
t-13.5 10.5q-42 42 -100 42q-28 0 -54 -10t-45.5 -29t-31.5 -45t-12 -58v-326q0 -25 9.5 -50t28 -45.5t45 -33t60.5 -12.5t62.5 15.5t43.5 31.5zM380 862q9 -6 9 -14t-5.5 -15t-13 -10t-12.5 2l-60 43q-10 8 -10 17q0 4 4 13t19 9q7 0 12 -3zM153 862q-9 -6 -9 -14t5.5 -15
t13 -10t12.5 2l60 43q10 8 10 17q0 4 -4 13t-19 9q-8 0 -12 -3z" />
    <glyph glyph-name="Ecircumflex" unicode="&#xca;" horiz-adv-x="485" 
d="M160 0q-30 0 -48.5 6t-28.5 17t-13.5 25.5t-3.5 32.5v562q0 18 3.5 32.5t13.5 25.5t28.5 17t48.5 6h277q13 0 20.5 -8.5t7.5 -20.5q0 -26 -28 -26h-313v-246h228q12 0 20.5 -9t8.5 -20q0 -12 -8.5 -20.5t-20.5 -8.5h-228v-311h313q28 0 28 -25q0 -12 -7.5 -20.5
t-20.5 -8.5h-277zM380 862q9 -6 9 -14t-5.5 -15t-13 -10t-12.5 2l-60 43q-10 8 -10 17q0 4 4 13t19 9q7 0 12 -3zM153 862q-9 -6 -9 -14t5.5 -15t13 -10t12.5 2l60 43q10 8 10 17q0 4 -4 13t-19 9q-8 0 -12 -3z" />
    <glyph glyph-name="Gcircumflex" unicode="&#x11c;" 
d="M459 654q7 -8 7 -20q0 -11 -7 -19.5t-21 -8.5q-7 0 -13.5 4t-14.5 11q-9 7 -21 15.5t-28.5 15t-38.5 11t-52 4.5q-28 0 -54.5 -9t-46.5 -25.5t-32.5 -39.5t-12.5 -52v-357q0 -14 8.5 -35.5t26 -41.5t44.5 -34.5t64 -14.5q32 0 68 3.5t74 10.5v292h-142q-14 0 -21.5 8.5
t-7.5 20.5q0 11 7.5 20t21.5 9h171q13 0 20.5 -9t7.5 -20v-304q0 -30 -19.5 -48t-48.5 -27t-61.5 -11.5t-57.5 -2.5h-12q-44 0 -80.5 16.5t-63.5 43t-42 59t-15 65.5v357q0 41 16.5 75t44 58t64 37t76.5 13q42 0 73.5 -6t54 -15.5t38 -22.5t26.5 -26zM383 862q9 -6 9 -14
t-5.5 -15t-13 -10t-12.5 2l-60 43q-10 8 -10 17q0 4 4 13t19 9q7 0 12 -3zM156 862q-9 -6 -9 -14t5.5 -15t13 -10t12.5 2l60 43q10 8 10 17q0 4 -4 13t-19 9q-8 0 -12 -3z" />
    <glyph glyph-name="Hcircumflex" unicode="&#x124;" horiz-adv-x="510" 
d="M66 695q0 12 8.5 20.5t19.5 8.5q14 0 21.5 -8.5t7.5 -20.5v-273h284v273q0 12 8 20.5t19 8.5q14 0 21.5 -8.5t7.5 -20.5v-666q0 -29 -29 -29q-11 0 -19 7.5t-8 21.5v335h-284v-335q0 -29 -29 -29q-11 0 -19.5 7.5t-8.5 21.5v666zM383 862q9 -6 9 -14t-5.5 -15t-13 -10
t-12.5 2l-60 43q-10 8 -10 17q0 4 4 13t19 9q7 0 12 -3zM156 862q-9 -6 -9 -14t5.5 -15t13 -10t12.5 2l60 43q10 8 10 17q0 4 -4 13t-19 9q-8 0 -12 -3z" />
    <glyph glyph-name="Icircumflex" unicode="&#xce;" horiz-adv-x="247" 
d="M95 696q0 12 9 20.5t20 8.5q14 0 21.5 -8.5t7.5 -20.5v-666q0 -29 -29 -29q-11 0 -20 7.5t-9 21.5v666zM237 862q9 -6 9 -14t-5.5 -15t-13 -10t-12.5 2l-60 43q-10 8 -10 17q0 4 4 13t19 9q7 0 12 -3zM10 862q-9 -6 -9 -14t5.5 -15t13 -10t12.5 2l60 43q10 8 10 17
q0 4 -4 13t-19 9q-8 0 -12 -3z" />
    <glyph glyph-name="Jcircumflex" unicode="&#x134;" horiz-adv-x="467" 
d="M49 667q-11 0 -20 8t-9 21q0 12 9 20.5t20 8.5h277q31 0 49.5 -6t28.5 -16.5t13 -25t3 -32.5v-446q0 -41 -16 -77.5t-43 -63.5t-63.5 -42.5t-77.5 -15.5q-30 0 -56 9.5t-46 22t-32.5 23.5t-15.5 14q-6 6 -6 17q0 9 6 19t22 10q13 0 21 -9q26 -26 51.5 -37t55.5 -11
q28 0 54 11.5t46 31t31.5 45t11.5 53.5v167h-228q-12 0 -20.5 7.5t-8.5 21.5q0 11 8.5 20t20.5 9h227v221q0 17 -9 19.5t-19 2.5h-285zM348 862q9 -6 9 -14t-5.5 -15t-13 -10t-12.5 2l-60 43q-10 8 -10 17q0 4 4 13t19 9q7 0 12 -3zM121 862q-9 -6 -9 -14t5.5 -15t13 -10
t12.5 2l60 43q10 8 10 17q0 4 -4 13t-19 9q-8 0 -12 -3z" />
    <glyph glyph-name="Ocircumflex" unicode="&#xd4;" 
d="M66 522q0 42 14.5 78.5t41.5 63.5t64 43t82 16q41 0 77 -16t63 -43t42.5 -64t15.5 -79v-322q0 -41 -15.5 -77.5t-42.5 -63.5t-63 -42.5t-77 -15.5t-78 15.5t-64.5 42t-43.5 61t-16 73.5v330zM124 197q0 -28 12 -53.5t31.5 -44.5t45.5 -30t54 -11t53.5 11.5t45 30.5
t31.5 44.5t12 53.5v324q0 31 -11 57.5t-30 46t-45 30.5t-56 11t-56 -11.5t-45.5 -31.5t-30.5 -46.5t-11 -55.5v-325zM379 862q9 -6 9 -14t-5.5 -15t-13 -10t-12.5 2l-60 43q-10 8 -10 17q0 4 4 13t19 9q7 0 12 -3zM152 862q-9 -6 -9 -14t5.5 -15t13 -10t12.5 2l60 43
q10 8 10 17q0 4 -4 13t-19 9q-8 0 -12 -3z" />
    <glyph glyph-name="Omacron" unicode="&#x14c;" 
d="M166 821q-11 0 -20 7t-9 18q0 10 9 17.5t20 7.5h196q14 0 21.5 -7.5t7.5 -17.5q0 -11 -7.5 -18t-21.5 -7h-196zM66 522q0 42 14.5 78.5t41.5 63.5t64 43t82 16q41 0 77 -16t63 -43t42.5 -64t15.5 -79v-322q0 -41 -15.5 -77.5t-42.5 -63.5t-63 -42.5t-77 -15.5t-78 15.5
t-64.5 42t-43.5 61t-16 73.5v330zM124 197q0 -28 12 -53.5t31.5 -44.5t45.5 -30t54 -11t53.5 11.5t45 30.5t31.5 44.5t12 53.5v324q0 31 -11 57.5t-30 46t-45 30.5t-56 11t-56 -11.5t-45.5 -31.5t-30.5 -46.5t-11 -55.5v-325z" />
    <glyph glyph-name="Oslash" unicode="&#xd8;" 
d="M66 522q0 42 14.5 78.5t41.5 63.5t64 43t82 16q15 0 34 -4t36.5 -10t31.5 -13.5t21 -14.5q2 5 8.5 15t8.5 15v-2q10 19 26 19q14 0 21.5 -8.5t7.5 -20.5q0 -7 -3 -13v1l-26 -51q17 -22 24.5 -53t7.5 -62v-322q0 -41 -15.5 -77.5t-42.5 -63.5t-63 -42.5t-77 -15.5
q-18 0 -33 2t-30.5 7t-32 13.5t-36.5 22.5q-2 -3 -6 -12.5t-6 -15.5q-5 -7 -12.5 -11.5t-13.5 -4.5q-13 0 -21 9t-8 20q0 7 4 14l23 48q-16 16 -23 45t-7 55v330zM267 58q28 0 53.5 11.5t45 30.5t31.5 44.5t12 53.5v349q-1 11 -3.5 19t-5.5 15l-235 -481q19 -15 43 -28.5
t59 -13.5zM322 658q-12 5 -26 7t-29 2q-30 0 -56 -11.5t-45.5 -31.5t-30.5 -46.5t-11 -55.5v-330q0 -20 2.5 -32.5t3.5 -14.5l237 484q-6 8 -15.5 14.5t-29.5 14.5z" />
    <glyph glyph-name="Oslashacute" unicode="&#x1fe;" 
d="M66 522q0 42 14.5 78.5t41.5 63.5t64 43t82 16q15 0 33.5 -3.5t36 -9t32 -13t21.5 -16.5l17 30q11 17 26 17q18 0 25.5 -13.5t0.5 -27.5l-26 -51q17 -22 24.5 -53t7.5 -62v-322q0 -41 -15.5 -77.5t-42.5 -63.5t-63 -42.5t-77 -15.5q-18 0 -33 2t-30.5 7t-32 13.5
t-36.5 22.5q-2 -3 -6 -12.5t-6 -15.5q-5 -7 -12.5 -11.5t-13.5 -4.5q-13 0 -21 9t-8 20q0 7 4 14l23 48q-16 16 -23 45t-7 55v330zM267 58q28 0 53.5 11.5t45 30.5t31.5 44.5t12 53.5v349q-1 11 -3.5 19t-5.5 15l-235 -481q19 -15 43 -28.5t59 -13.5zM322 658q-12 5 -26 7
t-29 2q-30 0 -56 -11.5t-45.5 -31.5t-30.5 -46.5t-11 -55.5v-330q0 -20 2.5 -32.5t3.5 -14.5l237 484q-6 8 -15.5 14.5t-29.5 14.5zM260 899q6 21 27 21q14 0 23 -10t6 -24l-22 -89q-2 -8 -9.5 -14t-17.5 -6q-16 0 -24 11t-4 25z" />
    <glyph glyph-name="Scircumflex" unicode="&#x15c;" horiz-adv-x="495" 
d="M446 589q0 -1 1 -2t-1 2zM246 726q33 0 64.5 -10.5t58 -29t46.5 -43.5t31 -54q4 -15 -3.5 -28t-24.5 -13q-11 0 -17 5t-11 16v-1q-17 46 -58 73t-90 27q-21 0 -45.5 -8t-44.5 -23t-33.5 -35t-13.5 -44q0 -21 14 -42.5t36.5 -43t50.5 -42.5t57 -41q30 -20 62.5 -44
t59.5 -52t44.5 -58t17.5 -61q0 -38 -16.5 -70t-44.5 -55t-64.5 -35.5t-75.5 -12.5q-32 0 -63.5 10.5t-57.5 29.5t-46 44.5t-30 55.5q-5 14 3.5 26t23.5 12q9 0 17 -5t11 -14q6 -21 20 -39.5t33.5 -32t42 -21.5t45.5 -8q22 0 47.5 7t47 21t36 34.5t14.5 48.5q0 24 -15.5 47
t-39 45t-52 42t-53.5 38q-30 19 -62.5 42.5t-59 50.5t-44 57.5t-17.5 65.5q0 39 18 70t47 53t64 33.5t70 11.5zM361 862q9 -6 9 -14t-5.5 -15t-13 -10t-12.5 2l-60 43q-10 8 -10 17q0 4 4 13t19 9q7 0 12 -3zM134 862q-9 -6 -9 -14t5.5 -15t13 -10t12.5 2l60 43q10 8 10 17
q0 4 -4 13t-19 9q-8 0 -12 -3z" />
    <glyph glyph-name="Ucircumflex" unicode="&#xdb;" 
d="M124 203q0 -30 12 -56.5t31.5 -46t45.5 -30.5t54 -11t54 11.5t45.5 31t31 45t11.5 54.5v495q0 12 8.5 20.5t20.5 8.5q13 0 20.5 -8.5t7.5 -20.5v-495q0 -42 -15.5 -78.5t-42.5 -63.5t-63.5 -42.5t-77.5 -15.5t-77 15t-64 41.5t-44 62t-16 76.5v500q0 12 9 20.5t21 8.5
t20 -8.5t8 -20.5v-493zM383 862q9 -6 9 -14t-5.5 -15t-13 -10t-12.5 2l-60 43q-10 8 -10 17q0 4 4 13t19 9q7 0 12 -3zM156 862q-9 -6 -9 -14t5.5 -15t13 -10t12.5 2l60 43q10 8 10 17q0 4 -4 13t-19 9q-8 0 -12 -3z" />
    <glyph glyph-name="Wcircumflex" unicode="&#x174;" horiz-adv-x="801" 
d="M23 680q-7 17 1 31.5t28 14.5t26 -23v1l147 -569l143 569q4 15 13.5 18.5t18.5 3.5q28 0 33 -22l141 -570l147 570v-1q6 23 26 23q17 0 27 -11t5 -24l-172 -664q-3 -27 -38 -27q-10 0 -18 6t-10 16l-141 568l-142 -568q-3 -22 -34 -22q-27 0 -32 22zM512 862q9 -6 9 -14
t-5.5 -15t-13 -10t-12.5 2l-60 43q-10 8 -10 17q0 4 4 13t19 9q7 0 12 -3zM285 862q-9 -6 -9 -14t5.5 -15t13 -10t12.5 2l60 43q10 8 10 17q0 4 -4 13t-19 9q-8 0 -12 -3z" />
    <glyph glyph-name="Ycircumflex" unicode="&#x176;" horiz-adv-x="494" 
d="M447 203q0 -41 -9.5 -77t-32.5 -64t-62 -44t-98 -16q-20 0 -41 6t-40.5 16.5t-37.5 23t-32 26.5l-5 10t-3 10q0 11 9 19.5t20 8.5q12 0 23 -11h-1q20 -23 49.5 -37t60.5 -14q43 0 71 8t44 25.5t22 44.5t6 65v121q-48 -10 -84 -14t-59 -4q-39 0 -75 13t-63.5 37
t-44.5 57.5t-17 74.5v211q0 14 9 21.5t20 7.5q29 0 29 -29v-210q0 -33 13.5 -56.5t35.5 -39t49.5 -23t55.5 -7.5q16 0 34.5 2t36.5 4.5t33.5 5.5t26.5 5v320q0 14 8.5 21.5t20.5 7.5q11 0 19.5 -7.5t8.5 -21.5v-497zM360 862q9 -6 9 -14t-5.5 -15t-13 -10t-12.5 2l-60 43
q-10 8 -10 17q0 4 4 13t19 9q7 0 12 -3zM133 862q-9 -6 -9 -14t5.5 -15t13 -10t12.5 2l60 43q10 8 10 17q0 4 -4 13t-19 9q-8 0 -12 -3z" />
    <glyph glyph-name="acircumflex" unicode="&#xe2;" horiz-adv-x="475" 
d="M369 365q0 28 -7.5 52t-25 41t-45.5 26.5t-69 8.5q-35 -2 -61 -14.5t-49 -38.5q-5 -5 -11 -8t-11 -3q-12 0 -20.5 9.5t-8.5 20.5q0 12 5 17q34 37 73.5 56t90.5 19q53 0 90.5 -15.5t61.5 -43t35 -64t11 -78.5v-258q0 -35 -22.5 -53.5t-55 -27t-68 -10t-62.5 -1.5
q-39 0 -75 14.5t-64 39.5t-44.5 59.5t-16.5 74.5q0 37 17.5 69t46 56t65.5 38t77 14h143zM369 307h-143q-25 0 -50 -9t-46 -24.5t-35 -37.5t-16 -48q0 -33 13.5 -57t35.5 -40t50 -24t56 -8t64.5 4t70.5 12v232zM319 669q5 -2 6 -7.5t1 -11.5q0 -10 -7 -16.5t-18 -6.5t-17 6
l-55 48l-55 -48q-6 -6 -17 -6t-18 6.5t-7 16.5q0 6 1 11.5t6 7.5l72 65q7 9 18 9q10 0 18 -9z" />
    <glyph glyph-name="ccircumflex" unicode="&#x109;" horiz-adv-x="429" 
d="M359 108q7 9 21 9t21.5 -9t7.5 -20q0 -10 -9 -18q-29 -34 -66 -52t-85 -18q-41 0 -78 16t-64.5 43.5t-43.5 64t-16 78.5v144q0 43 16 80t43 64.5t63.5 43.5t77.5 16q33 0 59 -8t44.5 -19t31 -23t19.5 -20q8 -7 8 -18t-8 -20t-21 -9q-8 0 -14 5t-13 11q-7 7 -16 14.5
t-21 13.5t-28.5 10t-38.5 4q-29 0 -55 -11.5t-46 -31t-32 -46t-12 -56.5v-144q0 -31 11.5 -57t32 -45t47 -30t56.5 -11q29 0 58.5 11.5t49.5 37.5zM336 669q5 -2 6 -7.5t1 -11.5q0 -10 -7 -16.5t-18 -6.5t-17 6l-55 48l-55 -48q-6 -6 -17 -6t-18 6.5t-7 16.5q0 6 1 11.5
t6 7.5l72 65q7 9 18 9q10 0 18 -9z" />
    <glyph glyph-name="ecircumflex" unicode="&#xea;" horiz-adv-x="476" 
d="M106 305h291q0 39 -10 72.5t-29 59t-46 40t-60 14.5q-31 0 -58 -11.5t-46.5 -31t-30.5 -46t-11 -57.5v-40zM361 108q7 9 20 9q12 0 20.5 -9t8.5 -21q0 -4 -0.5 -8t-3.5 -7q-69 -72 -154 -72q-42 0 -79.5 15.5t-65 43t-44 64.5t-16.5 79v143q0 42 16.5 79.5t44 65t65 44
t79.5 16.5q43 0 80 -17t64.5 -47t43.5 -70.5t16 -87.5q0 -39 -23 -60t-63 -21h-264v-45q0 -28 12 -54t32 -45.5t46.5 -31.5t55.5 -12q43 0 69.5 16t39.5 33zM343 669q5 -2 6 -7.5t1 -11.5q0 -10 -7 -16.5t-18 -6.5t-17 6l-55 48l-55 -48q-6 -6 -17 -6t-18 6.5t-7 16.5
q0 6 1 11.5t6 7.5l72 65q7 9 18 9q10 0 18 -9z" />
    <glyph glyph-name="gcircumflex" unicode="&#x11d;" horiz-adv-x="520" 
d="M395 480q-33 8 -68.5 11.5t-63.5 3.5h-12q-29 0 -55 -9t-46 -25.5t-32 -40.5t-12 -53v-179q0 -31 12 -55t32 -40.5t46 -25t55 -8.5h10q29 0 65.5 4t68.5 12v405zM454 19q0 -39 -9 -75.5t-32 -65t-62 -45.5t-100 -17q-28 0 -57 9t-53 22.5t-39 29.5t-15 31q0 12 8.5 21
t21.5 9q6 0 13 -5t16 -13q17 -15 40.5 -30.5t64.5 -15.5q39 0 65.5 7t43.5 22t25 37.5t10 52.5l2 29q-53 -17 -85.5 -19.5t-53.5 -2.5h-7q-40 0 -77 13.5t-65 38.5t-45 59.5t-17 76.5v179q0 43 17 77.5t45 59t65 37.5t77 13q25 0 60 -2t66.5 -10.5t54 -26t22.5 -49.5v-447z
M356 668q5 -2 6 -7.5t1 -11.5q0 -10 -7 -16.5t-18 -6.5t-17 6l-55 48l-55 -48q-6 -6 -17 -6t-18 6.5t-7 16.5q0 6 1 11.5t6 7.5l72 65q7 9 18 9q10 0 18 -9z" />
    <glyph glyph-name="hcircumflex" unicode="&#x125;" horiz-adv-x="520" 
d="M66 704q0 14 8 21.5t22 7.5q11 0 19.5 -7.5t8.5 -21.5v-170q58 13 90.5 15t55.5 2q40 0 77 -13.5t65 -38.5t44.5 -59.5t16.5 -76.5v-337q0 -12 -8 -20t-22 -8q-13 0 -21 8t-8 20v337q0 33 -13 57t-34.5 40t-49 24t-55.5 8q-27 0 -64.5 -4.5t-73.5 -11.5v-450
q0 -14 -8.5 -21t-19.5 -7q-14 0 -22 7t-8 21v678zM364 793q5 -2 6 -7.5t1 -11.5q0 -10 -7 -16.5t-18 -6.5t-17 6l-55 48l-55 -48q-6 -6 -17 -6t-18 6.5t-7 16.5q0 6 1 11.5t6 7.5l72 65q7 9 18 9q10 0 18 -9z" />
    <glyph glyph-name="icircumflex" unicode="&#xee;" horiz-adv-x="202" 
d="M73 522q0 11 8.5 20t20.5 9q13 0 21 -9t8 -20v-493q0 -12 -8 -20.5t-21 -8.5q-12 0 -20.5 8.5t-8.5 20.5v493zM192 669q5 -2 6 -7.5t1 -11.5q0 -10 -7 -16.5t-18 -6.5t-17 6l-55 48l-55 -48q-6 -6 -17 -6t-18 6.5t-7 16.5q0 6 1 11.5t6 7.5l72 65q7 9 18 9q10 0 18 -9z
" />
    <glyph glyph-name="jcircumflex" unicode="&#x135;" horiz-adv-x="332" 
d="M255 28q0 -40 -9.5 -77t-33 -65t-63.5 -44.5t-100 -16.5q-13 0 -21 8.5t-8 20.5q0 13 8 21.5t21 8.5q48 0 77 11t44.5 30.5t20.5 46t5 56.5v465h-58q-11 0 -20 8.5t-9 22.5q0 11 9 20t20 9h87q13 0 22 -9t9 -20zM281 669q5 -2 6 -7.5t1 -11.5q0 -10 -7 -16.5t-18 -6.5
t-17 6l-55 48l-55 -48q-6 -6 -17 -6t-18 6.5t-7 16.5q0 6 1 11.5t6 7.5l72 65q7 9 18 9q10 0 18 -9z" />
    <glyph glyph-name="lacute" unicode="&#x13a;" horiz-adv-x="199" 
d="M66 522q0 11 8.5 20t21.5 9t21 -9t8 -20v-493q0 -12 -8 -20.5t-21 -8.5t-21.5 8.5t-8.5 20.5v493zM88 743q6 21 27 21q14 0 23 -10t6 -24l-22 -89q-2 -8 -9.5 -14t-17.5 -6q-16 0 -24 11t-4 25z" />
    <glyph glyph-name="ocircumflex" unicode="&#xf4;" horiz-adv-x="502" 
d="M47 344q0 43 16.5 80.5t44 65.5t65 44t79.5 16t79 -16t64.5 -44t43.5 -65.5t16 -80.5v-139q0 -42 -16 -79.5t-43.5 -65.5t-64.5 -44t-79 -16t-79.5 16t-65 44t-44 65.5t-16.5 79.5v139zM106 205q0 -31 11.5 -57.5t31 -46t46 -31t57.5 -11.5q28 0 54 11.5t46 31t32.5 46
t12.5 57.5v140q0 33 -12 59.5t-32 46t-46.5 30t-54.5 10.5q-29 0 -55.5 -10.5t-46.5 -29.5t-32 -46.5t-12 -60.5v-139zM342 669q5 -2 6 -7.5t1 -11.5q0 -10 -7 -16.5t-18 -6.5t-17 6l-55 48l-55 -48q-6 -6 -17 -6t-18 6.5t-7 16.5q0 6 1 11.5t6 7.5l72 65q7 9 18 9
q10 0 18 -9z" />
    <glyph glyph-name="scircumflex" unicode="&#x15d;" horiz-adv-x="498" 
d="M439 427q2 -14 -4.5 -26.5t-23.5 -12.5q-11 0 -18 9.5t-14 20.5l-10 16t-10 13q-23 23 -52.5 35.5t-58.5 12.5q-26 0 -51.5 -9t-45.5 -24.5t-32.5 -35.5t-12.5 -42q0 -12 9 -20t24 -14t36 -11t45 -10q36 -8 77 -18.5t75 -28t56.5 -44t22.5 -65.5q0 -40 -18.5 -72
t-47.5 -54t-65 -33.5t-71 -11.5q-38 0 -71 12t-59.5 33.5t-44.5 50.5t-25 62q-2 4 -2 6q0 14 8 24t22 10q9 0 17.5 -7.5t11.5 -16.5l-1 1q11 -51 49.5 -83.5t93.5 -32.5q26 0 52 8t46.5 23t33 35.5t12.5 45.5q0 23 -13.5 38.5t-36 26.5t-51.5 18t-60 14q-33 7 -65.5 15
t-58.5 20.5t-42.5 31.5t-16.5 47q0 40 18 71.5t47 53.5t65 33.5t73 11.5q63 0 114.5 -35t73.5 -92zM341 669q5 -2 6 -7.5t1 -11.5q0 -10 -7 -16.5t-18 -6.5t-17 6l-55 48l-55 -48q-6 -6 -17 -6t-18 6.5t-7 16.5q0 6 1 11.5t6 7.5l72 65q7 9 18 9q10 0 18 -9z" />
    <glyph glyph-name="ucircumflex" unicode="&#xfb;" horiz-adv-x="538" 
d="M259 734q9 7 18 7q11 0 18 -7l55 -55q8 -8 8 -19q0 -10 -7.5 -17.5t-18.5 -7.5q-10 0 -17 7l-38 37l-38 -37q-6 -7 -17 -7t-17.5 8t-6.5 17q0 5 1 11t6 8zM413 527q0 12 8 20t21 8q14 0 22 -8t8 -20v-435q0 -35 -22.5 -53.5t-54 -26.5t-67 -9.5t-60.5 -1.5
q-41 0 -77.5 13.5t-64.5 38.5t-44 59.5t-16 76.5v335q0 14 7.5 22t21.5 8q11 0 19.5 -8t8.5 -22v-335q0 -34 14.5 -58.5t37.5 -40t52 -23t59 -7.5q28 0 59 3.5t51 7.5q2 0 8.5 0.5t8.5 0.5v455z" />
    <glyph glyph-name="wcircumflex" unicode="&#x175;" horiz-adv-x="800" 
d="M23 512q-7 15 2 28t27 13q20 0 29 -20v1l146 -430l144 430q2 8 10.5 13.5t17.5 5.5q10 0 17 -5.5t10 -13.5l147 -431l149 433q2 9 9 13t15 5q14 2 25.5 -9.5t6.5 -28.5q-43 -123 -87.5 -247t-89.5 -249q-6 -19 -30 -19q-11 0 -18 6.5t-10 14.5v-1l-143 422l-145 -424
q-6 -19 -28 -19q-23 0 -28 20zM490 669q5 -2 6 -7.5t1 -11.5q0 -10 -7 -16.5t-18 -6.5t-17 6l-55 48l-55 -48q-6 -6 -17 -6t-18 6.5t-7 16.5q0 6 1 11.5t6 7.5l72 65q7 9 18 9q10 0 18 -9z" />
    <glyph glyph-name="ycircumflex" unicode="&#x177;" horiz-adv-x="537" 
d="M471 18q0 -93 -48.5 -148.5t-154.5 -55.5q-35 0 -65 10t-52 24t-34.5 30.5t-12.5 28.5q0 11 9 21t20 10t20.5 -7.5t20.5 -16.5h-1q17 -15 40 -28.5t55 -13.5q48 0 76.5 14.5t44 36t20 46.5t4.5 48q-15 -6 -35 -9t-40 -4.5t-37 -2t-26 -0.5h-7q-41 0 -77.5 13.5t-64.5 38
t-44 59t-16 76.5v338q0 11 7.5 19t21.5 8q11 0 19.5 -8t8.5 -19v-338q0 -34 14 -58t36.5 -39.5t50.5 -23t57 -7.5q28 0 63.5 3.5t68.5 11.5v451q0 11 8 19t21 8q14 0 21.5 -8t7.5 -19v-508zM364 669q5 -2 6 -7.5t1 -11.5q0 -10 -7 -16.5t-18 -6.5t-17 6l-55 48l-55 -48
q-6 -6 -17 -6t-18 6.5t-7 16.5q0 6 1 11.5t6 7.5l72 65q7 9 18 9q10 0 18 -9z" />
    <glyph glyph-name="Dcaron" unicode="&#x10e;" horiz-adv-x="486" 
d="M124 92q0 -5 15 -11t37 -10.5t47 -7.5t45 -3q26 0 51.5 9t45.5 25.5t32 39.5t12 52v357q0 33 -13.5 56.5t-35 39t-50 23t-58.5 7.5q-29 0 -61 -4t-52 -6q-2 0 -7.5 -0.5t-7.5 -0.5v-566zM66 635q0 33 21.5 51.5t53 27.5t66 11t61.5 2q39 0 75 -13.5t63 -37.5t43.5 -58
t16.5 -75v-357q0 -42 -17 -76t-45 -58t-63.5 -37t-72.5 -13q-30 0 -65.5 2t-66 11t-50.5 27t-20 50v543zM279 820q-8 -9 -18 -9q-11 0 -18 9l-72 65q-5 2 -6 7.5t-1 11.5q0 10 7 16.5t18 6.5t17 -6l55 -48l55 48q6 6 17 6t18 -6.5t7 -16.5q0 -6 -1 -11.5t-6 -7.5z" />
    <glyph glyph-name="Ecaron" unicode="&#x11a;" horiz-adv-x="485" 
d="M160 0q-30 0 -48.5 6t-28.5 17t-13.5 25.5t-3.5 32.5v562q0 18 3.5 32.5t13.5 25.5t28.5 17t48.5 6h277q13 0 20.5 -8.5t7.5 -20.5q0 -26 -28 -26h-313v-246h228q12 0 20.5 -9t8.5 -20q0 -12 -8.5 -20.5t-20.5 -8.5h-228v-311h313q28 0 28 -25q0 -12 -7.5 -20.5
t-20.5 -8.5h-277zM287 820q-8 -9 -18 -9q-11 0 -18 9l-72 65q-5 2 -6 7.5t-1 11.5q0 10 7 16.5t18 6.5t17 -6l55 -48l55 48q6 6 17 6t18 -6.5t7 -16.5q0 -6 -1 -11.5t-6 -7.5z" />
    <glyph glyph-name="Lcaron" unicode="&#x13d;" horiz-adv-x="496" 
d="M467 58q12 0 20.5 -8.5t8.5 -19.5q0 -14 -8.5 -22t-20.5 -8h-277q-33 0 -51.5 6.5t-27.5 17.5t-11.5 26.5t-2.5 33.5v612q0 12 7.5 20.5t21.5 8.5q11 0 19.5 -8.5t8.5 -20.5v-612q0 -14 5.5 -20t30.5 -6h277zM143 820q-8 -9 -18 -9q-11 0 -18 9l-72 65q-5 2 -6 7.5
t-1 11.5q0 10 7 16.5t18 6.5t17 -6l55 -48l55 48q6 6 17 6t18 -6.5t7 -16.5q0 -6 -1 -11.5t-6 -7.5z" />
    <glyph glyph-name="Ncaron" unicode="&#x147;" horiz-adv-x="511" 
d="M66 693q0 11 9 20t20 9q18 0 29 -26l283 -551v548q0 11 8.5 20t20.5 9q11 0 19.5 -9t8.5 -20v-666q0 -19 -8 -24t-12 -5q-20 0 -27 6t-9 11l-285 553v-541q0 -14 -8 -21.5t-20 -7.5q-11 0 -20 7.5t-9 21.5v666zM297 820q-8 -9 -18 -9q-11 0 -18 9l-72 65q-5 2 -6 7.5
t-1 11.5q0 10 7 16.5t18 6.5t17 -6l55 -48l55 48q6 6 17 6t18 -6.5t7 -16.5q0 -6 -1 -11.5t-6 -7.5z" />
    <glyph glyph-name="Rcaron" unicode="&#x158;" horiz-adv-x="514" 
d="M268 360q27 0 52.5 9t45 25.5t31.5 39.5t12 52v56q0 33 -13.5 57t-35.5 39t-49.5 22.5t-55.5 7.5q-13 0 -31.5 -1.5t-37.5 -3.5t-36 -4.5t-26 -5.5v-293h144zM124 302v-272q0 -29 -29 -29q-11 0 -20 7.5t-9 21.5v605q0 33 21 51t52 27t66 11t63 2q39 0 75 -13.5t63 -37.5
t43 -58t16 -75v-57q0 -38 -13 -66t-30 -48q-19 -23 -43 -39q8 -3 23 -13.5t30 -29t25 -46t9 -66.5v-147q0 -14 -8.5 -21.5t-19.5 -7.5q-12 0 -20.5 7.5t-8.5 21.5v147q0 29 -12 52.5t-32 39.5t-45.5 24.5t-51.5 8.5h-144zM268 820q-8 -9 -18 -9q-11 0 -18 9l-72 65
q-5 2 -6 7.5t-1 11.5q0 10 7 16.5t18 6.5t17 -6l55 -48l55 48q6 6 17 6t18 -6.5t7 -16.5q0 -6 -1 -11.5t-6 -7.5z" />
    <glyph glyph-name="Tcaron" unicode="&#x164;" horiz-adv-x="468" 
d="M275 667v-638q0 -29 -29 -29q-11 0 -19.5 7.5t-8.5 21.5v638h-141q-12 0 -20.5 9t-8.5 20q0 12 8.5 20.5t20.5 8.5h342q12 0 20.5 -8.5t8.5 -20.5q0 -11 -8.5 -20t-20.5 -9h-144zM263 820q-8 -9 -18 -9q-11 0 -18 9l-72 65q-5 2 -6 7.5t-1 11.5q0 10 7 16.5t18 6.5t17 -6
l55 -48l55 48q6 6 17 6t18 -6.5t7 -16.5q0 -6 -1 -11.5t-6 -7.5z" />
    <glyph glyph-name="Uring" unicode="&#x16e;" 
d="M124 203q0 -30 12 -56.5t31.5 -46t45.5 -30.5t54 -11t54 11.5t45.5 31t31 45t11.5 54.5v495q0 12 8.5 20.5t20.5 8.5q13 0 20.5 -8.5t7.5 -20.5v-495q0 -42 -15.5 -78.5t-42.5 -63.5t-63.5 -42.5t-77.5 -15.5t-77 15t-64 41.5t-44 62t-16 76.5v500q0 12 9 20.5t21 8.5
t20 -8.5t8 -20.5v-493zM282 820q-8 -9 -18 -9q-11 0 -18 9l-72 65q-5 2 -6 7.5t-1 11.5q0 10 7 16.5t18 6.5t17 -6l55 -48l55 48q6 6 17 6t18 -6.5t7 -16.5q0 -6 -1 -11.5t-6 -7.5z" />
    <glyph glyph-name="ecaron" unicode="&#x11b;" horiz-adv-x="495" 
d="M379 108q7 9 21 9q11 0 20 -9t9 -21q0 -4 -0.5 -8t-3.5 -7q-71 -72 -155 -72q-42 0 -79 15.5t-65 43t-44 64.5t-16 79v143q0 42 16 79.5t44 65t65 44t79 16.5q43 0 80 -17t65 -47t44 -70.5t16 -87.5q0 -39 -23.5 -60t-63.5 -21h-263v-45q0 -28 12 -54t32 -45.5t46 -31.5
t55 -12q43 0 69.5 16t39.5 33zM125 305h290q0 39 -10 72.5t-29 59t-46 40t-60 14.5q-31 0 -57.5 -11.5t-46 -31t-30.5 -46t-11 -57.5v-40zM287 636q-8 -9 -18 -9q-11 0 -18 9l-72 65q-5 2 -6 7.5t-1 11.5q0 10 7 16.5t18 6.5t17 -6l55 -48l55 48q6 6 17 6t18 -6.5t7 -16.5
q0 -6 -1 -11.5t-6 -7.5z" />
    <glyph glyph-name="ncaron" unicode="&#x148;" horiz-adv-x="539" 
d="M125 31q0 -11 -7.5 -20t-21.5 -9t-22 9t-8 20v435q0 33 22.5 51t54 27t66.5 10.5t61 1.5q41 0 78 -14t64.5 -38.5t44 -59t16.5 -75.5v-335q0 -13 -8 -22t-22 -9q-11 0 -19.5 9t-8.5 22v335q0 33 -14.5 57t-37.5 40t-52 24t-58 8q-15 0 -33 -1.5t-36 -4t-34 -5t-25 -5.5
v-451zM271 636q-8 -9 -18 -9q-11 0 -18 9l-72 65q-5 2 -6 7.5t-1 11.5q0 10 7 16.5t18 6.5t17 -6l55 -48l55 48q6 6 17 6t18 -6.5t7 -16.5q0 -6 -1 -11.5t-6 -7.5z" />
    <glyph glyph-name="rcaron" unicode="&#x159;" horiz-adv-x="320" 
d="M125 29q0 -12 -8.5 -20.5t-21.5 -8.5q-11 0 -20 8.5t-9 20.5v435q0 33 22 51t54 27t67 10.5t62 1.5q11 0 20 -9t9 -20q0 -12 -7 -18.5t-19 -9.5t-27.5 -4t-31.5 -2q-17 -1 -43.5 -3t-46.5 -8v-451zM197 636q-8 -9 -18 -9q-11 0 -18 9l-72 65q-5 2 -6 7.5t-1 11.5
q0 10 7 16.5t18 6.5t17 -6l55 -48l55 48q6 6 17 6t18 -6.5t7 -16.5q0 -6 -1 -11.5t-6 -7.5z" />
    <glyph glyph-name="franc" unicode="&#x20a3;" horiz-adv-x="566" 
d="M77 154q-13 0 -21.5 7t-8.5 18t8.5 18t21.5 7h34v437q0 17 3 32t13 26.5t29 18t51 6.5h283q11 0 20 -9t9 -21q0 -14 -9 -21.5t-20 -7.5h-283q-25 0 -31 -10t-6 -15v-207h233q11 0 20 -8.5t9 -21.5q0 -12 -9 -21t-20 -9h-233v-169h174q12 0 20.5 -7t8.5 -18t-8.5 -18
t-20.5 -7h-174v-123q0 -11 -8.5 -20t-20.5 -9q-13 0 -21.5 9t-8.5 20v123h-34z" />
    <glyph glyph-name="Aring" unicode="&#xc5;" horiz-adv-x="440" 
d="M418 39q0 -3 0.5 -4.5t0.5 -3.5t1 -2q0 -11 -7.5 -19t-21.5 -8q-9 0 -17.5 6t-10.5 16l-55 220h-176l-55 -220q-3 -10 -11 -16t-17 -6q-14 0 -21.5 9t-7.5 20v5l173 669q8 21 29 21q8 0 15 -6.5t10 -16.5v1zM292 301l-72 301l-73 -301h145zM221 934q39 0 65.5 -26.5
t26.5 -65.5q0 -38 -26.5 -64.5t-65.5 -26.5q-38 0 -64.5 26.5t-26.5 64.5q0 19 7.5 36t20 29.5t29 19.5t34.5 7zM221 895q-20 0 -36 -15t-16 -38t15 -37.5t38 -14.5t37.5 15.5t14.5 36.5q0 23 -15 38t-38 15z" />
    <glyph glyph-name="aring" unicode="&#xe5;" horiz-adv-x="521" 
d="M396 365q0 28 -7.5 52t-25 41t-45.5 26.5t-69 8.5q-35 -2 -61 -14.5t-49 -38.5q-5 -5 -11 -8t-11 -3q-12 0 -20.5 9.5t-8.5 20.5q0 12 5 17q34 37 73.5 56t90.5 19q53 0 90.5 -15.5t61.5 -43t35 -64t11 -78.5v-258q0 -35 -22.5 -53.5t-55 -27t-68 -10t-62.5 -1.5
q-39 0 -75 14.5t-64 39.5t-44.5 59.5t-16.5 74.5q0 37 17.5 69t46 56t65.5 38t77 14h143zM396 307h-143q-25 0 -50 -9t-46 -24.5t-35 -37.5t-16 -48q0 -33 13.5 -57t35.5 -40t50 -24t56 -8t64.5 4t70.5 12v232zM262 790q19 0 36 -7t29.5 -20t20 -30t7.5 -36q0 -39 -27 -65.5
t-66 -26.5t-65.5 26.5t-26.5 65.5q0 19 7.5 36t20 30t29 20t35.5 7zM262 750q-21 0 -37 -15t-16 -38t15.5 -38t38.5 -15t37.5 16t14.5 37q0 23 -15 38t-38 15z" />
    <glyph glyph-name="uring" unicode="&#x16f;" horiz-adv-x="538" 
d="M270 798q36 0 60.5 -25.5t24.5 -60.5q0 -36 -24.5 -60.5t-60.5 -24.5t-60.5 24.5t-24.5 60.5q0 18 6.5 33.5t18 27t27 18.5t33.5 7zM270 777q-26 0 -45.5 -18t-19.5 -47t18.5 -47.5t47.5 -18.5t47 20t18 46q0 29 -18.5 47t-47.5 18zM413 527q0 12 8 20t21 8q14 0 22 -8
t8 -20v-435q0 -35 -22.5 -53.5t-54 -26.5t-67 -9.5t-60.5 -1.5q-41 0 -77.5 13.5t-64.5 38.5t-44 59.5t-16 76.5v335q0 14 7.5 22t21.5 8q11 0 19.5 -8t8.5 -22v-335q0 -34 14.5 -58.5t37.5 -40t52 -23t59 -7.5q28 0 59 3.5t51 7.5q2 0 8.5 0.5t8.5 0.5v455z" />
    <glyph glyph-name="Scedilla" unicode="&#x15e;" horiz-adv-x="440" 
d="M418 615v-11t1 -15q0 -2 1 -3zM219 726q33 0 64.5 -10.5t58 -29t46.5 -43.5t31 -54v-6q0 -2 0.5 -3t0.5 -3q0 -12 -7.5 -20.5t-21.5 -8.5q-11 0 -17 5t-11 16v-1q-17 46 -58 73t-90 27q-21 0 -45.5 -8t-44.5 -23t-33.5 -35t-13.5 -44q0 -21 14 -42.5t36.5 -43t50.5 -42.5
t57 -41q30 -20 62.5 -44t59.5 -52t44.5 -58t17.5 -61q0 -38 -16.5 -70t-44.5 -55t-64.5 -35.5t-75.5 -12.5q-32 0 -63.5 10.5t-57.5 29.5t-46 44.5t-30 55.5v-1q-2 6 -2 7q0 14 7.5 23t21.5 9q9 0 17 -5t12 -14h-1q6 -21 20 -39.5t33.5 -32t42 -21.5t45.5 -8q22 0 47.5 7
t47 21t36 34.5t14.5 48.5q0 21 -12.5 42.5t-32.5 41t-44 38t-47 33.5q1 1 -6 5.5t-12 7.5l-6 4q-30 19 -62.5 42.5t-59 50.5t-44 57.5t-17.5 65.5q0 39 18 70t47 53t64 33.5t70 11.5zM193 -69q6 21 27 21q14 0 23 -10t6 -24l-26 -89q-2 -8 -9.5 -14t-17.5 -6q-16 0 -24 11
t-4 25z" />
    <glyph glyph-name="Scommaaccent" unicode="&#x218;" horiz-adv-x="467" 
d="M445 615v-11t1 -15q0 -2 1 -3zM246 726q33 0 64.5 -10.5t58 -29t46.5 -43.5t31 -54v-6q0 -2 0.5 -3t0.5 -3q0 -12 -7.5 -20.5t-21.5 -8.5q-11 0 -17 5t-11 16v-1q-17 46 -58 73t-90 27q-21 0 -45.5 -8t-44.5 -23t-33.5 -35t-13.5 -44q0 -21 14 -42.5t36.5 -43t50.5 -42.5
t57 -41q30 -20 62.5 -44t59.5 -52t44.5 -58t17.5 -61q0 -38 -16.5 -70t-44.5 -55t-64.5 -35.5t-75.5 -12.5q-32 0 -63.5 10.5t-57.5 29.5t-46 44.5t-30 55.5v-1q-2 6 -2 7q0 14 7.5 23t21.5 9q9 0 17 -5t12 -14h-1q6 -21 20 -39.5t33.5 -32t42 -21.5t45.5 -8q22 0 47.5 7
t47 21t36 34.5t14.5 48.5q0 21 -12.5 42.5t-32.5 41t-44 38t-47 33.5q1 1 -6 5.5t-12 7.5l-6 4q-30 19 -62.5 42.5t-59 50.5t-44 57.5t-17.5 65.5q0 39 18 70t47 53t64 33.5t70 11.5zM219 -69q6 21 27 21q14 0 23 -10t6 -24l-26 -89q-2 -8 -9.5 -14t-17.5 -6q-16 0 -24 11
t-4 25z" />
    <glyph glyph-name="Tcommaaccent" unicode="&#x162;" horiz-adv-x="440" 
d="M247 667v-638q0 -29 -29 -29q-11 0 -19.5 7.5t-8.5 21.5v638h-141q-12 0 -20.5 9t-8.5 20q0 12 8.5 20.5t20.5 8.5h342q12 0 20.5 -8.5t8.5 -20.5q0 -11 -8.5 -20t-20.5 -9h-144zM191 -70q6 21 27 21q14 0 23 -10t6 -24l-26 -89q-2 -8 -9.5 -14t-17.5 -6q-16 0 -24 11
t-4 25z" />
    <glyph glyph-name="Tbar" unicode="&#x166;" horiz-adv-x="420" 
d="M247 667v-291h68q11 0 20 -8.5t9 -19.5q0 -14 -9 -22.5t-20 -8.5h-68v-288q0 -29 -29 -29q-11 0 -19.5 7.5t-8.5 21.5v288h-71q-13 0 -21.5 8.5t-8.5 22.5q0 11 8.5 19.5t21.5 8.5h71v291h-141q-12 0 -20.5 9t-8.5 20q0 12 8.5 20.5t20.5 8.5h342q12 0 20.5 -8.5
t8.5 -20.5q0 -11 -8.5 -20t-20.5 -9h-144z" />
    <glyph glyph-name="rcommaaccent" unicode="&#x157;" horiz-adv-x="349" 
d="M154 29q0 -26 -28 -29h-3q-14 2 -21 8.5t-7 20.5v435q0 33 22 51t53.5 27t67 10.5t61.5 1.5q14 0 22 -9t8 -20q0 -14 -8 -22t-22 -8q-29 0 -68.5 -2t-76.5 -13v-451zM96 -70q6 21 27 21q14 0 23 -10t6 -24l-26 -89q-2 -8 -9.5 -14t-17.5 -6q-16 0 -24 11t-4 25z" />
    <glyph glyph-name="scommaaccent" unicode="&#x219;" horiz-adv-x="498" 
d="M438 426q2 -2 2 -4q0 -14 -6.5 -24t-22.5 -10q-11 0 -18 9.5t-14 20.5l-10 16t-10 13q-23 23 -52.5 35.5t-58.5 12.5q-26 0 -51.5 -9t-45.5 -24.5t-32.5 -35.5t-12.5 -42q0 -12 9 -20t24 -14t36 -11t45 -10q36 -8 77 -18.5t75 -28t56.5 -44t22.5 -65.5q0 -40 -18.5 -72
t-47.5 -54t-65 -33.5t-71 -11.5q-38 0 -71 12t-59.5 33.5t-44.5 50.5t-25 62q-2 4 -2 6q0 14 8 24t22 10q9 0 17.5 -7.5t11.5 -16.5l-1 1q11 -51 49.5 -83.5t93.5 -32.5q26 0 52 8t46.5 23t33 35.5t12.5 45.5q0 23 -13.5 38.5t-36 26.5t-51.5 18t-60 14q-33 7 -65.5 15
t-58.5 20.5t-42.5 31.5t-16.5 47q0 40 18 71.5t47 53.5t65 33.5t73 11.5q63 0 114.5 -35t73.5 -92zM223 -70q6 21 27 21q14 0 23 -10t6 -24l-26 -89q-2 -8 -9.5 -14t-17.5 -6q-16 0 -24 11t-4 25z" />
    <glyph glyph-name="tcommaaccent" unicode="&#x163;" horiz-adv-x="320" 
d="M66 709q0 13 9 21t20 8q13 0 21.5 -8t8.5 -21v-156h146q11 0 20 -8.5t9 -21.5q0 -12 -9 -20.5t-20 -8.5h-146v-292q0 -30 11 -56t31 -45.5t46.5 -30.5t58.5 -11q11 0 19.5 -8.5t8.5 -22.5q0 -12 -9 -20t-20 -8q-42 0 -79.5 16t-65 43.5t-44 64t-16.5 78.5v507zM163 -70
q6 21 27 21q14 0 23 -10t6 -24l-26 -89q-2 -8 -9.5 -14t-17.5 -6q-16 0 -24 11t-4 25z" />
    <glyph glyph-name="questiondown" unicode="&#xbf;" horiz-adv-x="428" 
d="M185 576q0 12 8.5 18t21.5 6q28 0 31 -24v-59q0 -19 -6.5 -36t-18 -33t-25.5 -32t-29 -32q-18 -18 -35 -37t-30.5 -39.5t-21.5 -43.5t-8 -50q0 -32 9.5 -60.5t27.5 -50t44 -34.5t59 -13q55 0 93 24t56 73q4 10 15 14t22 2t17.5 -11.5t2.5 -26.5q-23 -63 -77.5 -98
t-124.5 -35q-43 0 -80.5 16.5t-65 45t-43 68t-15.5 84.5q0 36 12 68.5t31 62.5t42.5 57t46.5 53q8 9 17 18.5t17 18.5q5 10 6 17t1 11v58zM255 685q0 -17 -12.5 -29t-29.5 -12t-28.5 12t-11.5 29t11.5 29t28.5 12t29.5 -12t12.5 -29z" />
    <glyph glyph-name="Lslash" unicode="&#x141;" horiz-adv-x="485" 
d="M86 696q0 12 8 20.5t21 8.5q12 0 20 -8.5t8 -20.5v-383q17 15 30 22t21 7q12 0 19.5 -6.5t7.5 -17.5q0 -14 -15 -24l-63 -46v-164q0 -14 5.5 -20t30.5 -6h278q11 0 19.5 -8.5t8.5 -19.5q0 -14 -8.5 -22t-19.5 -8h-278q-32 0 -50.5 6.5t-28 17.5t-12 26.5t-2.5 33.5v113
q-15 -5 -27 -8t-15 -3q-12 0 -18 9t-6 18q0 15 13 26l53 38v419z" />
    <glyph glyph-name="Ldot" unicode="&#x13f;" horiz-adv-x="475" 
d="M447 58q13 0 20.5 -8.5t7.5 -19.5q0 -14 -7.5 -22t-20.5 -8h-277q-33 0 -51.5 6.5t-28 17.5t-12 26.5t-2.5 33.5v612q0 12 9 20.5t20 8.5q12 0 20 -8.5t8 -20.5v-612q0 -14 6 -20t31 -6h277zM363 457q0 -18 14 -31.5t32 -13.5t31 13.5t13 31.5t-13 31.5t-31 13.5
t-32 -13.5t-14 -31.5z" />
    <glyph glyph-name="Abreve" unicode="&#x102;" horiz-adv-x="440" 
d="M220 841q26 0 53 11.5t44 32.5q8 8 19 8q10 0 15.5 -7t5.5 -15q0 -16 -14 -29.5t-35 -24t-45 -16.5t-43 -6q-18 0 -41.5 5.5t-44 16t-35 24t-14.5 30.5q0 8 5 15t16 7t19 -8l-1 3q16 -24 42 -35.5t54 -11.5zM418 39q0 -3 0.5 -4.5t0.5 -3.5t1 -2q0 -11 -7.5 -19t-21.5 -8
q-9 0 -17.5 6t-10.5 16l-55 220h-176l-55 -220q-3 -10 -11 -16t-17 -6q-14 0 -21.5 9t-7.5 20v5l173 669q8 21 29 21q8 0 15 -6.5t10 -16.5v1zM292 301l-72 301l-73 -301h145z" />
    <glyph glyph-name="Ebreve" unicode="&#x114;" horiz-adv-x="485" 
d="M271 841q27 0 53.5 11.5t43.5 32.5q11 8 18 8q11 0 17 -7t6 -15q0 -16 -14.5 -29.5t-35.5 -24t-45 -16.5t-43 -6q-17 0 -40.5 5.5t-44.5 16t-36 24t-15 30.5q0 8 6 15t17 7q4 0 8.5 -2t7.5 -4q15 -25 42 -35.5t55 -10.5zM160 0q-30 0 -48.5 6t-28.5 17t-13.5 25.5
t-3.5 32.5v562q0 18 3.5 32.5t13.5 25.5t28.5 17t48.5 6h277q13 0 20.5 -8.5t7.5 -20.5q0 -26 -28 -26h-313v-246h228q12 0 20.5 -9t8.5 -20q0 -12 -8.5 -20.5t-20.5 -8.5h-228v-311h313q28 0 28 -25q0 -12 -7.5 -20.5t-20.5 -8.5h-277z" />
    <glyph glyph-name="Gbreve" unicode="&#x11e;" horiz-adv-x="486" 
d="M274 841q27 0 53.5 11.5t43.5 32.5q11 8 18 8q11 0 17 -7t6 -15q0 -16 -14.5 -29.5t-35.5 -24t-45 -16.5t-43 -6q-17 0 -40.5 5.5t-44.5 16t-36 24t-15 30.5q0 8 6.5 15t16.5 7q4 0 8.5 -2t7.5 -4q15 -25 42 -35.5t55 -10.5zM459 654q7 -8 7 -20q0 -11 -7 -19.5t-21 -8.5
q-7 0 -13.5 4t-14.5 11q-9 7 -21 15.5t-28.5 15t-38.5 11t-52 4.5q-28 0 -54.5 -9t-46.5 -25.5t-32.5 -39.5t-12.5 -52v-357q0 -14 8.5 -35.5t26 -41.5t44.5 -34.5t64 -14.5q32 0 68 3.5t74 10.5v292h-142q-14 0 -21.5 8.5t-7.5 20.5q0 11 7.5 20t21.5 9h171q13 0 20.5 -9
t7.5 -20v-304q0 -30 -19.5 -48t-48.5 -27t-61.5 -11.5t-57.5 -2.5h-12q-44 0 -80.5 16.5t-63.5 43t-42 59t-15 65.5v357q0 41 16.5 75t44 58t64 37t76.5 13q42 0 73.5 -6t54 -15.5t38 -22.5t26.5 -26z" />
    <glyph glyph-name="Ibreve" unicode="&#x12c;" horiz-adv-x="263" 
d="M135 841q27 0 54 11.5t44 32.5q8 8 18 8q11 0 16.5 -7t5.5 -15q0 -16 -14.5 -29.5t-35.5 -24t-45 -16.5t-43 -6q-17 0 -40 5.5t-44 16t-36 24t-15 30.5q0 8 5.5 15t16.5 7q10 0 18 -8l-1 3q17 -24 43 -35.5t53 -11.5zM106 696q0 12 9 20.5t20 8.5t20 -8.5t9 -20.5v-666
q0 -14 -9 -21.5t-20 -7.5t-20 7.5t-9 21.5v666z" />
    <glyph glyph-name="Ubreve" unicode="&#x16c;" 
d="M268 841q27 0 53.5 11.5t43.5 32.5q8 8 18 8t16.5 -7t6.5 -15q0 -16 -14.5 -29.5t-35.5 -24t-45 -16.5t-43 -6q-18 0 -41.5 5.5t-44.5 16t-35.5 24t-14.5 30.5q0 8 6 15t17 7q9 0 17 -8l-1 3q17 -24 43 -35.5t54 -11.5zM124 203q0 -30 12 -56.5t31.5 -46t45.5 -30.5
t54 -11t54 11.5t45.5 31t31 45t11.5 54.5v495q0 12 8.5 20.5t20.5 8.5q13 0 20.5 -8.5t7.5 -20.5v-495q0 -42 -15.5 -78.5t-42.5 -63.5t-63.5 -42.5t-77.5 -15.5t-77 15t-64 41.5t-44 62t-16 76.5v500q0 12 9 20.5t21 8.5t20 -8.5t8 -20.5v-493z" />
    <glyph glyph-name="abreve" unicode="&#x103;" horiz-adv-x="475" 
d="M240 674q28 0 55 12t44 34q10 7 18 7q11 0 17.5 -6t6.5 -17q0 -16 -14.5 -29.5t-36 -24t-46 -16.5t-44.5 -6q-18 0 -42 5.5t-45 16t-36 24t-15 30.5q0 11 6.5 17t16.5 6q5 0 10 -1.5t9 -5.5l-1 3q16 -25 42.5 -37t54.5 -12zM369 365q0 28 -7.5 52t-25 41t-45.5 26.5
t-69 8.5q-35 -2 -61 -14.5t-49 -38.5q-5 -5 -11 -8t-11 -3q-12 0 -20.5 9.5t-8.5 20.5q0 12 5 17q34 37 73.5 56t90.5 19q53 0 90.5 -15.5t61.5 -43t35 -64t11 -78.5v-258q0 -35 -22.5 -53.5t-55 -27t-68 -10t-62.5 -1.5q-39 0 -75 14.5t-64 39.5t-44.5 59.5t-16.5 74.5
q0 37 17.5 69t46 56t65.5 38t77 14h143zM369 307h-143q-25 0 -50 -9t-46 -24.5t-35 -37.5t-16 -48q0 -33 13.5 -57t35.5 -40t50 -24t56 -8t64.5 4t70.5 12v232z" />
    <glyph glyph-name="ebreve" unicode="&#x115;" horiz-adv-x="495" 
d="M271 674q27 0 54 12t44 34q7 7 19 7q11 0 17 -6.5t6 -16.5q0 -16 -14.5 -29.5t-35.5 -24t-45.5 -16.5t-44.5 -6q-18 0 -42 5.5t-45.5 16t-36 24t-14.5 30.5q0 9 5.5 16t16.5 7q10 0 18 -6q15 -24 42 -35.5t56 -11.5zM125 305h291q0 39 -10 72.5t-29 59t-46 40t-60 14.5
q-31 0 -58 -11.5t-46.5 -31t-30.5 -46t-11 -57.5v-40zM380 108q7 9 20 9q12 0 20.5 -9t8.5 -21q0 -4 -0.5 -8t-3.5 -7q-69 -72 -154 -72q-42 0 -79.5 15.5t-65 43t-44 64.5t-16.5 79v143q0 42 16.5 79.5t44 65t65 44t79.5 16.5q43 0 80 -17t64.5 -47t43.5 -70.5t16 -87.5
q0 -39 -23 -60t-63 -21h-264v-45q0 -28 12 -54t32 -45.5t46.5 -31.5t55.5 -12q43 0 69.5 16t39.5 33z" />
    <glyph glyph-name="gbreve" unicode="&#x11f;" horiz-adv-x="520" 
d="M265 674q27 0 54.5 12t44.5 34q10 7 18 7q11 0 17 -6.5t6 -16.5q0 -16 -14.5 -29.5t-35.5 -24t-45.5 -16.5t-44.5 -6q-18 0 -42 5.5t-45 16t-36 24t-15 30.5q0 23 23 23q11 0 19 -7l-1 3q16 -25 42.5 -37t54.5 -12zM395 480q-33 8 -68.5 11.5t-63.5 3.5h-12q-29 0 -55 -9
t-46 -25.5t-32 -40.5t-12 -53v-179q0 -31 12 -55t32 -40.5t46 -25t55 -8.5h10q29 0 65.5 4t68.5 12v405zM454 19q0 -39 -9 -75.5t-32 -65t-62 -45.5t-100 -17q-28 0 -57 9t-53 22.5t-39 29.5t-15 31q0 12 8.5 21t21.5 9q6 0 13 -5t16 -13q17 -15 40.5 -30.5t64.5 -15.5
q39 0 65.5 7t43.5 22t25 37.5t10 52.5l2 29l-21 -11q-1 -1 -3 -1q-38 -8 -66 -9t-49 -1h-7q-40 0 -77 13.5t-65 38.5t-45 59.5t-17 76.5v179q0 43 17 77.5t45 59t65 37.5t77 13q25 0 60 -2t66.5 -10.5t54 -26t22.5 -49.5v-447z" />
    <glyph glyph-name="obreve" unicode="&#x14f;" horiz-adv-x="502" 
d="M251 674q27 0 54 12t44 34q7 7 19 7q9 0 16 -6t7 -17q0 -16 -14.5 -29.5t-35.5 -24t-45.5 -16.5t-44.5 -6q-18 0 -42 6t-45.5 16t-36.5 24t-15 30q0 10 6.5 16.5t16.5 6.5q5 0 9.5 -1.5t7.5 -3.5q15 -24 42 -36t57 -12zM47 344q0 43 16.5 80.5t44 65.5t65 44t79.5 16
t79 -16t64.5 -44t43.5 -65.5t16 -80.5v-139q0 -42 -16 -79.5t-43.5 -65.5t-64.5 -44t-79 -16t-79.5 16t-65 44t-44 65.5t-16.5 79.5v139zM106 205q0 -31 11.5 -57.5t31 -46t46 -31t57.5 -11.5q28 0 54 11.5t46 31t32.5 46t12.5 57.5v140q0 33 -12 59.5t-32 46t-46.5 30
t-54.5 10.5q-29 0 -55.5 -10.5t-46.5 -29.5t-32 -46.5t-12 -60.5v-139z" />
    <glyph glyph-name="ubreve" unicode="&#x16d;" horiz-adv-x="538" 
d="M266 674q27 0 54.5 12t44.5 34q7 7 18 7t17 -6.5t6 -16.5q0 -16 -14.5 -29.5t-35.5 -24t-45.5 -16.5t-44.5 -6q-18 0 -42 5.5t-45.5 16t-36 24t-14.5 30.5q0 9 6 16t17 7q9 0 17 -6q15 -24 42.5 -35.5t55.5 -11.5zM413 527q0 12 8 20t21 8q14 0 22 -8t8 -20v-435
q0 -35 -22.5 -53.5t-54 -26.5t-67 -9.5t-60.5 -1.5q-41 0 -77.5 13.5t-64.5 38.5t-44 59.5t-16 76.5v335q0 14 7.5 22t21.5 8q11 0 19.5 -8t8.5 -22v-335q0 -34 14.5 -58.5t37.5 -40t52 -23t59 -7.5q28 0 59 3.5t51 7.5q2 0 8.5 0.5t8.5 0.5v455z" />
    <glyph glyph-name="ff" unicode="&#xfb00;" horiz-adv-x="661" 
d="M74 535q0 41 9.5 78t32.5 65t62.5 44.5t98.5 16.5q13 0 22 -8.5t9 -21.5q0 -12 -9 -20t-22 -8q-75 0 -107.5 -28t-34.5 -79v-21h142q13 0 22 -9t9 -20q0 -14 -9 -22t-22 -8h-145v-461q0 -13 -8 -22t-22 -9q-11 0 -19.5 9t-8.5 22v502zM407 535q0 41 9.5 78t32.5 65
t62.5 44.5t98.5 16.5q13 0 22 -8.5t9 -21.5q0 -12 -9 -20t-22 -8q-75 0 -107.5 -28t-34.5 -79v-21h142q13 0 22 -9t9 -20q0 -14 -9 -22t-22 -8h-145v-461q0 -13 -8 -22t-22 -9q-11 0 -19.5 9t-8.5 22v502z" />
    <glyph glyph-name="ffi" unicode="&#xfb03;" horiz-adv-x="756" 
d="M66 535q0 41 10 78t33 65t62 44.5t98 16.5q14 0 22 -8.5t8 -21.5q0 -12 -8 -20t-22 -8q-39 0 -66 -10t-44.5 -27.5t-25 -41t-7.5 -49.5h233q2 39 14 72.5t36 59t61 40t91 14.5q13 0 21.5 -8.5t8.5 -21.5q0 -12 -8.5 -20t-21.5 -8q-78 0 -110.5 -35.5t-32.5 -92.5h241
q10 0 16 -4.5t11 -11.5l3 -9l1 -2v-497q0 -12 -8 -20.5t-22 -8.5q-11 0 -20 8.5t-9 20.5v465h-215v-461q0 -13 -8 -22t-22 -9q-11 0 -20 9t-9 22v461h-232v-461q0 -13 -8 -22t-22 -9q-12 0 -20.5 9t-8.5 22v502z" />
    <glyph glyph-name="ffl" unicode="&#xfb04;" horiz-adv-x="784" 
d="M735 59q14 0 21.5 -8.5t7.5 -21.5q0 -12 -7.5 -20.5t-21.5 -8.5q-27 0 -45.5 8.5t-29.5 22t-15.5 30t-4.5 33.5v400h-230v-461q0 -13 -9 -22t-23 -9q-11 0 -19.5 9t-8.5 22v461h-225v-461q0 -13 -8.5 -22t-22.5 -9q-11 0 -19.5 9t-8.5 22v502q0 42 10 79t33.5 64.5t62 44
t96.5 16.5q14 0 23 -8.5t9 -21.5q0 -12 -9 -20t-23 -8q-38 0 -65 -10t-44.5 -27.5t-25 -41t-7.5 -49.5h224q2 39 14.5 73t36.5 59t61.5 39.5t90.5 14.5q13 0 22 -8.5t9 -21.5q0 -12 -9 -20t-22 -8q-39 0 -66 -10.5t-44 -28t-24.5 -41t-7.5 -48.5h229v156q0 11 8.5 19.5
t20.5 8.5q11 0 20 -8.5t9 -19.5v-607q0 -43 37 -43z" />
    <glyph glyph-name="fi" unicode="&#xfb01;" horiz-adv-x="464" 
d="M66 555q0 27 8.5 59t31.5 60t62 46.5t101 18.5q13 0 22 -8.5t9 -21.5q0 -12 -9 -20t-22 -8q-78 0 -110.5 -32.5t-31.5 -95.5h241q11 0 17 -4t9 -8.5t3.5 -9t0.5 -5.5v-497q0 -12 -7.5 -20.5t-21.5 -8.5q-11 0 -20 8.5t-9 20.5v465h-214v-461q0 -13 -9 -22t-23 -9
q-11 0 -19.5 9t-8.5 22v522z" />
    <glyph glyph-name="fl" unicode="&#xfb02;" horiz-adv-x="500" 
d="M451 59q11 0 20 -8.5t9 -21.5q0 -12 -9 -20.5t-20 -8.5q-28 0 -46.5 8.5t-29.5 22t-15.5 30t-4.5 33.5v400h-230v-461q0 -13 -9 -22t-22 -9q-12 0 -20 9t-8 22v505q0 46 11 83t35 63.5t62.5 40.5t93.5 14q14 0 22.5 -8.5t8.5 -21.5q0 -12 -8.5 -20t-22.5 -8
q-39 0 -66 -10t-44 -27.5t-24.5 -41t-7.5 -49.5h229v156q0 11 9 19.5t20 8.5q12 0 20.5 -8.5t8.5 -19.5v-607q0 -43 38 -43z" />
    <glyph glyph-name="Dcroat" unicode="&#x110;" horiz-adv-x="538" 
d="M91 635q0 33 21.5 51.5t52.5 27.5t66 11t61 2q39 0 74.5 -13.5t63.5 -37.5t44.5 -58t16.5 -75v-357q0 -42 -17 -76t-45 -58t-64 -37t-73 -13q-31 0 -66 2t-65 11t-50 27t-20 50v159h-41q-13 0 -21.5 8.5t-8.5 20.5q0 11 8.5 19.5t21.5 8.5h41v327zM149 92q0 -5 15 -11
t36.5 -10.5t46.5 -7.5t45 -3q27 0 52.5 9t45.5 25.5t32 39.5t12 52v357q0 33 -13.5 56.5t-35.5 39t-50 23t-58 7.5q-29 0 -61 -4t-52 -6q-2 0 -7.5 -0.5t-7.5 -0.5v-350h100q12 0 20.5 -8.5t8.5 -19.5q0 -12 -8.5 -20.5t-20.5 -8.5h-100v-159z" />
    <glyph glyph-name="IJ" unicode="&#x132;" horiz-adv-x="595" 
d="M66 696q0 11 7.5 19.5t18.5 9.5q1 -1 2 -1t2 -0.5t3 -0.5t4 0.5t3 0.5l347 1q31 0 50 -6t29 -16.5t13 -25t3 -32.5v-446q0 -41 -16 -77.5t-43 -63.5t-63.5 -42.5t-77.5 -15.5q-30 0 -56.5 9.5t-46 22t-32.5 23.5t-16 14q-6 6 -6 17t7.5 20t21.5 9q13 0 22 -9
q26 -26 50.5 -37t55.5 -11q28 0 54 11.5t45.5 31t31 45t11.5 53.5v167h-228q-11 0 -20 7.5t-9 21.5q0 11 9 20t20 9h227v221q0 22 -23 22h-343v-637q0 -14 -8.5 -21.5t-19.5 -7.5q-12 0 -20.5 7.5t-8.5 21.5v666z" />
    <glyph glyph-name="ij" unicode="&#x133;" horiz-adv-x="411" 
d="M66 522q0 11 8.5 20t20.5 9q14 0 21.5 -9t7.5 -20v-493q0 -12 -7.5 -20.5t-21.5 -8.5q-12 0 -20.5 8.5t-8.5 20.5v493zM343 28q0 -40 -9.5 -77t-32.5 -65t-62.5 -44.5t-99.5 -16.5q-14 0 -22.5 8.5t-8.5 20.5q0 13 8.5 21.5t22.5 8.5q48 0 77 11.5t44 31.5t19.5 46
t4.5 55v465h-56q-14 0 -22 8.5t-8 22.5q0 11 8 20t22 9h86q12 0 21 -9t9 -20zM270 686q0 15 11.5 26t26.5 11t25.5 -11t10.5 -26t-10.5 -26t-25.5 -11t-26.5 11t-11.5 26zM57 686q0 15 11.5 26t26.5 11t25.5 -11t10.5 -26t-10.5 -26t-25.5 -11t-26.5 11t-11.5 26z" />
    <glyph glyph-name="longs_t" unicode="&#xfb05;" horiz-adv-x="624" 
d="M66 535q0 29 6.5 57.5t19 53.5t31 45t42.5 31q20 8 75.5 12.5t148.5 4.5q16 0 28.5 -6.5t12.5 -23.5v-156h144q14 0 22 -8.5t8 -21.5q0 -12 -8 -20.5t-22 -8.5h-144v-292q0 -30 11 -56t30.5 -45.5t46 -30.5t57.5 -11q12 0 20.5 -8.5t8.5 -22.5q0 -12 -8.5 -20t-21.5 -8
q-42 0 -78.5 16t-64.5 43.5t-44 64t-16 78.5v479q-75 -2 -119 -5t-56 -7q-38 -14 -54.5 -40.5t-15.5 -75.5h143q13 0 21.5 -9t8.5 -20q0 -14 -8.5 -22t-21.5 -8h-144v-461q0 -13 -8.5 -22t-21.5 -9q-12 0 -20.5 9t-8.5 22v502z" />
    <glyph glyph-name="Eng" unicode="&#x14a;" horiz-adv-x="530" 
d="M66 693q0 11 9 20t20 9q18 0 29 -26l283 -542v539q0 11 8.5 20t20.5 9q11 0 19.5 -9t8.5 -20v-672q0 -44 -10.5 -81t-33.5 -63.5t-61 -41.5t-93 -15q-14 0 -22 8.5t-8 21.5q0 11 8 19.5t22 8.5q63 0 102 29t39 77v37l-285 549l1 -543q0 -14 -8 -21.5t-20 -7.5
q-11 0 -20 7.5t-9 21.5v666z" />
    <glyph glyph-name="eng" unicode="&#x14b;" horiz-adv-x="539" 
d="M415 369q0 33 -14.5 57t-37.5 40t-52 24t-58 8q-15 0 -33 -1.5t-36 -4t-34 -5t-25 -5.5v-451q0 -11 -7.5 -20t-21.5 -9t-22 9t-8 20v435q0 33 22.5 51t54 27t66.5 10.5t61 1.5q41 0 78 -14t64.5 -38.5t44 -59t16.5 -75.5v-354q0 -4 -0.5 -7t-0.5 -6q-2 -17 -4 -33t-5 -28
v1q-8 -27 -22.5 -50t-37.5 -39.5t-56 -26t-77 -9.5q-13 0 -21.5 8.5t-8.5 22.5q0 11 8.5 19.5t21.5 8.5q64 0 104 30.5t40 76.5z" />
    <glyph glyph-name="s_t" unicode="&#xfb06;" horiz-adv-x="777" 
d="M524 709q0 13 8.5 21t20.5 8t21 -8t9 -21v-155l145 -1q12 0 20.5 -8.5t8.5 -21.5q0 -12 -8.5 -20.5t-20.5 -8.5h-145v-292q0 -30 11 -56t30.5 -45.5t46 -30.5t58.5 -11q12 0 20 -8.5t8 -22.5q0 -12 -8.5 -20t-20.5 -8q-42 0 -79 16t-65 43.5t-44 64t-16 78.5v292h-283
q-36 0 -61.5 -9.5t-42 -24.5t-24 -32.5t-7.5 -33.5q0 -20 27.5 -37t65.5 -24l34 -6q39 -7 77.5 -18.5t69.5 -29.5t50.5 -44t19.5 -62q0 -40 -18.5 -72t-47.5 -54t-65 -33.5t-71 -11.5q-37 0 -70 13t-60 35.5t-45.5 53t-25.5 64.5v2q0 13 8 21.5t22 8.5q8 0 17 -7.5t12 -16.5
l-1 1q5 -25 18.5 -46t32.5 -36.5t42 -24.5t49 -9t52 8t46.5 23t33 35.5t12.5 45.5q0 23 -13.5 38.5t-36 26.5t-51.5 18t-60 14q-33 7 -65.5 15t-58.5 20.5t-42 31.5t-16 47q0 40 18 71.5t46.5 53.5t64.5 33.5t73 11.5h274v155z" />
    <glyph glyph-name="tbar" unicode="&#x167;" horiz-adv-x="320" 
d="M66 709q0 13 9 21t20 8q13 0 21.5 -8t8.5 -21v-156h146q11 0 20 -8.5t9 -21.5q0 -12 -9 -20.5t-20 -8.5h-146v-292q0 -30 11 -56t31 -45.5t46.5 -30.5t58.5 -11q11 0 19.5 -8.5t8.5 -22.5q0 -12 -9 -20t-20 -8q-42 0 -79.5 16t-65 43.5t-44 64t-16.5 78.5v507z" />
    <glyph glyph-name="lira" unicode="&#x20a4;" horiz-adv-x="524" 
d="M77 220q-14 0 -22 7.5t-8 18.5q0 10 8 17.5t22 7.5h40v135h-40q-14 0 -22 7.5t-8 18.5t8 17.5t22 6.5h40v253q0 13 8.5 21t21.5 8q12 0 20 -8t8 -21v-253h164q13 0 21.5 -6.5t8.5 -17.5t-8.5 -18.5t-21.5 -7.5h-164v-135h164q13 0 21.5 -7.5t8.5 -17.5q0 -11 -8.5 -18.5
t-21.5 -7.5h-164v-135q0 -11 6 -18.5t32 -7.5h282q13 0 21 -8.5t8 -20.5q0 -14 -8 -22t-21 -8h-282q-34 0 -53 6.5t-28.5 17.5t-12 27t-2.5 34v135h-40z" />
    <glyph glyph-name="Obreve" unicode="&#x14e;" 
d="M268 841q26 0 53 11.5t44 32.5q8 8 18 8t16 -7t6 -15q0 -16 -14.5 -29.5t-35.5 -24t-44.5 -16.5t-42.5 -6q-18 0 -41.5 5.5t-44.5 16t-35.5 24t-14.5 30.5q0 8 5.5 15t16.5 7q10 0 18 -8l-1 3q17 -24 43 -35.5t54 -11.5zM66 522q0 42 14.5 78.5t41.5 63.5t64 43t82 16
q41 0 77 -16t63 -43t42.5 -64t15.5 -79v-322q0 -41 -15.5 -77.5t-42.5 -63.5t-63 -42.5t-77 -15.5t-77.5 15.5t-64.5 42t-44 61t-16 73.5v330zM124 197q0 -28 12 -53.5t31.5 -44.5t45.5 -30t54 -11t53.5 11.5t45 30.5t31.5 44.5t12 53.5v324q0 31 -11 57.5t-30 46t-45 30.5
t-56 11t-56 -11.5t-45.5 -31.5t-30.5 -46.5t-11 -55.5v-325z" />
    <glyph glyph-name="Otilde" unicode="&#xd5;" 
d="M66 522q0 42 14.5 78.5t41.5 63.5t64 43t82 16q41 0 77 -16t63 -43t42.5 -64t15.5 -79v-322q0 -41 -15.5 -77.5t-42.5 -63.5t-63 -42.5t-77 -15.5t-77.5 15.5t-64.5 42t-44 61t-16 73.5v330zM124 197q0 -28 12 -53.5t31.5 -44.5t45.5 -30t54 -11t53.5 11.5t45 30.5
t31.5 44.5t12 53.5v324q0 31 -11 57.5t-30 46t-45 30.5t-56 11t-56 -11.5t-45.5 -31.5t-30.5 -46.5t-11 -55.5v-325zM323 829q17 0 29 7.5t20 17t13.5 17t9.5 7.5q27 0 27 -21q0 -16 -8 -30.5t-21 -26t-30 -18t-35 -6.5q-20 0 -37.5 7.5t-37.5 21.5q-10 7 -20 13.5t-20 6.5
q-17 0 -29 -7.5t-20 -17t-13.5 -17t-9.5 -7.5q-27 0 -27 21q0 16 8 30.5t21 26t30 18t35 6.5q21 0 37 -7.5t29.5 -16.5t25 -16.5t23.5 -8.5z" />
    <glyph glyph-name="Atilde" unicode="&#xc3;" horiz-adv-x="440" 
d="M418 39q0 -3 0.5 -4.5t0.5 -3.5t1 -2q0 -11 -7.5 -19t-21.5 -8q-9 0 -17.5 6t-10.5 16l-55 220h-176l-55 -220q-3 -10 -11 -16t-17 -6q-14 0 -21.5 9t-7.5 20v5l173 669q8 21 29 21q8 0 15 -6.5t10 -16.5v1zM292 301l-72 301l-73 -301h145zM268 829q17 0 29 7.5t20 17
t13.5 17t9.5 7.5q27 0 27 -21q0 -16 -8 -30.5t-21 -26t-30 -18t-35 -6.5q-20 0 -37.5 7.5t-37.5 21.5q-10 7 -20 13.5t-20 6.5q-17 0 -29 -7.5t-20 -17t-13.5 -17t-9.5 -7.5q-27 0 -27 21q0 16 8 30.5t21 26t30 18t35 6.5q21 0 37 -7.5t29.5 -16.5t25 -16.5t23.5 -8.5z" />
    <glyph glyph-name="Itilde" unicode="&#x128;" horiz-adv-x="298" 
d="M130 696q0 12 9 20.5t20 8.5q12 0 20.5 -8.5t8.5 -20.5v-666q0 -14 -8.5 -21.5t-20.5 -7.5q-11 0 -20 7.5t-9 21.5v666zM209 829q17 0 29 7.5t20 17t13.5 17t9.5 7.5q27 0 27 -21q0 -16 -8 -30.5t-21 -26t-30 -18t-35 -6.5q-20 0 -37.5 7.5t-37.5 21.5q-10 7 -20 13.5
t-20 6.5q-17 0 -29 -7.5t-20 -17t-13.5 -17t-9.5 -7.5q-27 0 -27 21q0 16 8 30.5t21 26t30 18t35 6.5q21 0 37 -7.5t29.5 -16.5t25 -16.5t23.5 -8.5z" />
    <glyph glyph-name="Ntilde" unicode="&#xd1;" horiz-adv-x="511" 
d="M66 693q0 11 9 20t20 9q18 0 29 -26l283 -551v548q0 11 8.5 20t20.5 9q11 0 19.5 -9t8.5 -20v-666q0 -19 -8 -24t-12 -5q-20 0 -27 6t-9 11l-285 553v-541q0 -14 -8 -21.5t-20 -7.5q-11 0 -20 7.5t-9 21.5v666zM320 829q17 0 29 7.5t20 17t13.5 17t9.5 7.5q27 0 27 -21
q0 -16 -8 -30.5t-21 -26t-30 -18t-35 -6.5q-20 0 -37.5 7.5t-37.5 21.5q-10 7 -20 13.5t-20 6.5q-17 0 -29 -7.5t-20 -17t-13.5 -17t-9.5 -7.5q-27 0 -27 21q0 16 8 30.5t21 26t30 18t35 6.5q21 0 37 -7.5t29.5 -16.5t25 -16.5t23.5 -8.5z" />
    <glyph glyph-name="Utilde" unicode="&#x168;" 
d="M124 203q0 -30 12 -56.5t31.5 -46t45.5 -30.5t54 -11t54 11.5t45.5 31t31 45t11.5 54.5v495q0 12 8.5 20.5t20.5 8.5q13 0 20.5 -8.5t7.5 -20.5v-495q0 -42 -15.5 -78.5t-42.5 -63.5t-63.5 -42.5t-77.5 -15.5t-77 15t-64 41.5t-44 62t-16 76.5v500q0 12 9 20.5t21 8.5
t20 -8.5t8 -20.5v-493zM324 829q17 0 29 7.5t20 17t13.5 17t9.5 7.5q27 0 27 -21q0 -16 -8 -30.5t-21 -26t-30 -18t-35 -6.5q-20 0 -37.5 7.5t-37.5 21.5q-10 7 -20 13.5t-20 6.5q-17 0 -29 -7.5t-20 -17t-13.5 -17t-9.5 -7.5q-27 0 -27 21q0 16 8 30.5t21 26t30 18t35 6.5
q21 0 37 -7.5t29.5 -16.5t25 -16.5t23.5 -8.5z" />
    <glyph glyph-name="atilde" unicode="&#xe3;" horiz-adv-x="493" 
d="M396 365q0 28 -7.5 52t-25 41t-45.5 26.5t-69 8.5q-35 -2 -61 -14.5t-49 -38.5q-5 -5 -11 -8t-11 -3q-12 0 -20.5 9.5t-8.5 20.5q0 12 5 17q34 37 73.5 56t90.5 19q53 0 90.5 -15.5t61.5 -43t35 -64t11 -78.5v-258q0 -35 -22.5 -53.5t-55 -27t-68 -10t-62.5 -1.5
q-39 0 -75 14.5t-64 39.5t-44.5 59.5t-16.5 74.5q0 37 17.5 69t46 56t65.5 38t77 14h143zM396 307h-143q-25 0 -50 -9t-46 -24.5t-35 -37.5t-16 -48q0 -33 13.5 -57t35.5 -40t50 -24t56 -8t64.5 4t70.5 12v232zM321 675q17 0 29 7.5t20 17t13.5 17t9.5 7.5q27 0 27 -21
q0 -16 -8 -30.5t-21 -26t-30 -18t-35 -6.5q-20 0 -37.5 7.5t-37.5 21.5q-10 7 -20 13.5t-20 6.5q-17 0 -29 -7.5t-20 -17t-13.5 -17t-9.5 -7.5q-27 0 -27 21q0 16 8 30.5t21 26t30 18t35 6.5q21 0 37 -7.5t29.5 -16.5t25 -16.5t23.5 -8.5z" />
    <glyph glyph-name="itilde" unicode="&#x129;" horiz-adv-x="308" 
d="M129 523q0 11 9 20t20 9q13 0 21.5 -9t8.5 -20v-493q0 -11 -8.5 -20t-21.5 -9q-11 0 -20 9t-9 20v493zM209 675q17 0 29 7.5t20 17t13.5 17t9.5 7.5q27 0 27 -21q0 -16 -8 -30.5t-21 -26t-30 -18t-35 -6.5q-20 0 -37.5 7.5t-37.5 21.5q-10 7 -20 13.5t-20 6.5
q-17 0 -29 -7.5t-20 -17t-13.5 -17t-9.5 -7.5q-27 0 -27 21q0 16 8 30.5t21 26t30 18t35 6.5q21 0 37 -7.5t29.5 -16.5t25 -16.5t23.5 -8.5z" />
    <glyph glyph-name="ntilde" unicode="&#xf1;" horiz-adv-x="539" 
d="M125 31q0 -11 -7.5 -20t-21.5 -9t-22 9t-8 20v435q0 33 22.5 51t54 27t66.5 10.5t61 1.5q41 0 78 -14t64.5 -38.5t44 -59t16.5 -75.5v-335q0 -13 -8 -22t-22 -9q-11 0 -19.5 9t-8.5 22v335q0 33 -14.5 57t-37.5 40t-52 24t-58 8q-15 0 -33 -1.5t-36 -4t-34 -5t-25 -5.5
v-451zM311 675q17 0 29 7.5t20 17t13.5 17t9.5 7.5q27 0 27 -21q0 -16 -8 -30.5t-21 -26t-30 -18t-35 -6.5q-20 0 -37.5 7.5t-37.5 21.5q-10 7 -20 13.5t-20 6.5q-17 0 -29 -7.5t-20 -17t-13.5 -17t-9.5 -7.5q-27 0 -27 21q0 16 8 30.5t21 26t30 18t35 6.5q21 0 37 -7.5
t29.5 -16.5t25 -16.5t23.5 -8.5z" />
    <glyph glyph-name="otilde" unicode="&#xf5;" horiz-adv-x="502" 
d="M47 344q0 43 16.5 80.5t44 65.5t65 44t79.5 16t79 -16t64.5 -44t43.5 -65.5t16 -80.5v-139q0 -42 -16 -79.5t-43.5 -65.5t-64.5 -44t-79 -16t-79.5 16t-65 44t-44 65.5t-16.5 79.5v139zM106 205q0 -31 11.5 -57.5t31 -46t46 -31t57.5 -11.5q28 0 54 11.5t46 31t32.5 46
t12.5 57.5v140q0 33 -12 59.5t-32 46t-46.5 30t-54.5 10.5q-29 0 -55.5 -10.5t-46.5 -29.5t-32 -46.5t-12 -60.5v-139zM309 675q17 0 29 7.5t20 17t13.5 17t9.5 7.5q27 0 27 -21q0 -16 -8 -30.5t-21 -26t-30 -18t-35 -6.5q-20 0 -37.5 7.5t-37.5 21.5q-10 7 -20 13.5
t-20 6.5q-17 0 -29 -7.5t-20 -17t-13.5 -17t-9.5 -7.5q-27 0 -27 21q0 16 8 30.5t21 26t30 18t35 6.5q21 0 37 -7.5t29.5 -16.5t25 -16.5t23.5 -8.5z" />
    <glyph glyph-name="utilde" unicode="&#x169;" horiz-adv-x="538" 
d="M413 527q0 12 8 20t21 8q14 0 22 -8t8 -20v-435q0 -35 -22.5 -53.5t-54 -26.5t-67 -9.5t-60.5 -1.5q-41 0 -77.5 13.5t-64.5 38.5t-44 59.5t-16 76.5v335q0 14 7.5 22t21.5 8q11 0 19.5 -8t8.5 -22v-335q0 -34 14.5 -58.5t37.5 -40t52 -23t59 -7.5q28 0 59 3.5t51 7.5
q2 0 8.5 0.5t8.5 0.5v455zM328 675q17 0 29 7.5t20 17t13.5 17t9.5 7.5q27 0 27 -21q0 -16 -8 -30.5t-21 -26t-30 -18t-35 -6.5q-20 0 -37.5 7.5t-37.5 21.5q-10 7 -20 13.5t-20 6.5q-17 0 -29 -7.5t-20 -17t-13.5 -17t-9.5 -7.5q-27 0 -27 21q0 16 8 30.5t21 26t30 18
t35 6.5q21 0 37 -7.5t29.5 -16.5t25 -16.5t23.5 -8.5z" />
    <glyph glyph-name="Eth" unicode="&#xd0;" horiz-adv-x="577" 
d="M77 250q-14 0 -22 8.5t-8 20.5q0 11 8 19.5t22 8.5h34v328q0 33 21.5 51.5t52.5 27.5t65.5 11t60.5 2q39 0 75 -13.5t64 -37.5t44.5 -58t16.5 -75v-357q0 -42 -17 -76t-45.5 -58t-64.5 -37t-73 -13q-30 0 -65 2t-65 11t-50 27t-20 50v158h-34zM168 92q0 -5 15 -11
t37 -10.5t46.5 -7.5t44.5 -3q27 0 52.5 9t45.5 25.5t32 39.5t12 52v357q0 33 -13.5 56.5t-35 39t-49.5 23t-58 7.5q-29 0 -61.5 -4t-51.5 -6q-2 0 -8 -0.5t-8 -0.5v-351h113q12 0 20.5 -8.5t8.5 -19.5q0 -12 -8.5 -20.5t-20.5 -8.5h-113v-158z" />
    <glyph glyph-name="exclamdbl" unicode="&#x203c;" horiz-adv-x="387" 
d="M126 216q0 -13 -8 -21.5t-22 -8.5q-12 0 -21 8.5t-9 21.5v495q0 13 9 21.5t21 8.5q14 0 22 -8.5t8 -21.5v-495zM321 216q0 -13 -8 -21.5t-22 -8.5q-13 0 -21.5 8.5t-8.5 21.5v495q0 13 8.5 21.5t21.5 8.5q14 0 22 -8.5t8 -21.5v-495zM56 42q0 -17 12.5 -29t29.5 -12
t28.5 12t11.5 29t-11.5 29t-28.5 12t-29.5 -12t-12.5 -29zM253 42q0 -17 12.5 -29t29.5 -12t28.5 12t11.5 29t-11.5 29t-28.5 12t-29.5 -12t-12.5 -29z" />
    <glyph glyph-name="asciitilde" unicode="~" horiz-adv-x="568" 
d="M104 262q-6 -6 -17 -6q-9 0 -15 9t-6 17q0 15 14.5 28.5t35.5 23t44.5 15t41.5 5.5q22 0 41 -8t38 -17q20 -11 41 -18.5t46 -7.5q23 0 42.5 10.5t34.5 21.5q11 8 20 13.5t16 5.5q8 0 14.5 -8t6.5 -16q0 -14 -15 -27t-36 -23.5t-44.5 -17t-40.5 -6.5q-23 0 -43 8t-39 17
q-20 10 -40.5 18t-44.5 8q-29 0 -55.5 -13.5t-40.5 -33.5z" />
    <glyph glyph-name="approxequal" unicode="&#x2248;" horiz-adv-x="618" 
d="M109 351q-6 -6 -19 -6q-9 0 -16.5 10t-7.5 21q0 17 15.5 32t38.5 25.5t49.5 16.5t48.5 6q26 0 53 -10t44 -19q18 -9 40 -18t47 -9q27 0 49.5 12t39.5 25q11 7 20.5 13t16.5 6q10 0 17 -9t7 -19q0 -8 -5 -13q-28 -29 -66.5 -49.5t-80.5 -20.5q-26 0 -47.5 8.5t-41.5 18.5
q-23 11 -45.5 20t-50.5 9q-15 0 -31.5 -4t-31 -10.5t-26 -16t-17.5 -19.5zM111 158q-8 -9 -21 -9q-9 0 -16.5 10.5t-7.5 21.5q0 17 15.5 31.5t38.5 25t49.5 16.5t48.5 6q26 0 53 -10t44 -19q18 -9 40 -18t47 -9q27 0 49.5 12t39.5 25q11 7 20.5 13t16.5 6q10 0 17 -9t7 -19
q0 -8 -5 -13q-28 -30 -66.5 -50t-80.5 -20q-26 0 -47.5 8.5t-41.5 18.5q-23 11 -45.5 20t-50.5 9q-31 0 -62 -14.5t-43 -34.5z" />
    <glyph glyph-name="notequal" unicode="&#x2260;" horiz-adv-x="498" 
d="M92 142q-11 0 -18.5 7.5t-7.5 18.5t7.5 18t18.5 7h96l56 108h-152q-11 0 -18.5 7.5t-7.5 18.5t7.5 18.5t18.5 7.5h177q3 5 6.5 12.5t5.5 13.5q7 15 14.5 30.5t15.5 29t16 22t17 8.5q12 0 18.5 -8t6.5 -17q0 -6 -3 -12l-38 -79h78q11 0 18.5 -7.5t7.5 -18.5t-7.5 -18.5
t-18.5 -7.5h-105l-56 -108h161q11 0 18.5 -7t7.5 -18t-7.5 -18.5t-18.5 -7.5h-187q-3 -8 -6 -14.5t-4 -8.5q-6 -15 -13.5 -31t-16 -29.5t-17 -22.5t-16.5 -9q-11 0 -18 7.5t-7 17.5q0 5 2 13v-1l40 78h-71z" />
    <glyph glyph-name="lessequal" unicode="&#x2264;" horiz-adv-x="359" 
d="M15 442h1q-11 9 -12 23v6q0 5 4 12.5t9 12.5l-2 -1l275 218q4 6 17 6t21.5 -8t8.5 -21q0 -7 -3 -13t-7 -11l-249 -197q60 -48 124.5 -99t124.5 -99l-2 1q5 -5 8.5 -12.5t3.5 -12.5q0 -14 -8.5 -21t-21.5 -7q-12 0 -18 6zM30 78q-13 0 -21.5 7.5t-8.5 18.5q0 10 8.5 17.5
t21.5 7.5h280q12 0 20.5 -7.5t8.5 -17.5q0 -11 -8.5 -18.5t-20.5 -7.5h-280z" />
    <glyph glyph-name="greaterequal" unicode="&#x2265;" horiz-adv-x="359" 
d="M337 462q-1 -7 -4 -11.5t-7 -8.5h1l-274 -217q-6 -6 -19 -6q-11 0 -20.5 7t-9.5 21q0 5 4 12.5t9 12.5l-2 -1l249 198q-28 22 -60 47t-64.5 51t-64.5 51t-60 48q-11 11 -11 24t9.5 21t20.5 8q13 0 18 -6q69 -54 137.5 -109t137.5 -109l-2 1q5 -5 8.5 -12.5t3.5 -12.5v-9z
M30 78q-13 0 -21.5 7.5t-8.5 18.5q0 10 8.5 17.5t21.5 7.5h280q12 0 20.5 -7.5t8.5 -17.5q0 -11 -8.5 -18.5t-20.5 -7.5h-280z" />
    <glyph glyph-name="guillemotright" unicode="&#xbb;" horiz-adv-x="522" 
d="M502 272q-1 -12 -10 -18l-245 -196q-6 -5 -17 -5t-18.5 6.5t-7.5 17.5q0 10 9 21l225 179l-225 179q-9 9 -9 21q0 11 7.5 17.5t18.5 6.5t17 -5l245 -196l-2 1q12 -12 12 -22v-7zM297 273q-2 -13 -9 -19l-246 -196q-5 -5 -16 -5t-18.5 6.5t-7.5 17.5q0 10 9 21l225 179
l-225 179q-9 7 -9 21q0 11 7.5 17.5t18.5 6.5t16 -5l246 -196l-2 1q5 -5 8 -11t3 -11v-6z" />
    <glyph glyph-name="guillemotleft" unicode="&#xab;" horiz-adv-x="574" 
d="M29 251q-11 12 -9 29t13 24l-2 -1l273 218q7 6 19 6q13 0 21.5 -7t8.5 -21q0 -16 -10 -24l-249 -198q29 -23 65 -51.5t68 -54.5q29 -24 58.5 -47t57.5 -45l-2 1q5 -5 8.5 -12t3.5 -13q0 -12 -8.5 -20t-21.5 -8q-12 0 -19 6q-34 26 -68 54t-69 55zM250 251q-11 12 -9 29
t13 24l-2 -1l273 218q7 6 19 6q13 0 21.5 -7t8.5 -21q0 -16 -10 -24l-249 -198q29 -23 65 -51.5t68 -54.5q29 -24 58.5 -47t57.5 -45l-2 1q5 -5 8.5 -12t3.5 -13q0 -12 -8.5 -20t-21.5 -8q-12 0 -19 6q-34 26 -68 54t-69 55z" />
    <glyph glyph-name="ae" unicode="&#xe6;" horiz-adv-x="799" 
d="M224 0q-43 0 -80 17t-64.5 46.5t-43.5 70t-16 88.5q0 39 23 60t63 21h264v43q0 29 -12 55t-32 46t-46.5 32t-55.5 12q-43 0 -69.5 -16t-38.5 -33q-9 -9 -21 -9t-20.5 9t-8.5 20q0 5 0.5 9t3.5 7q70 72 154 72q22 0 47.5 -5.5t50 -17.5t45.5 -30t34 -43q13 25 32.5 43
t42.5 30t48.5 17.5t50.5 5.5q43 0 80 -17t64.5 -47t43.5 -70.5t16 -87.5q0 -39 -23 -60t-63 -21h-263v-45q0 -28 12 -54t32 -45.5t46 -31.5t55 -12q40 0 62.5 13.5t38.5 27.5q8 7 14.5 12t14.5 5q11 0 20 -9t9 -21q0 -4 -0.5 -8t-3.5 -7q-71 -72 -155 -72q-44 0 -74.5 11.5
t-50.5 26.5t-32 31t-18 25q-5 -9 -18.5 -25t-35 -31t-52 -26.5t-70.5 -11.5zM370 245h-291q0 -39 10 -72.5t29 -59t46 -40t60 -14.5q31 0 57.5 11t46 30.5t31 46t11.5 56.5v42zM430 305h290q0 39 -10 72.5t-29 59t-46 40t-60 14.5q-31 0 -57.5 -11.5t-46 -31t-30.5 -46
t-11 -57.5v-40z" />
    <glyph glyph-name="aeacute" unicode="&#x1fd;" horiz-adv-x="799" 
d="M224 0q-43 0 -80 17t-64.5 46.5t-43.5 70t-16 88.5q0 39 23 60t63 21h264v43q0 29 -12 55t-32 46t-46.5 32t-55.5 12q-43 0 -69.5 -16t-38.5 -33q-9 -9 -21 -9t-20.5 9t-8.5 20q0 5 0.5 9t3.5 7q70 72 154 72q22 0 47.5 -5.5t50 -17.5t45.5 -30t34 -43q13 25 32.5 43
t42.5 30t48.5 17.5t50.5 5.5q43 0 80 -17t64.5 -47t43.5 -70.5t16 -87.5q0 -39 -23 -60t-63 -21h-263v-45q0 -28 12 -54t32 -45.5t46 -31.5t55 -12q40 0 62.5 13.5t38.5 27.5q8 7 14.5 12t14.5 5q11 0 20 -9t9 -21q0 -4 -0.5 -8t-3.5 -7q-71 -72 -155 -72q-44 0 -74.5 11.5
t-50.5 26.5t-32 31t-18 25q-5 -9 -18.5 -25t-35 -31t-52 -26.5t-70.5 -11.5zM370 245h-291q0 -39 10 -72.5t29 -59t46 -40t60 -14.5q31 0 57.5 11t46 30.5t31 46t11.5 56.5v42zM430 305h290q0 39 -10 72.5t-29 59t-46 40t-60 14.5q-31 0 -57.5 -11.5t-46 -31t-30.5 -46
t-11 -57.5v-40zM393 743q6 21 27 21q14 0 23 -10t6 -24l-22 -89q-2 -8 -9.5 -14t-17.5 -6q-16 0 -24 11t-4 25z" />
    <glyph glyph-name="Aogonek" unicode="&#x104;" horiz-adv-x="530" 
d="M418 39q3 -6 3 -8q0 -6 -7 -17v-3l-1 -1l-5 -5t-7 -6q-5 -4 -9.5 -7.5t-9.5 -8.5q-12 -14 -18 -30t-6 -26q0 -35 17 -50.5t43 -15.5q21 0 39 10.5t28 28.5q3 6 15 6q1 0 3.5 -1t4.5 -2q1 -2 1.5 -3.5t0.5 -3.5q0 -18 -9.5 -31t-24 -21.5t-31 -13t-29.5 -4.5
q-39 0 -67 26.5t-28 74.5q0 13 12 34t42 51l-11 12l-56 220h-175l-56 -220q-2 -10 -10.5 -16t-17.5 -6q-13 0 -21 9t-8 20v3l173 671q8 21 29 21q8 0 16 -6t10 -16zM293 301l-72 306l-73 -306h145z" />
    <glyph glyph-name="ogonek" unicode="&#x2db;" horiz-adv-x="213" 
d="M100 -2q-17 -18 -29.5 -36t-12.5 -36q0 -36 18.5 -51.5t43.5 -15.5q21 0 39 10t28 29h-1q5 8 16 8q4 0 8 -2q1 -3 1.5 -6.5t1.5 -2.5q0 -18 -10 -31.5t-24.5 -22.5t-31 -13t-29.5 -4q-41 0 -69.5 27t-28.5 75q0 15 10.5 33.5t29.5 38.5h40z" />
    <glyph glyph-name="Eogonek" unicode="&#x118;" horiz-adv-x="507" 
d="M436 724q14 0 21.5 -8.5t7.5 -20.5q0 -13 -7.5 -21t-21.5 -8h-311v-243h227q11 0 20 -9t9 -20q0 -14 -9 -21.5t-20 -7.5h-228v-308h312q14 0 21.5 -8t7.5 -21q0 -29 -29 -29h-60q-2 -2 -6.5 -7t-6.5 -7q-12 -16 -20 -28.5t-8 -29.5q0 -35 17 -50.5t43 -15.5q21 0 39 10.5
t28 28.5q3 6 14 6q2 0 4.5 -1t4.5 -2q1 -2 1.5 -3.5t0.5 -3.5q0 -18 -9.5 -31t-24 -21.5t-31 -13t-29.5 -4.5q-39 0 -67 26.5t-28 74.5q0 12 12 30.5t35 41.5h-185q-33 0 -51.5 6.5t-28 17.5t-12 26t-2.5 33v561q0 18 2.5 32.5t12.5 25.5t28.5 17t50.5 6h276z" />
    <glyph glyph-name="Iogonek" unicode="&#x12e;" horiz-adv-x="237" 
d="M90 696q0 12 8.5 20.5t19.5 8.5q14 0 21.5 -8.5t7.5 -20.5v-666q0 -8 -7.5 -17.5t-17.5 -19.5q-13 -14 -25.5 -30t-12.5 -36q0 -35 17.5 -50.5t43.5 -15.5q19 0 37.5 10.5t28.5 28.5h-1q4 6 15 6q1 0 4.5 -1t5.5 -2q2 -4 2 -7q0 -18 -9.5 -31t-24 -21.5t-31 -13
t-29.5 -4.5q-39 0 -67.5 26.5t-28.5 74.5q0 14 14 35t34 44q-4 10 -4.5 16t-0.5 8v666z" />
    <glyph glyph-name="Uogonek" unicode="&#x172;" horiz-adv-x="523" 
d="M134 203q0 -30 12 -56.5t31.5 -46t45.5 -30.5t54 -11t54 11.5t45.5 31t31 45t11.5 54.5v495q0 12 8.5 20.5t20.5 8.5q13 0 20.5 -8.5t7.5 -20.5v-495q0 -35 -12 -66.5t-33 -57t-49.5 -44t-61.5 -27.5q-20 -20 -34 -40.5t-14 -38.5q0 -35 18.5 -50.5t41.5 -15.5
q21 0 39 10.5t28 28.5q3 6 15 6q1 0 3.5 -1t4.5 -2q1 -2 1.5 -3.5t0.5 -3.5q0 -18 -9.5 -31t-24 -21.5t-31 -13t-29.5 -4.5q-39 0 -67 26.5t-28 74.5q0 14 13 36q0 1 0.5 2.5t3 4.5t8.5 9l17 17q-42 9 -79 26t-64 42.5t-42.5 58.5t-15.5 73v500q0 12 9 20.5t21 8.5t20 -8.5
t8 -20.5v-493z" />
    <glyph glyph-name="aogonek" unicode="&#x105;" horiz-adv-x="493" 
d="M368 365q0 27 -7.5 50.5t-24.5 41t-45.5 27.5t-70.5 9q-36 -3 -61 -14.5t-48 -37.5h1q-12 -12 -23 -12q-12 0 -21 9.5t-9 20.5q0 12 5 17q34 37 73.5 56t90.5 19q54 0 92 -15.5t62 -43t35 -64t11 -78.5v-258q0 -23 -10.5 -38.5t-27.5 -26.5l-9 -8q-22 -22 -42 -46
t-20 -47q0 -36 18.5 -51.5t43.5 -15.5q21 0 39 10t28 29q2 5 6 6.5t9 1.5q3 0 7 -2q1 -3 1.5 -6.5t1.5 -2.5q0 -18 -10 -31.5t-24.5 -22.5t-30.5 -13t-29 -4q-41 0 -69.5 27t-28.5 75q0 6 3.5 15.5t8.5 19.5q9 18 19 29t21 21q-12 -4 -24 -6.5t-21.5 -3.5t-16 -1h-7.5h-45
q-40 0 -76 14.5t-63.5 39.5t-43.5 59.5t-16 74.5q0 37 17 69t45.5 56t65 38t76.5 14h144zM368 307h-144q-25 0 -50 -9t-45.5 -24.5t-34.5 -37.5t-15 -48q0 -33 13.5 -57t35.5 -40t49.5 -24t56.5 -8q28 0 64.5 4t69.5 12v232z" />
    <glyph glyph-name="eogonek" unicode="&#x119;" horiz-adv-x="476" 
d="M360 108q7 9 21 9q11 0 20 -9t9 -21q0 -20 -17.5 -35t-40.5 -26t-45 -17t-30 -7q-5 -5 -11.5 -12.5t-11.5 -12.5q-10 -12 -16 -25t-6 -26q0 -36 19 -51.5t44 -15.5q19 0 38 10t29 29q3 8 15 8q3 0 7 -2q1 -3 1.5 -6.5t1.5 -2.5q0 -18 -10 -31.5t-24.5 -22.5t-30.5 -13
t-29 -4q-42 0 -70 27t-28 75q0 20 13 41.5t29 33.5q-38 0 -72.5 16.5t-60.5 44.5t-41.5 64t-15.5 76v143q0 42 16 79.5t44 65t65 44t79 16.5q43 0 80 -17t65 -47t44 -70.5t16 -87.5q0 -39 -23.5 -60t-63.5 -21h-263v-45q0 -28 12 -54t32 -45.5t46 -31.5t55 -12q43 0 69.5 16
t39.5 33zM106 305h290q0 39 -10 72.5t-29 59t-46 40t-60 14.5q-31 0 -57.5 -11.5t-46 -31t-30.5 -46t-11 -57.5v-40z" />
    <glyph glyph-name="iogonek" unicode="&#x12f;" horiz-adv-x="239" 
d="M149 21l-7 -8zM88 522q0 11 8.5 20t21.5 9q11 0 20 -9t9 -20v-493q0 -6 -5 -16l-1 -1q-7 -6 -16.5 -16t-18.5 -21.5t-15 -24t-6 -24.5q0 -36 18.5 -51.5t43.5 -15.5q19 0 38 10t29 29q2 5 6 6.5t9 1.5q3 0 7 -2q1 -3 1.5 -6.5t1.5 -2.5q0 -18 -10 -31.5t-24.5 -22.5
t-31 -13t-29.5 -4q-40 0 -68.5 27t-28.5 75q0 15 12.5 37.5t35.5 41.5q-5 6 -6 14t-1 10v493zM80 690q0 15 11.5 26t26.5 11t25.5 -11t10.5 -26t-10.5 -26t-25.5 -11t-26.5 11t-11.5 26z" />
    <glyph glyph-name="uogonek" unicode="&#x173;" horiz-adv-x="577" 
d="M414 527q0 12 8 20t22 8t22 -8t8 -20v-435q0 -28 -14 -44t-40 -28l-14 -15q-19 -20 -34 -39t-15 -40q0 -36 18.5 -51.5t43.5 -15.5q21 0 39 10t29 29q3 8 14 8q4 0 8 -2q2 -6 2 -9q0 -18 -9.5 -31.5t-24 -22.5t-31 -13t-29.5 -4q-41 0 -69 27t-28 75q0 11 10 34
q2 2 9.5 14.5t27.5 34.5q-21 -5 -44.5 -7t-52.5 -1q-41 0 -78 13.5t-65 38.5t-44.5 59.5t-16.5 76.5v335q0 14 8.5 22t22.5 8q11 0 19.5 -8t8.5 -22v-335q0 -34 14.5 -58.5t37.5 -40t51.5 -23t57.5 -7.5t60.5 4t51.5 7q2 0 8 0.5t8 0.5v455z" />
    <glyph glyph-name="Hbar" unicode="&#x126;" horiz-adv-x="529" 
d="M66 695q0 12 8.5 20.5t19.5 8.5q14 0 21.5 -8.5t7.5 -20.5v-105h284v105q0 12 8 20.5t19 8.5q14 0 21.5 -8.5t7.5 -20.5v-666q0 -29 -29 -29q-11 0 -19 7.5t-8 21.5v335h-284v-335q0 -29 -29 -29q-11 0 -19.5 7.5t-8.5 21.5v666zM123 532v-110h284v110h-284z" />
    <glyph glyph-name="divide" unicode="&#xf7;" horiz-adv-x="601" 
d="M50 220q-13 0 -21.5 7.5t-8.5 17.5q0 11 8.5 18.5t21.5 7.5h502q12 0 20.5 -7.5t8.5 -18.5q0 -10 -8.5 -17.5t-20.5 -7.5h-502zM262 37q0 15 11.5 26t26.5 11t25.5 -11t10.5 -26t-10.5 -26t-25.5 -11t-26.5 11t-11.5 26zM262 457q0 15 11.5 26t26.5 11t25.5 -11t10.5 -26
t-10.5 -26t-25.5 -11t-26.5 11t-11.5 26z" />
    <glyph glyph-name="minus" unicode="&#x2212;" horiz-adv-x="542" 
d="M96 258q-14 0 -22 7.5t-8 17.5q0 11 8 18.5t22 7.5h349q13 0 22 -7.5t9 -18.5q0 -10 -9 -17.5t-22 -7.5h-349z" />
    <glyph glyph-name="guilsinglleft" unicode="&#x2039;" horiz-adv-x="275" 
d="M37 252q-31 30 -2 57l192 223h-1q3 3 16 3q11 0 20.5 -7t9.5 -21q0 -11 -2.5 -17.5t-7.5 -11.5l-172 -196l172 -190q13 -14 12.5 -27.5t-9 -22t-20 -10t-20.5 7.5z" />
    <glyph glyph-name="guilsinglright" unicode="&#x203a;" horiz-adv-x="271" 
d="M236 250l-185 -211q-11 -7 -22.5 -4t-18.5 12t-7 21.5t12 23.5l173 190l-173 196q-16 16 -14.5 29.5t10.5 21.5t21.5 9.5t19.5 -7.5l186 -218q25 -33 -2 -63z" />
    <glyph glyph-name="cedilla" unicode="&#xb8;" horiz-adv-x="213" 
d="M153 -2q19 -20 29.5 -38.5t10.5 -33.5q0 -48 -28.5 -75t-69.5 -27q-13 0 -29.5 4t-31 13t-24.5 22.5t-10 31.5q1 -1 1.5 2.5t1.5 6.5q4 2 8 2q11 0 16 -8h-1q10 -19 28 -29t39 -10q25 0 43.5 15.5t18.5 51.5q0 18 -12.5 36t-29.5 36h40z" />
    <glyph glyph-name="Ccedilla" unicode="&#xc7;" horiz-adv-x="443" 
d="M373 106q7 9 22 9q13 0 21 -9t6 -21q-1 -12 -14.5 -26t-31.5 -26.5t-37 -21.5t-30 -11q9 -6 16.5 -16t12 -21t7 -21t2.5 -15q0 -48 -28 -74.5t-67 -26.5q-14 0 -30.5 4.5t-31 13.5t-24 22.5t-9.5 31.5q0 6 14 8q2 -1 5.5 -2t5.5 -3q9 -17 27.5 -29t37.5 -12
q25 0 43.5 15.5t19.5 50.5q2 15 -5 27t-20 26l-19 21q-41 1 -77.5 17t-63.5 42.5t-43 62.5t-16 77v326q0 41 16 77.5t43 63.5t63.5 43t77.5 16q50 0 86 -20t64 -49l-1 1q8 -11 8 -18q0 -11 -8.5 -20t-19.5 -9q-10 0 -18 5.5t-16 13.5q-15 13 -36 25.5t-59 12.5
q-28 0 -53.5 -10t-45 -29t-31.5 -45t-12 -58v-326q0 -25 9.5 -50t27.5 -45.5t44.5 -33t60.5 -12.5t62 15.5t44 31.5z" />
    <glyph glyph-name="ccedilla" unicode="&#xe7;" horiz-adv-x="429" 
d="M359 108q7 9 21 9t21.5 -9t7.5 -20q0 -18 -14.5 -33t-35 -25.5t-42 -18t-34.5 -10.5q13 -16 24 -38.5t11 -36.5q0 -48 -28 -75t-69 -27q-14 0 -31 4t-31.5 13t-24.5 22.5t-10 32.5q0 9 14 9q7 -2 12 -6q10 -17 29 -29t38 -12q27 0 45 16t19 51q1 21 -24 51l-20 25
q-44 3 -79 21t-59.5 46t-38 63t-13.5 71v144q0 43 16 80t43 64.5t63.5 43.5t77.5 16q33 0 59 -8t44.5 -19t31 -23t19.5 -20q8 -7 8 -18t-8 -20t-21 -9q-8 0 -14 5t-13 11q-7 7 -16 14.5t-21 13.5t-28.5 10t-38.5 4q-29 0 -55 -11.5t-46 -31t-32 -46t-12 -56.5v-144
q0 -31 11.5 -57t32 -45t47 -30t56.5 -11q29 0 58.5 11.5t49.5 37.5z" />
    <glyph glyph-name="germandbls" unicode="&#xdf;" horiz-adv-x="524" 
d="M67 523q0 40 9 79t31.5 69t62 48.5t100.5 18.5q38 0 71.5 -14t58 -38.5t39 -57t14.5 -69.5q0 -39 -15.5 -76.5t-50.5 -67.5h-6q-3 -1 -6.5 -3t-7.5 -4q-4 -3 -9 -5q5 -3 9 -6q9 -5 14 -7q6 -2 9 -2q28 -22 45.5 -46.5t26.5 -48t12 -44.5t3 -35q0 -36 -12 -74.5t-38 -70
t-67 -51.5t-98 -20q-13 0 -21.5 8.5t-8.5 20.5q0 14 16.5 21t38.5 13q21 6 44 15t42.5 25.5t32 43.5t12.5 69q0 24 -7.5 49t-21.5 46t-34 36t-45 20q-10 2 -19.5 2t-18.5 1q-21 2 -36 5.5t-15 23.5q0 18 18 25t41 14q19 5 39.5 12t37.5 19.5t27.5 32.5t10.5 52
q0 29 -12 52.5t-31.5 40t-44.5 25.5t-52 9q-25 0 -48 -6.5t-41 -20.5t-28.5 -35.5t-10.5 -51.5l-2 -535q0 -11 -8.5 -19.5t-19.5 -8.5q-14 0 -22.5 8.5t-8.5 19.5z" />
    <glyph glyph-name="yen" unicode="&#xa5;" horiz-adv-x="451" 
d="M51 177q-13 0 -22 8t-9 17q0 11 9 18.5t22 7.5h135l-49 143h-86q-13 0 -22 7.5t-9 17.5q0 11 9 18.5t22 7.5h69l-98 268q-4 10 3 18.5t18 12.5t22 1.5t15 -12.5l105 -288h85l102 287q3 10 13.5 13.5t21.5 0.5t18.5 -11.5t4.5 -21.5l-96 -268h67q12 0 20.5 -7.5t8.5 -18.5
q0 -10 -8.5 -17.5t-20.5 -7.5h-83l-49 -143h132q12 0 20.5 -7.5t8.5 -18.5q0 -9 -8.5 -17t-20.5 -8h-143v-148q0 -12 -8 -20.5t-21 -8.5q-12 0 -20.5 8.5t-8.5 20.5v148h-149zM228 292l27 79h-55z" />
    <glyph glyph-name="hbar" unicode="&#x127;" horiz-adv-x="567" 
d="M76 625q-12 0 -20.5 7t-8.5 18t8.5 18t20.5 7h36q0 29 9 43.5t22 14.5q12 0 20 -13.5t8 -44.5h106q13 0 21.5 -7t8.5 -18t-8.5 -18t-21.5 -7h-106v-91q58 13 90.5 15t55.5 2q40 0 77 -13.5t65 -38.5t44.5 -59.5t16.5 -76.5v-337q0 -12 -9 -20t-20 -8q-14 0 -22 8t-8 20
v337q0 33 -13 57t-34.5 40t-49 24t-56.5 8q-27 0 -64.5 -4.5t-72.5 -11.5v-450q0 -14 -8 -21t-20 -7q-13 0 -22 7t-9 21v599h-36z" />
    <glyph glyph-name="dcroat" unicode="&#x111;" horiz-adv-x="520" 
d="M47 367q0 41 16.5 75.5t44.5 59t64.5 38.5t76.5 14q23 0 56.5 -2t88.5 -14v87h-39q-13 0 -21.5 7t-8.5 18t8.5 18t21.5 7h39v34q0 11 9 19.5t20 8.5q14 0 22.5 -9t8.5 -21v-32h37q11 0 20 -7t9 -18t-9 -18t-20 -7h-37v-537q0 -32 -20 -49.5t-50 -26t-64 -10.5t-62 -2h-9
q-40 0 -76.5 13.5t-64.5 38t-44.5 59t-16.5 76.5v180zM105 187q0 -29 12 -53t32 -40.5t46 -25.5t54 -9h24q12 0 29.5 1t34.5 3.5t32.5 6.5t24.5 9v400q-79 16 -146 16q-28 0 -54 -9.5t-45.5 -26.5t-31.5 -41t-12 -52v-179z" />
    <glyph glyph-name="zerosuperior" unicode="&#x2070;" horiz-adv-x="287" 
d="M20 602q0 26 9 48.5t25.5 39t39 26t50.5 9.5q25 0 47.5 -9.5t39 -26t26.5 -39.5t10 -49v-180q0 -25 -10 -47.5t-26.5 -39t-39 -26.5t-47.5 -10t-47.5 10t-39.5 26t-27 38t-10 45v185zM75 420q0 -14 6 -26t15.5 -21t21.5 -14t25 -5q14 0 26 5.5t21.5 14.5t15 21t5.5 25
v182q0 14 -5 26.5t-14.5 22t-21.5 15t-27 5.5q-14 0 -26.5 -5.5t-21.5 -15t-14.5 -22t-5.5 -26.5v-182z" />
    <glyph glyph-name="onesuperior" unicode="&#xb9;" horiz-adv-x="153" 
d="M87 331q0 -8 -5.5 -13.5t-13.5 -5.5q-7 0 -12.5 5.5t-5.5 13.5v326q-22 -28 -31 -28h-7q-12 7 -12 18q0 5 5 12l-1 -1l49 66q5 8 15 8q8 0 13.5 -5t5.5 -12v-384z" />
    <glyph glyph-name="twosuperior" unicode="&#xb2;" horiz-adv-x="285" 
d="M236 357q12 0 20.5 -8t8.5 -20q0 -11 -8.5 -19.5t-20.5 -8.5h-153q-17 0 -28.5 5.5t-19.5 14t-11.5 19.5t-3.5 21q0 12 3.5 23.5t10.5 19.5q9 11 25 26.5t35.5 33.5t40 37t37 37t27 33.5t10.5 26.5q0 17 -5 31t-14 23.5t-21 15t-26 5.5q-30 -1 -46 -13t-24 -33
q-3 -9 -10.5 -14t-15.5 -5q-13 0 -20 8.5t-7 19.5q0 4 1 8q7 21 19.5 36.5t28 26t34 15.5t38.5 5q26 0 48 -9t39 -26t27 -41t10 -53q0 -18 -11 -38.5t-28 -41.5t-38 -41.5t-42 -39.5t-39.5 -36.5t-29.5 -31.5q-3 -3 -3 -6q0 -6 9 -6h153z" />
    <glyph glyph-name="threesuperior" unicode="&#xb3;" horiz-adv-x="287" 
d="M80 626q-3 -9 -10 -14t-17 -5q-4 0 -9 2q-8 3 -13 10t-5 16q0 2 0.5 4.5t0.5 4.5q4 12 8.5 20.5t11.5 17.5q18 22 42.5 33.5t53.5 11.5q24 0 46 -8t39 -22.5t27.5 -35.5t10.5 -46t-12 -48.5t-30 -37.5q21 -17 32 -43t11 -57q0 -27 -8.5 -51t-24.5 -41t-38.5 -27.5
t-51.5 -10.5q-27 0 -49.5 9.5t-39 26t-26 39.5t-9.5 50v2q0 12 8 20t19 8q13 0 21 -8t8 -20q0 -16 5 -29t13.5 -22.5t21 -14.5t27.5 -5q17 0 30 5.5t21.5 15.5t12.5 23.5t4 29.5q0 15 -5 28.5t-13.5 23.5t-20.5 15.5t-26 5.5h-3q-12 0 -19.5 8.5t-7.5 19.5q0 12 7.5 19.5
t19.5 7.5q13 0 25 4t21 11t15 17.5t6 23.5q0 15 -6 25.5t-15 17.5t-21 11t-25 4q-23 0 -39.5 -12.5t-23.5 -32.5z" />
    <glyph glyph-name="foursuperior" unicode="&#x2074;" horiz-adv-x="290" 
d="M214 474q-2 0 -2 -1q-18 -3 -36 -3.5t-32 -0.5q-24 0 -46 8t-39 23q-18 14 -28.5 35.5t-10.5 47.5v112q0 12 8 20t20 8t20 -8t8 -20v-111q0 -13 5 -23.5t14 -18.5q10 -8 23 -12.5t26 -4.5q12 0 27.5 0.5t28.5 3.5q5 1 8.5 1.5t5.5 0.5v166q0 12 8 20t20 8q11 0 19.5 -8
t8.5 -20v-371q0 -12 -8.5 -20t-19.5 -8q-12 0 -20 8t-8 20v148z" />
    <glyph glyph-name="fivesuperior" unicode="&#x2075;" horiz-adv-x="286" 
d="M212 480q-3 29 -21.5 48.5t-47.5 19.5q-21 0 -37 -12.5t-25 -32.5l-8 -18q-6 -16 -25 -16q-13 0 -20.5 8.5t-7.5 19.5v202q0 12 8.5 19.5t19.5 7.5h160q12 0 20 -8t8 -19q0 -12 -8 -20t-20 -8h-132v-88q30 21 67 21q26 0 48.5 -10t39 -27.5t26 -40t9.5 -46.5v-56
q0 -26 -9.5 -48.5t-26.5 -39t-39.5 -26.5t-47.5 -10q-38 0 -69 22t-45 58q-2 6 -2 10q0 10 7.5 19t20.5 9q19 0 26 -18q8 -21 24.5 -33t37.5 -12q28 0 48.5 20.5t20.5 48.5v56z" />
    <glyph glyph-name="sixsuperior" unicode="&#x2076;" horiz-adv-x="278" 
d="M202 426v53q0 13 -5 25.5t-14 22t-21 15t-26 5.5q-11 0 -22 -3t-20 -8.5t-15 -13.5t-6 -19v-74q0 -15 4 -28.5t12 -23.5t20 -15.5t28 -5.5q14 0 26.5 5t21 15t13 22.5t4.5 27.5zM258 426q0 -26 -9 -48.5t-25.5 -40t-39 -27.5t-50.5 -10q-26 0 -47.5 10.5t-36.5 28
t-22.5 41t-7.5 49.5v184q0 26 10 46.5t26.5 35.5t38.5 23t46 8q19 0 37.5 -5.5t33.5 -16.5t26.5 -26t17.5 -35q1 -1 1.5 -4t0.5 -5q0 -10 -8 -18.5t-20 -8.5q-9 0 -16 5t-10 14q-7 22 -24 33.5t-39 11.5q-13 0 -24.5 -4t-21.5 -11t-15.5 -18.5t-5.5 -24.5v-27q17 9 31.5 13
t30.5 4q25 0 47 -10t39 -27t26.5 -39t9.5 -47v-54z" />
    <glyph glyph-name="sevensuperior" unicode="&#x2077;" horiz-adv-x="269" 
d="M51 670q-12 0 -20 8t-8 20q0 11 8 19.5t20 8.5h190q11 0 19.5 -7t8.5 -18q0 -5 -1.5 -9.5t-3.5 -8.5l-185 -368q-4 -7 -11 -11t-15 -4q-7 0 -15.5 2t-12.5 5q-3 3 -4 7t-1 9t1 8q0 1 84 169.5t84 169.5h-138z" />
    <glyph glyph-name="eightsuperior" unicode="&#x2078;" horiz-adv-x="287" 
d="M143 355q38 0 53 21t15 53q0 29 -17.5 51t-50.5 22q-31 0 -49.5 -22t-18.5 -51q0 -32 17 -53t51 -21zM143 299q-29 0 -52 10t-38.5 28t-24 41.5t-8.5 50.5q0 68 47 103q-16 16 -25 36.5t-9 45.5q0 23 8.5 43.5t23 36t34.5 24.5t44 9t44 -9t35 -24.5t23 -36t8 -43.5
q0 -25 -9 -45.5t-25 -36.5q48 -35 48 -103q0 -27 -8.5 -50.5t-24.5 -41.5t-39 -28t-52 -10zM143 558q24 0 39 15.5t15 40.5q0 23 -15 40t-39 17q-23 0 -39 -17t-16 -40q0 -25 16 -40.5t39 -15.5z" />
    <glyph glyph-name="ninesuperior" unicode="&#x2079;" horiz-adv-x="280" 
d="M76 603v-54q0 -13 5 -25.5t14.5 -22.5t21.5 -15t26 -5q10 0 21.5 3t20.5 8.5t14.5 13.5t5.5 18v75q0 16 -3.5 29.5t-11.5 23t-20.5 15.5t-29.5 6q-13 0 -25 -5.5t-20.5 -15t-13.5 -22t-5 -27.5zM20 603q0 25 9 48t25.5 40.5t39 27.5t49.5 10q28 0 49.5 -10.5t36.5 -28
t23 -41.5t8 -50v-185q0 -26 -10 -46.5t-27.5 -35.5t-39.5 -23.5t-45 -8.5q-21 0 -38.5 6t-33 16.5t-27 26.5t-18.5 35q0 2 -0.5 4.5t-0.5 4.5q0 10 8 19t20 9q9 0 16 -5t10 -15q7 -22 24.5 -33.5t39.5 -11.5q12 0 24 4t21.5 11.5t15.5 18t6 25.5v27q-17 -9 -32 -13t-30 -4
q-26 0 -48 10t-39 27t-26.5 39t-9.5 47v55z" />
    <glyph glyph-name="parenleftsuperior" unicode="&#x207d;" horiz-adv-x="146" 
d="M70 391q0 -10 4 -18.5t11 -14.5q8 -7 18 -10.5t21 -3.5q9 0 15.5 -6.5t6.5 -15.5t-6.5 -15.5t-15.5 -6.5q-19 0 -39.5 6t-30.5 18q-14 12 -24 29t-10 38v243q0 21 8.5 37.5t22.5 29.5q16 11 33.5 17.5t39.5 6.5q9 0 15.5 -6.5t6.5 -15.5q0 -10 -6.5 -16.5t-15.5 -6.5
q-11 0 -21 -3.5t-18 -9.5q-7 -6 -11 -14.5t-4 -19.5v-242z" />
    <glyph glyph-name="parenrightsuperior" unicode="&#x207e;" horiz-adv-x="149" 
d="M76 633q0 11 -4 19.5t-11 14.5q-8 6 -18 9.5t-21 3.5q-9 0 -15.5 6.5t-6.5 16.5q0 9 6.5 15.5t15.5 6.5q28 0 45.5 -6.5t30.5 -17.5q14 -13 21.5 -29.5t9.5 -37.5v-243q0 -21 -9.5 -38t-21.5 -29q-13 -12 -30.5 -18t-45.5 -6q-9 0 -15.5 6.5t-6.5 15.5t6.5 15.5t15.5 6.5
q11 0 21 3.5t18 10.5q7 6 11 14.5t4 18.5v242z" />
    <glyph glyph-name="zeroinferior" unicode="&#x2080;" horiz-adv-x="287" 
d="M20 305q0 26 9 48.5t25.5 39t39 26t50.5 9.5q25 0 47.5 -9.5t39 -26t26.5 -39.5t10 -49v-180q0 -25 -10 -47.5t-26.5 -39t-39 -26.5t-47.5 -10t-47.5 10t-39.5 26t-27 38t-10 45v185zM75 123q0 -14 6 -26t15.5 -21t21.5 -14t25 -5q14 0 26 5.5t21.5 14.5t15 21t5.5 25
v182q0 14 -5 26.5t-14.5 22t-21.5 15t-27 5.5q-14 0 -26.5 -5.5t-21.5 -15t-14.5 -22t-5.5 -26.5v-182z" />
    <glyph glyph-name="oneinferior" unicode="&#x2081;" horiz-adv-x="169" 
d="M103 27q0 -12 -8 -20t-20 -8q-11 0 -19 8t-8 20v286q-8 -9 -20 -9q-5 0 -9 1t-8 4q-6 4 -8.5 9.5t-2.5 13.5q0 9 5 16l48 64q3 6 9 9t13 3q12 0 20 -8t8 -19v-370z" />
    <glyph glyph-name="twoinferior" unicode="&#x2082;" horiz-adv-x="285" 
d="M236 57q12 0 20.5 -8t8.5 -20q0 -11 -8.5 -19.5t-20.5 -8.5h-153q-17 0 -28.5 5.5t-19.5 14t-11.5 19.5t-3.5 21q0 12 3.5 23.5t10.5 19.5q9 11 25 26.5t35.5 33.5t40 37t37 37t27 33.5t10.5 26.5q0 17 -5 31t-14 23.5t-21 15t-26 5.5q-30 -1 -46 -13t-24 -33
q-3 -9 -10.5 -14t-15.5 -5q-13 0 -20 8.5t-7 19.5q0 4 1 8q7 21 19.5 36.5t28 26t34 15.5t38.5 5q26 0 48 -9t39 -26t27 -41t10 -53q0 -18 -11 -38.5t-28 -41.5t-38 -41.5t-42 -39.5t-39.5 -36.5t-29.5 -31.5q-3 -3 -3 -6q0 -6 9 -6h153z" />
    <glyph glyph-name="threeinferior" unicode="&#x2083;" horiz-adv-x="287" 
d="M80 327q-3 -9 -10 -14t-17 -5q-4 0 -9 2q-8 3 -13 10t-5 16q0 2 0.5 4.5t0.5 4.5q4 12 8.5 20.5t11.5 17.5q18 22 42.5 33.5t53.5 11.5q24 0 46 -8t39 -22.5t27.5 -35.5t10.5 -46t-12 -48.5t-30 -37.5q21 -17 32 -43t11 -57q0 -27 -8.5 -51t-24.5 -41t-38.5 -27.5
t-51.5 -10.5q-27 0 -49.5 9.5t-39 26t-26 39.5t-9.5 50v2q0 12 8 20t19 8q13 0 21 -8t8 -20q0 -16 5 -29t13.5 -22.5t21 -14.5t27.5 -5q17 0 30 5.5t21.5 15.5t12.5 23.5t4 29.5q0 15 -5 28.5t-13.5 23.5t-20.5 15.5t-26 5.5h-3q-12 0 -19.5 8.5t-7.5 19.5q0 12 7.5 19.5
t19.5 7.5q13 0 25 4t21 11t15 17.5t6 23.5q0 15 -6 25.5t-15 17.5t-21 11t-25 4q-23 0 -39.5 -12.5t-23.5 -32.5z" />
    <glyph glyph-name="fourinferior" unicode="&#x2084;" horiz-adv-x="290" 
d="M214 176q-2 0 -2 -1q-18 -3 -36 -3.5t-32 -0.5q-24 0 -46 8t-39 23q-18 14 -28.5 35.5t-10.5 47.5v112q0 12 8 20t20 8t20 -8t8 -20v-111q0 -13 5 -23.5t14 -18.5q10 -8 23 -12.5t26 -4.5q12 0 27.5 0.5t28.5 3.5q5 1 8.5 1.5t5.5 0.5v166q0 12 8 20t20 8q11 0 19.5 -8
t8.5 -20v-371q0 -12 -8.5 -20t-19.5 -8q-12 0 -20 8t-8 20v148z" />
    <glyph glyph-name="fiveinferior" unicode="&#x2085;" horiz-adv-x="286" 
d="M212 182q-3 29 -21.5 48.5t-47.5 19.5q-21 0 -37 -12.5t-25 -32.5l-8 -18q-6 -16 -25 -16q-13 0 -20.5 8.5t-7.5 19.5v202q0 12 8.5 19.5t19.5 7.5h160q12 0 20 -8t8 -19q0 -12 -8 -20t-20 -8h-132v-88q30 21 67 21q26 0 48.5 -10t39 -27.5t26 -40t9.5 -46.5v-56
q0 -26 -9.5 -48.5t-26.5 -39t-39.5 -26.5t-47.5 -10q-38 0 -69 22t-45 58q-2 6 -2 10q0 10 7.5 19t20.5 9q19 0 26 -18q8 -21 24.5 -33t37.5 -12q28 0 48.5 20.5t20.5 48.5v56z" />
    <glyph glyph-name="sixinferior" unicode="&#x2086;" horiz-adv-x="318" 
d="M222 127v53q0 13 -5 25.5t-14 22t-21 15t-26 5.5q-11 0 -22 -3t-20 -8.5t-15 -13.5t-6 -19v-74q0 -15 4 -28.5t12 -23.5t20 -15.5t28 -5.5q14 0 26.5 5t21 15t13 22.5t4.5 27.5zM278 127q0 -26 -9 -48.5t-25.5 -40t-39 -27.5t-50.5 -10q-26 0 -47.5 10.5t-36.5 28
t-22.5 41t-7.5 49.5v184q0 26 10 46.5t26.5 35.5t38.5 23t46 8q19 0 37.5 -5.5t33.5 -16.5t26.5 -26t17.5 -35q1 -1 1.5 -4t0.5 -5q0 -10 -8 -18.5t-20 -8.5q-9 0 -16 5t-10 14q-7 22 -24 33.5t-39 11.5q-13 0 -24.5 -4t-21.5 -11t-15.5 -18.5t-5.5 -24.5v-27q17 9 31.5 13
t30.5 4q25 0 47 -10t39 -27t26.5 -39t9.5 -47v-54z" />
    <glyph glyph-name="seveninferior" unicode="&#x2087;" horiz-adv-x="266" 
d="M48 370q-12 0 -20 8t-8 20q0 11 8 19.5t20 8.5h190q11 0 19.5 -7t8.5 -18q0 -5 -1.5 -9.5t-3.5 -8.5l-185 -368q-4 -7 -11 -11t-15 -4q-7 0 -12 2t-9 5q-3 3 -4 7t-1 9t1 8q0 1 84 169.5t84 169.5h-145z" />
    <glyph glyph-name="eightinferior" unicode="&#x2088;" horiz-adv-x="287" 
d="M143 58q38 0 53 21t15 53q0 29 -17.5 51t-50.5 22q-31 0 -49.5 -22t-18.5 -51q0 -32 17 -53t51 -21zM143 2q-29 0 -52 10t-38.5 28t-24 41.5t-8.5 50.5q0 68 47 103q-16 16 -25 36.5t-9 45.5q0 23 8.5 43.5t23 36t34.5 24.5t44 9t44 -9t35 -24.5t23 -36t8 -43.5
q0 -25 -9 -45.5t-25 -36.5q48 -35 48 -103q0 -27 -8.5 -50.5t-24.5 -41.5t-39 -28t-52 -10zM143 261q24 0 39 15.5t15 40.5q0 23 -15 40t-39 17q-23 0 -39 -17t-16 -40q0 -25 16 -40.5t39 -15.5z" />
    <glyph glyph-name="nineinferior" unicode="&#x2089;" horiz-adv-x="280" 
d="M76 303v-54q0 -13 5 -25.5t14.5 -22.5t21.5 -15t26 -5q10 0 21.5 3t20.5 8.5t14.5 13.5t5.5 18v75q0 16 -3.5 29.5t-11.5 23t-20.5 15.5t-29.5 6q-13 0 -25 -5.5t-20.5 -15t-13.5 -22t-5 -27.5zM20 303q0 25 9 48t25.5 40.5t39 27.5t49.5 10q28 0 49.5 -10.5t36.5 -28
t23 -41.5t8 -50v-185q0 -26 -10 -46.5t-27.5 -35.5t-39.5 -23.5t-45 -8.5q-21 0 -38.5 6t-33 16.5t-27 26.5t-18.5 35q0 2 -0.5 4.5t-0.5 4.5q0 10 8 19t20 9q9 0 16 -5t10 -15q7 -22 24.5 -33.5t39.5 -11.5q12 0 24 4t21.5 11.5t15.5 18t6 25.5v27q-17 -9 -32 -13t-30 -4
q-26 0 -48 10t-39 27t-26.5 39t-9.5 47v55z" />
    <glyph glyph-name="parenleftinferior" unicode="&#x208d;" horiz-adv-x="147" 
d="M71 91q0 -10 4 -18.5t11 -14.5q8 -7 18 -10.5t21 -3.5q9 0 15.5 -6.5t6.5 -15.5t-6.5 -15.5t-15.5 -6.5q-26 0 -43.5 6t-30.5 18q-14 12 -22.5 29t-8.5 38v243q0 21 8.5 37.5t22.5 29.5q13 11 30.5 17.5t43.5 6.5q9 0 15.5 -6.5t6.5 -15.5q0 -10 -6.5 -16.5t-15.5 -6.5
q-11 0 -21 -3.5t-18 -9.5q-7 -6 -11 -14.5t-4 -19.5v-242z" />
    <glyph glyph-name="parenrightinferior" unicode="&#x208e;" horiz-adv-x="147" 
d="M76 333q0 11 -4 19.5t-11 14.5q-8 6 -18 9.5t-21 3.5q-9 0 -15.5 6.5t-6.5 16.5q0 9 6.5 15.5t15.5 6.5q26 0 43.5 -6.5t30.5 -17.5q14 -13 22.5 -29.5t8.5 -37.5v-243q0 -21 -8.5 -38t-22.5 -29q-13 -12 -30.5 -18t-43.5 -6q-9 0 -15.5 6.5t-6.5 15.5t6.5 15.5t15.5 6.5
q11 0 21 3.5t18 10.5q7 6 11 14.5t4 18.5v242z" />
    <glyph glyph-name="afii10109" unicode="&#x45c;" horiz-adv-x="520" 
d="M124 30q0 -14 -8.5 -22t-19.5 -8q-14 0 -22 8t-8 22v493q0 12 8 21t22 9q11 0 19.5 -9t8.5 -21v-219h129l167 235q8 14 24 14q14 0 21.5 -9.5t7.5 -20.5t-5 -17l-145 -206q66 -24 108 -72t42 -111v-87q0 -14 -8 -22t-22 -8q-13 0 -21 8t-8 22v87q0 29 -12 53t-31.5 41
t-45.5 26t-54 9h-147v-216zM263 743q6 21 27 21q14 0 23 -10t6 -24l-22 -89q-2 -8 -9.5 -14t-17.5 -6q-16 0 -24 11t-4 25z" />
    <glyph glyph-name="afii10061" unicode="&#x40c;" horiz-adv-x="514" 
d="M125 30q0 -14 -7.5 -22t-21.5 -8q-12 0 -21 8t-9 22v666q0 12 9 20t21 8q14 0 21.5 -8t7.5 -20v-276h123l166 289q4 9 10.5 12.5t13.5 3.5q13 0 21 -8.5t8 -20.5q0 -1 -1.5 -6.5t-3.5 -10.5l-150 -262q34 -11 62 -29t48.5 -41.5t32 -51t11.5 -57.5v-208q0 -29 -28 -29
q-12 0 -20 7.5t-8 21.5v206q0 29 -12 52t-32 39.5t-45.5 25.5t-52.5 9h-143v-332zM254 919q6 21 27 21q14 0 23 -10t6 -24l-22 -89q-2 -8 -9.5 -14t-17.5 -6q-16 0 -24 11t-4 25z" />
    <glyph glyph-name="afii10062" unicode="&#x40e;" horiz-adv-x="494" 
d="M249 841q26 0 52.5 11.5t43.5 32.5q8 8 19 8q10 0 15.5 -7t5.5 -15q0 -16 -14 -29.5t-35 -24t-44.5 -16.5t-42.5 -6q-18 0 -41.5 5.5t-44.5 16t-35.5 24t-14.5 30.5q0 8 5 15t16 7t19 -8l-1 3q16 -24 42 -35.5t55 -11.5zM447 203q0 -41 -9.5 -77t-33 -64t-62.5 -44
t-98 -16q-20 0 -40.5 6t-40.5 16.5t-38 23t-32 26.5q-2 4 -4.5 10t-2.5 10q0 11 8.5 19.5t20.5 8.5q11 0 22 -11h-1q20 -23 49.5 -37t60.5 -14q43 0 71 8t44 25.5t22 44.5t6 65v121q-53 -13 -86.5 -15.5t-56.5 -2.5q-38 0 -74 13t-64 37t-44.5 57.5t-16.5 74.5v211
q0 14 8.5 21.5t20.5 7.5q13 0 21 -7.5t8 -21.5v-210q0 -33 13.5 -56.5t35.5 -39t49.5 -23t55.5 -7.5q16 0 34.5 1.5t36.5 3.5t33.5 4.5t25.5 4.5v323q0 14 9 21.5t20 7.5q12 0 20.5 -7.5t8.5 -21.5v-497z" />
    <glyph glyph-name="afii10110" unicode="&#x45e;" horiz-adv-x="537" 
d="M274 674q28 0 55 12t44 34q7 7 19 7q11 0 16.5 -6.5t5.5 -16.5q0 -16 -14.5 -29.5t-35.5 -24t-45.5 -16.5t-44.5 -6q-18 0 -42 5.5t-45 16t-36 24t-15 30.5q0 9 6 16t17 7q10 0 18 -6q15 -24 42 -35.5t55 -11.5zM471 18q0 -93 -48.5 -148.5t-154.5 -55.5q-35 0 -65 10
t-52 24t-34.5 30.5t-12.5 28.5q0 11 9 21t20 10t20.5 -7.5t20.5 -16.5h-1q17 -15 40 -28.5t55 -13.5q48 0 76.5 14.5t44 36t20 46.5t4.5 48q-15 -6 -35 -9t-40 -4.5t-37 -2t-26 -0.5h-7q-41 0 -77.5 13.5t-64.5 38t-44 59t-16 76.5v338q0 11 7.5 19t21.5 8q11 0 19.5 -8
t8.5 -19v-338q0 -34 14 -58t36.5 -39.5t50.5 -23t57 -7.5q28 0 63.5 3.5t68.5 11.5v451q0 11 8 19t21 8q14 0 21.5 -8t7.5 -19v-508z" />
    <glyph glyph-name="afii10057" unicode="&#x408;" horiz-adv-x="446" 
d="M29 667q-14 0 -21.5 8t-7.5 21q0 12 7.5 20.5t21.5 8.5h275q31 0 50 -6t29 -16.5t13 -25t3 -32.5v-446q0 -41 -16 -77.5t-43.5 -63.5t-64 -42.5t-77.5 -15.5q-30 0 -56 9.5t-45.5 22t-32.5 23.5t-16 14q-6 6 -6 17q0 9 6 19t23 10q13 0 23 -10q44 -47 104 -47
q29 0 55 11.5t45.5 31t31 45t11.5 53.5v167h-228q-11 0 -20 7.5t-9 21.5q0 11 9 20t20 9h227v221q0 17 -8 19.5t-19 2.5h-284z" />
    <glyph glyph-name="afii10103" unicode="&#x456;" horiz-adv-x="191" 
d="M66 522q0 11 8.5 20t20.5 9q14 0 21.5 -9t7.5 -20v-493q0 -12 -7.5 -20.5t-21.5 -8.5q-12 0 -20.5 8.5t-8.5 20.5v493zM57 686q0 15 11.5 26t26.5 11t25.5 -11t10.5 -26t-10.5 -26t-25.5 -11t-26.5 11t-11.5 26z" />
    <glyph glyph-name="mu" unicode="&#xb5;" horiz-adv-x="538" 
d="M413 527q0 12 8 20t21 8q14 0 22 -8t8 -20l-1 -608q0 -13 -7.5 -21.5t-21.5 -8.5q-11 0 -20 8.5t-9 21.5v97q-40 -12 -81 -15.5t-79.5 2t-71.5 19.5t-57 37v-213q0 -11 -8 -20t-21 -9q-12 0 -20.5 9t-8.5 20v678q0 14 7.5 22t21.5 8q11 0 20 -8t9 -22v-354q8 -47 41 -71
t76.5 -33t90 -5.5t81.5 11.5v455z" />
    <glyph glyph-name="afii10071" unicode="&#x451;" horiz-adv-x="476" 
d="M361 108q7 9 20 9q12 0 20.5 -9t8.5 -21q0 -4 -0.5 -8t-3.5 -7q-69 -72 -154 -72q-42 0 -79.5 15.5t-65 43t-44 64.5t-16.5 79v143q0 42 16.5 79.5t44 65t65 44t79.5 16.5q43 0 80 -17t64.5 -47t43.5 -70.5t16 -87.5q0 -39 -23 -60t-63 -21h-264v-45q0 -28 12 -54
t32 -45.5t46.5 -31.5t55.5 -12q43 0 69.5 16t39.5 33zM106 305h291q0 39 -10 72.5t-29 59t-46 40t-60 14.5q-31 0 -58 -11.5t-46.5 -31t-30.5 -46t-11 -57.5v-40zM106 690q0 15 11.5 26t26.5 11t25.5 -11t10.5 -26t-10.5 -26t-25.5 -11t-26.5 11t-11.5 26zM321 690
q0 15 11.5 26t26.5 11t25.5 -11t10.5 -26t-10.5 -26t-25.5 -11t-26.5 11t-11.5 26z" />
    <glyph glyph-name="afii10017" unicode="&#x410;" horiz-adv-x="440" 
d="M418 39q0 -3 0.5 -4.5t0.5 -3.5t1 -2q0 -11 -7.5 -19t-21.5 -8q-9 0 -17.5 6t-10.5 16l-55 220h-176l-55 -220q-3 -10 -11 -16t-17 -6q-14 0 -21.5 9t-7.5 20v5l173 669q8 21 29 21q8 0 15 -6.5t10 -16.5v1zM292 301l-72 301l-73 -301h145z" />
    <glyph glyph-name="afii10019" unicode="&#x412;" 
d="M367 398q55 -31 77 -71.5t22 -84.5v-56q0 -42 -16.5 -76t-44 -58t-63.5 -37t-74 -13q-28 0 -63 2t-66 10.5t-52 26t-21 49.5v548q0 32 21 50t52 26.5t66 10.5t63 2q39 0 74.5 -13t63 -37t44 -58t16.5 -76q0 -17 -5 -37t-17 -39.5t-31 -37.5t-46 -31zM124 368v-276
q0 -8 16.5 -14t39 -10t47 -6t41.5 -2q28 0 53.5 9t45 25.5t31 39.5t11.5 52v56q0 29 -11.5 52t-31 39.5t-45 25.5t-53.5 9h-144zM268 426q26 0 51 8.5t45 24.5t32.5 37t12.5 47q0 33 -14 57t-36 39.5t-50.5 22.5t-56.5 7q-55 0 -128 -14v-229h144z" />
    <glyph glyph-name="afii10022" unicode="&#x415;" horiz-adv-x="485" 
d="M160 0q-30 0 -48.5 6t-28.5 17t-13.5 25.5t-3.5 32.5v562q0 18 3.5 32.5t13.5 25.5t28.5 17t48.5 6h277q13 0 20.5 -8.5t7.5 -20.5q0 -26 -28 -26h-313v-246h228q12 0 20.5 -9t8.5 -20q0 -12 -8.5 -20.5t-20.5 -8.5h-228v-311h313q28 0 28 -25q0 -12 -7.5 -20.5
t-20.5 -8.5h-277z" />
    <glyph glyph-name="afii10025" unicode="&#x417;" horiz-adv-x="457" 
d="M20 589q0 2 2 6v3h-21l-1 -6zM76 574q-8 -20 -28 -20q-15 0 -21.5 8t-7.5 18q3 9 3 15q10 29 29 53t44 41.5t54.5 27.5t60.5 10q38 0 74 -13t63.5 -36.5t44 -57t16.5 -74.5t-24 -82t-63 -72q89 -73 89 -180q0 -44 -13.5 -82.5t-39 -67t-62.5 -45.5t-84 -17
q-43 0 -80 15.5t-64.5 42.5t-43 64.5t-15.5 82.5q0 14 9 22.5t20 8.5q14 0 22 -8.5t8 -19.5q0 -68 39.5 -108.5t103.5 -40.5q72 0 107.5 43t35.5 110q0 33 -10.5 61t-29 48.5t-44 31.5t-55.5 11h-4q-29 2 -29 30q0 11 7.5 20t21.5 9q26 0 51.5 8t45.5 23.5t32 38t12 51.5
q0 30 -12.5 53t-32.5 38.5t-45 24t-51 8.5q-51 0 -84.5 -26t-49.5 -68z" />
    <glyph glyph-name="afii10026" unicode="&#x418;" horiz-adv-x="511" 
d="M464 27q0 -14 -9 -21.5t-20 -7.5q-12 0 -20 7.5t-8 21.5v541l-285 -553q-2 -5 -9 -11t-27 -6q-4 0 -12 5t-8 24v666q0 11 8.5 20t19.5 9q12 0 20.5 -9t8.5 -20v-548l283 551q11 26 29 26q11 0 20 -9t9 -20v-666z" />
    <glyph glyph-name="afii10028" unicode="&#x41a;" horiz-adv-x="515" 
d="M125 29q0 -14 -7.5 -22t-21.5 -8q-12 0 -21 8t-9 22v666q0 12 9 20t21 8q14 0 21.5 -8t7.5 -20v-277h123l165 286q5 11 11.5 15.5t13.5 4.5q12 0 21 -8.5t9 -20.5q0 -5 -5 -17v1l-150 -263q34 -9 62.5 -25t49 -39t31.5 -52.5t11 -63.5v-207q0 -14 -8 -21.5t-21 -7.5
q-12 0 -20 7.5t-8 21.5v206q0 29 -12 52t-32 39.5t-45.5 25.5t-52.5 9h-143v-332z" />
    <glyph glyph-name="afii10030" unicode="&#x41c;" horiz-adv-x="508" 
d="M404 567l-112 -247q-5 -7 -12 -12t-13 -5h-6q-6 0 -13.5 5t-11.5 12l-112 247v-536q0 -12 -7.5 -20.5t-21.5 -8.5q-11 0 -20 8.5t-9 20.5v666q0 12 9 20.5t20 8.5q21 0 29 -22l141 -307l139 307q8 22 28 22q12 0 20.5 -8.5t8.5 -20.5v-666q0 -12 -8.5 -20.5t-20.5 -8.5
q-13 0 -20.5 8.5t-7.5 20.5v536z" />
    <glyph glyph-name="afii10031" unicode="&#x41d;" horiz-adv-x="510" 
d="M66 695q0 12 8.5 20.5t19.5 8.5q14 0 21.5 -8.5t7.5 -20.5v-273h284v273q0 12 8 20.5t19 8.5q14 0 21.5 -8.5t7.5 -20.5v-666q0 -29 -29 -29q-11 0 -19 7.5t-8 21.5v335h-284v-335q0 -29 -29 -29q-11 0 -19.5 7.5t-8.5 21.5v666z" />
    <glyph glyph-name="afii10032" unicode="&#x41e;" 
d="M66 522q0 42 14.5 78.5t41.5 63.5t64 43t82 16q41 0 77 -16t63 -43t42.5 -64t15.5 -79v-322q0 -41 -15.5 -77.5t-42.5 -63.5t-63 -42.5t-77 -15.5t-78 15.5t-64.5 42t-43.5 61t-16 73.5v330zM124 197q0 -28 12 -53.5t31.5 -44.5t45.5 -30t54 -11t53.5 11.5t45 30.5
t31.5 44.5t12 53.5v324q0 31 -11 57.5t-30 46t-45 30.5t-56 11t-56 -11.5t-45.5 -31.5t-30.5 -46.5t-11 -55.5v-325z" />
    <glyph glyph-name="afii10034" unicode="&#x420;" horiz-adv-x="486" 
d="M466 484q0 -45 -17.5 -79t-47 -57.5t-68.5 -35t-82 -11.5q-23 0 -54.5 2t-72.5 11v-285q0 -29 -29 -29q-11 0 -20 8t-9 20v606q0 33 19 51t47.5 27t60 11t57.5 2q43 0 82 -12t69 -35t47.5 -57.5t17.5 -79.5v-57zM409 541q0 32 -13 55.5t-34.5 39.5t-48.5 23.5t-55 7.5
q-29 0 -66 -3.5t-68 -12.5v-278q73 -14 128 -14q29 0 57 7t50.5 22.5t36 39.5t13.5 57v56z" />
    <glyph glyph-name="afii10035" unicode="&#x421;" horiz-adv-x="444" 
d="M374 106q7 9 21 9t21 -9t7 -21q0 -8 -8 -16q-29 -32 -67 -50.5t-81 -18.5q-41 0 -77.5 15.5t-64 42.5t-43.5 63.5t-16 77.5v326q0 41 16 77.5t43.5 63.5t64 43t77.5 16q50 0 86 -20t64 -49l-1 1q8 -11 8 -18q0 -11 -8.5 -20t-20.5 -9q-9 0 -17 5.5t-17 13.5
q-14 13 -35 25.5t-59 12.5q-28 0 -53.5 -10t-45 -29t-31.5 -45t-12 -58v-326q0 -25 9.5 -50t27.5 -45.5t44.5 -33t60.5 -12.5t62 15.5t44 31.5z" />
    <glyph glyph-name="afii10036" unicode="&#x422;" horiz-adv-x="440" 
d="M247 667v-638q0 -29 -29 -29q-11 0 -19.5 7.5t-8.5 21.5v638h-141q-12 0 -20.5 9t-8.5 20q0 12 8.5 20.5t20.5 8.5h342q12 0 20.5 -8.5t8.5 -20.5q0 -11 -8.5 -20t-20.5 -9h-144z" />
    <glyph glyph-name="afii10039" unicode="&#x425;" horiz-adv-x="444" 
d="M421 40q3 -6 3 -11q0 -11 -7.5 -20t-26.5 -9t-26 15l-126 253v-1l-17 49q-1 -2 -3 -9t-4.5 -15t-4.5 -15t-3 -10v1l-126 -253q-9 -15 -27 -15q-17 0 -25 9t-8 20q0 6 3 14v-1l168 321q-42 79 -84.5 161t-83.5 161v-1q-3 6 -3 14q0 11 8 20t25 9t27 -18v2
q32 -64 63 -127.5t63 -126.5v1l15 -47q1 2 3 9t5 14.5t5 14.5t3 10v-1l127 253q4 8 11 12t15 4q19 0 26.5 -9t7.5 -20q0 -8 -3 -14v1l-168 -322z" />
    <glyph glyph-name="afii10049" unicode="&#x42f;" horiz-adv-x="495" 
d="M390 360v293q-9 3 -26 5.5t-36 4.5t-37.5 3.5t-31.5 1.5q-28 0 -55.5 -7.5t-49.5 -22.5t-35.5 -39t-13.5 -57v-56q0 -29 12 -52t31.5 -39.5t45 -25.5t52.5 -9h144zM246 302q-26 0 -51.5 -8.5t-45.5 -24.5t-32 -39.5t-12 -52.5v-147q0 -14 -8.5 -21.5t-20.5 -7.5
q-11 0 -19.5 7.5t-8.5 21.5v147q-2 39 8.5 66.5t25.5 46t30 29t23 13.5q-24 16 -43 39q-17 20 -30.5 48t-12.5 66v57q0 41 16 75t43 58t63 37.5t75 13.5q28 0 63 -2t66 -11t52 -27t21 -51v-605q0 -14 -9 -21.5t-20 -7.5q-29 0 -29 29v272h-144z" />
    <glyph glyph-name="afii10054" unicode="&#x405;" horiz-adv-x="467" 
d="M445 615v-11t1 -15q0 -2 1 -3zM246 726q33 0 64.5 -10.5t58 -29t46.5 -43.5t31 -54v-6q0 -2 0.5 -3t0.5 -3q0 -12 -7.5 -20.5t-21.5 -8.5q-11 0 -17 5t-11 16v-1q-17 46 -58 73t-90 27q-21 0 -45.5 -8t-44.5 -23t-33.5 -35t-13.5 -44q0 -21 14 -42.5t36.5 -43t50.5 -42.5
t57 -41q30 -20 62.5 -44t59.5 -52t44.5 -58t17.5 -61q0 -38 -16.5 -70t-44.5 -55t-64.5 -35.5t-75.5 -12.5q-32 0 -63.5 10.5t-57.5 29.5t-46 44.5t-30 55.5v-1q-2 6 -2 7q0 14 7.5 23t21.5 9q9 0 17 -5t12 -14h-1q6 -21 20 -39.5t33.5 -32t42 -21.5t45.5 -8q22 0 47.5 7
t47 21t36 34.5t14.5 48.5q0 21 -12.5 42.5t-32.5 41t-44 38t-47 33.5q1 1 -6 5.5t-12 7.5l-6 4q-30 19 -62.5 42.5t-59 50.5t-44 57.5t-17.5 65.5q0 39 18 70t47 53t64 33.5t70 11.5z" />
    <glyph glyph-name="afii10102" unicode="&#x455;" horiz-adv-x="498" 
d="M438 426q2 -2 2 -4q0 -14 -6.5 -24t-22.5 -10q-11 0 -18 9.5t-14 20.5l-10 16t-10 13q-23 23 -52.5 35.5t-58.5 12.5q-26 0 -51.5 -9t-45.5 -24.5t-32.5 -35.5t-12.5 -42q0 -12 9 -20t24 -14t36 -11t45 -10q36 -8 77 -18.5t75 -28t56.5 -44t22.5 -65.5q0 -40 -18.5 -72
t-47.5 -54t-65 -33.5t-71 -11.5q-38 0 -71 12t-59.5 33.5t-44.5 50.5t-25 62q-2 4 -2 6q0 14 8 24t22 10q9 0 17.5 -7.5t11.5 -16.5l-1 1q11 -51 49.5 -83.5t93.5 -32.5q26 0 52 8t46.5 23t33 35.5t12.5 45.5q0 23 -13.5 38.5t-36 26.5t-51.5 18t-60 14q-33 7 -65.5 15
t-58.5 20.5t-42.5 31.5t-16.5 47q0 40 18 71.5t47 53.5t65 33.5t73 11.5q63 0 114.5 -35t73.5 -92z" />
    <glyph glyph-name="afii10070" unicode="&#x435;" horiz-adv-x="476" 
d="M106 305h291q0 39 -10 72.5t-29 59t-46 40t-60 14.5q-31 0 -58 -11.5t-46.5 -31t-30.5 -46t-11 -57.5v-40zM361 108q7 9 20 9q12 0 20.5 -9t8.5 -21q0 -4 -0.5 -8t-3.5 -7q-69 -72 -154 -72q-42 0 -79.5 15.5t-65 43t-44 64.5t-16.5 79v143q0 42 16.5 79.5t44 65t65 44
t79.5 16.5q43 0 80 -17t64.5 -47t43.5 -70.5t16 -87.5q0 -39 -23 -60t-63 -21h-264v-45q0 -28 12 -54t32 -45.5t46.5 -31.5t55.5 -12q43 0 69.5 16t39.5 33z" />
    <glyph glyph-name="afii10065" unicode="&#x430;" horiz-adv-x="540" 
d="M415 365q0 28 -7.5 52t-25 41t-45.5 26.5t-69 8.5q-35 -2 -61 -14.5t-49 -38.5q-5 -5 -11 -8t-11 -3q-12 0 -20.5 9.5t-8.5 20.5q0 12 5 17q34 37 73.5 56t90.5 19q53 0 90.5 -15.5t61.5 -43t35 -64t11 -78.5v-258q0 -35 -22.5 -53.5t-55 -27t-68 -10t-62.5 -1.5
q-39 0 -75 14.5t-64 39.5t-44.5 59.5t-16.5 74.5q0 37 17.5 69t46 56t65.5 38t77 14h143zM415 307h-143q-25 0 -50 -9t-46 -24.5t-35 -37.5t-16 -48q0 -33 13.5 -57t35.5 -40t50 -24t56 -8t64.5 4t70.5 12v232z" />
    <glyph glyph-name="afii10076" unicode="&#x43a;" horiz-adv-x="519" 
d="M124 30q0 -14 -8.5 -22t-19.5 -8q-14 0 -22 8t-8 22v493q0 12 8 21t22 9q11 0 19.5 -9t8.5 -21v-219h129l166 235q8 14 25 14q14 0 21 -10t7 -20q0 -11 -5 -16l-143 -207q33 -5 60.5 -22t47 -41.5t30 -55.5t10.5 -64v-87q0 -14 -7.5 -22t-21.5 -8q-13 0 -21 8t-8 22v87
q0 29 -12 53t-31.5 41t-45.5 26t-54 9h-147v-216z" />
    <glyph glyph-name="afii10080" unicode="&#x43e;" horiz-adv-x="502" 
d="M47 344q0 43 16.5 80.5t44 65.5t65 44t79.5 16t79 -16t64.5 -44t43.5 -65.5t16 -80.5v-139q0 -42 -16 -79.5t-43.5 -65.5t-64.5 -44t-79 -16t-79.5 16t-65 44t-44 65.5t-16.5 79.5v139zM106 205q0 -31 11.5 -57.5t31 -46t46 -31t57.5 -11.5q28 0 54 11.5t46 31t32.5 46
t12.5 57.5v140q0 33 -12 59.5t-32 46t-46.5 30t-54.5 10.5q-29 0 -55.5 -10.5t-46.5 -29.5t-32 -46.5t-12 -60.5v-139z" />
    <glyph glyph-name="afii10082" unicode="&#x440;" horiz-adv-x="519" 
d="M414 368q0 33 -13.5 57t-35.5 40t-49.5 24t-55.5 8q-29 0 -66.5 -4t-69.5 -12v-401q12 -7 29 -11t35.5 -6t36.5 -2.5t32 -0.5q70 0 113.5 32t43.5 97v179zM472 189q0 -38 -14 -72.5t-42.5 -60t-71.5 -40.5t-100 -15q-41 0 -120 15v-168q0 -14 -8.5 -22t-19.5 -8
q-14 0 -22 7.5t-8 20.5v619q0 33 22 51.5t54 27t67 10.5t61 2q40 0 76.5 -13.5t64.5 -38.5t44.5 -59.5t16.5 -76.5v-179z" />
    <glyph glyph-name="afii10083" unicode="&#x441;" horiz-adv-x="430" 
d="M360 108q7 9 21 9t21.5 -9t7.5 -20q0 -10 -9 -18q-29 -34 -66 -52t-85 -18q-41 0 -78 16t-64.5 43.5t-43.5 64t-16 78.5v144q0 43 16 80t43 64.5t63.5 43.5t77.5 16q33 0 59 -8t44.5 -19t31 -23t19.5 -20q8 -7 8 -18t-8 -20t-21 -9q-14 0 -21 9q-1 1 -3 2.5t-3 2.5h1
q-6 7 -14.5 14.5t-21 14t-29.5 11t-40 4.5q-29 0 -55 -11.5t-46 -31t-32 -46t-12 -56.5v-144q0 -31 11.5 -57t32 -45t47 -30t56.5 -11q29 0 58.5 11.5t49.5 37.5z" />
    <glyph glyph-name="afii10087" unicode="&#x445;" horiz-adv-x="451" 
d="M26 506q-9 12 -2.5 29t27.5 17q7 0 13.5 -4.5t11.5 -9.5l152 -216l148 216q10 14 25 14q18 0 24.5 -16.5t-0.5 -30.5l-163 -230l163 -230q5 -8 5 -16t-3.5 -15t-10.5 -11t-15 -4q-18 0 -25 11l-150 215l-150 -213q-5 -5 -11 -9t-14 -4q-11 0 -17.5 5t-9.5 12.5t-2.5 15.5
t4.5 13l163 230z" />
    <glyph glyph-name="afii10020" unicode="&#x413;" horiz-adv-x="465" 
d="M160 667q-25 0 -31 -6t-6 -20v-612q0 -14 -8 -21.5t-20 -7.5q-11 0 -20 7.5t-9 21.5v612q0 18 2.5 33.5t12 26.5t28 17.5t51.5 6.5h277q13 0 20.5 -8t7.5 -22q0 -11 -7.5 -19.5t-20.5 -8.5h-277z" />
    <glyph glyph-name="afii10018" unicode="&#x411;" horiz-adv-x="486" 
d="M466 184q0 -45 -17.5 -79.5t-47.5 -57.5t-69 -35t-82 -12q-26 0 -58 2t-60 11t-47 27t-19 50v551q0 18 2.5 33.5t11.5 26.5t27.5 17.5t51.5 6.5h277q13 0 21 -8t8 -22q0 -11 -8 -19.5t-21 -8.5h-277q-24 0 -30.5 -6t-6.5 -20v-69q1 -1 1 -6v-156q48 11 81 12.5t56 1.5h7
q40 0 76 -13t63.5 -37t43.5 -58t16 -75v-57zM408 240q0 33 -14 57t-36 39.5t-50 22.5t-56 7t-61 -3.5t-68 -11.5v-278q32 -8 68.5 -11.5t65.5 -3.5q28 0 55 7.5t48.5 23.5t34.5 39.5t13 55.5v56z" />
    <glyph glyph-name="afii10024" unicode="&#x416;" horiz-adv-x="663" 
d="M246 361q-27 0 -52.5 -9t-45.5 -25.5t-32 -39.5t-12 -52v-206q0 -14 -8 -21.5t-20 -7.5q-28 0 -28 29v207q0 62 43 109.5t111 70.5q-17 32 -39 68.5t-40 68.5q-19 32 -37 64t-35 63v-2q-2 5 -3 9.5t-1 7.5q0 11 7.5 20t21.5 9q17 0 24 -16l166 -290h50v277q0 12 8 20
t22 8q13 0 21 -8t8 -20v-277h49l166 290q8 16 23 16q14 0 22 -9t8 -20q0 -1 -1.5 -6.5t-3.5 -10.5l-150 -262q68 -23 111 -70t43 -110v-207q0 -29 -29 -29q-11 0 -19.5 7.5t-8.5 21.5v206q0 29 -12 52t-32 39.5t-45.5 25.5t-51.5 9h-69v-332q0 -14 -8 -22t-21 -8
q-14 0 -22 8t-8 22v332h-70z" />
    <glyph glyph-name="afii10033" unicode="&#x41f;" horiz-adv-x="510" 
d="M373 724h64q7 0 16.5 -9.5t9.5 -31.5v-29q0 -45 -0.5 -153t-0.5 -282v-190q0 -29 -29 -29q-11 0 -19 7.5t-8 21.5v639h-283v-639q0 -14 -8 -21.5t-20 -7.5q-11 0 -20 7.5t-9 21.5v654q2 23 9 31.5t20 10.5z" />
    <glyph glyph-name="afii10081" unicode="&#x43f;" horiz-adv-x="539" 
d="M125 31q0 -11 -7.5 -20t-21.5 -9t-22 9t-8 20v435q0 33 22.5 51t54 27t66.5 10.5t61 1.5q41 0 78 -14t64.5 -38.5t44 -59t16.5 -75.5v-335q0 -13 -8 -22t-22 -9q-11 0 -19.5 9t-8.5 22v335q0 33 -14.5 57t-37.5 40t-52 24t-58 8q-15 0 -33 -1.5t-36 -4t-34 -5t-25 -5.5
v-451z" />
    <glyph glyph-name="afii10079" unicode="&#x43d;" horiz-adv-x="535" 
d="M66 525q0 11 8 20t20 9q13 0 21 -9t8 -20v-197h289v197q0 11 8.5 20t19.5 9q14 0 21.5 -9t7.5 -20v-496q0 -12 -7.5 -20.5t-21.5 -8.5q-11 0 -19.5 8.5t-8.5 20.5v240h-289v-240q0 -12 -8 -20.5t-21 -8.5q-12 0 -20 8.5t-8 20.5v496z" />
    <glyph glyph-name="afii10037" unicode="&#x423;" horiz-adv-x="494" 
d="M447 203q0 -41 -9.5 -77t-32.5 -64t-62.5 -44t-99.5 -16q-20 0 -40.5 6t-40 16.5t-37.5 23t-32 26.5q-2 4 -4.5 10t-2.5 10q0 11 8.5 19.5t20.5 8.5q11 0 21 -10q20 -22 50 -37t59 -15q43 0 71 8t44.5 25.5t22.5 44.5t6 65v121q-53 -13 -87 -15.5t-57 -2.5
q-38 0 -73.5 13t-63.5 37t-44.5 57.5t-16.5 74.5v211q0 14 8.5 21.5t20.5 7.5q11 0 20 -7.5t9 -21.5v-210q0 -33 13.5 -56.5t35.5 -39t49.5 -23t55.5 -7.5q17 0 35.5 1.5t36.5 3.5t33 4t25 4v324q0 14 8 21.5t21 7.5q12 0 20.5 -7.5t8.5 -21.5v-497z" />
    <glyph glyph-name="afii10085" unicode="&#x443;" horiz-adv-x="537" 
d="M471 18q0 -93 -48.5 -148.5t-154.5 -55.5q-35 0 -65 10t-52 24t-34.5 30.5t-12.5 28.5q0 11 9 21t20 10t20.5 -7.5t20.5 -16.5h-1q17 -15 40 -28.5t55 -13.5q48 0 76.5 14.5t44 36t20 46.5t4.5 48q-15 -6 -35 -9t-40 -4.5t-37 -2t-26 -0.5h-7q-41 0 -77.5 13.5t-64.5 38
t-44 59t-16 76.5v338q0 11 7.5 19t21.5 8q11 0 19.5 -8t8.5 -19v-338q0 -34 14 -58t36.5 -39.5t50.5 -23t57 -7.5q28 0 63.5 3.5t68.5 11.5v451q0 11 8 19t21 8q14 0 21.5 -8t7.5 -19v-508z" />
    <glyph glyph-name="afii10038" unicode="&#x424;" horiz-adv-x="675" 
d="M351 698q16 7 40 15t66 10q39 0 75 -13.5t63 -38t43.5 -58.5t16.5 -74v-177q0 -31 -11.5 -62.5t-35 -57t-59.5 -42t-84 -16.5q-14 0 -34 1t-52 6v-159q0 -12 -8.5 -20.5t-19.5 -8.5q-12 0 -20.5 8.5t-8.5 20.5v159q-32 -5 -52 -6t-35 -1q-51 0 -87 16.5t-58.5 42
t-32.5 57t-10 62.5v177q0 40 16 73.5t43 58t62.5 38.5t74.5 14q37 0 64.5 -8t43.5 -17zM104 362q0 -30 11.5 -53.5t29.5 -39t41 -23.5t47 -7q28 1 54 5t35 10v394q-29 11 -49 13t-38 2q-68 0 -99.5 -35t-31.5 -89v-177zM597 539q0 54 -31.5 89t-99.5 35q-17 0 -37.5 -2
t-49.5 -13v-393q12 -7 31.5 -11.5t57.5 -4.5q24 0 47 8t41 23.5t29.5 38.5t11.5 53v177z" />
    <glyph glyph-name="afii10086" unicode="&#x444;" horiz-adv-x="753" 
d="M485 551q39 0 75.5 -14.5t64.5 -39t45 -59t17 -75.5v-179q0 -31 -12 -63.5t-36 -58.5t-60 -43t-85 -17q-16 0 -36 1t-52 6v-161q0 -14 -8.5 -22t-19.5 -8q-14 0 -22.5 8t-8.5 22v161q-32 -5 -52.5 -6t-36.5 -1q-51 0 -87.5 17t-60 43t-34 58.5t-10.5 63.5v179
q0 41 16.5 75.5t44.5 59.5t65 39t77 14q43 -2 68.5 -10t39.5 -15q15 6 42.5 15t65.5 10zM125 184q0 -30 11.5 -53.5t30.5 -39.5t42.5 -24.5t46.5 -8.5q32 0 56 4.5t35 11.5v402q-29 9 -49 11.5t-40 2.5q-68 0 -100.5 -36t-32.5 -91v-179zM628 363q0 55 -32.5 91t-100.5 36
q-20 0 -40 -2.5t-49 -11.5v-401q12 -8 32 -12.5t59 -4.5q23 0 46.5 8.5t42 24.5t30.5 39.5t12 53.5v179z" />
    <glyph glyph-name="afii10040" unicode="&#x426;" horiz-adv-x="549" 
d="M95 0q-12 1 -20 9t-9 33v654q0 12 7.5 20.5t21.5 8.5q11 0 19 -8.5t8 -20.5v-639h283v639q0 12 8.5 20.5t19.5 8.5t20 -8.5t9 -20.5l1 -648h36q13 0 21.5 -7.5t8.5 -20.5q0 -1 -1 -3q-7 -20 -13 -42t-11 -45l1 1q-8 -20 -27 -20q-13 0 -21.5 7t-8.5 20q0 3 0.5 4.5
t0.5 3.5v5l17 49h-371z" />
    <glyph glyph-name="afii10088" unicode="&#x446;" horiz-adv-x="558" 
d="M485 49h29q11 0 17.5 -7t6.5 -22v-1q-5 -22 -12.5 -45.5t-12.5 -45.5v1q-6 -20 -26 -20h-7q-11 0 -17.5 9t-6.5 19q0 4 1 6v-2zM423 527q0 12 8 20t22 8q12 0 21 -8t9 -20l1 -478h1q-36 -18 -65 -28t-53 -14.5t-45.5 -5t-42.5 -0.5q-41 0 -78 13.5t-65 38.5t-44.5 59.5
t-16.5 76.5v335q0 14 9 22t20 8q12 0 20.5 -8t8.5 -22v-335q0 -34 14.5 -58.5t37.5 -40t52 -23t58 -7.5t60.5 4t51.5 7q2 0 8 0.5t8 0.5v455z" />
    <glyph glyph-name="afii10041" unicode="&#x427;" horiz-adv-x="494" 
d="M447 27q0 -14 -8 -21.5t-22 -7.5q-11 0 -19.5 7.5t-8.5 21.5v306q-57 -12 -89 -14t-55 -2q-39 0 -74.5 13.5t-63 38t-44 58.5t-16.5 75v191q0 11 7.5 19.5t21.5 8.5q13 0 21 -8.5t8 -19.5v-191q0 -32 13 -56t34 -40t48 -23.5t55 -7.5q27 0 63 4t71 12v302q0 14 8.5 21
t19.5 7q14 0 22 -7t8 -21v-666z" />
    <glyph glyph-name="afii10089" unicode="&#x447;" horiz-adv-x="521" 
d="M455 30q0 -11 -8 -20t-22 -9q-12 0 -20.5 9t-8.5 20v128q-55 -11 -88 -13t-57 -2q-40 0 -77 13.5t-65 38.5t-45 59.5t-17 76.5v195q0 12 8.5 20t21.5 8q12 0 20.5 -8t8.5 -20v-195q0 -33 13 -57t34.5 -40t49 -24t56.5 -8q27 0 64.5 4.5t72.5 11.5v308q0 14 8.5 21t20.5 7
q14 0 22 -7t8 -21v-496z" />
    <glyph glyph-name="afii10042" unicode="&#x428;" horiz-adv-x="733" 
d="M95 0q-12 1 -20 9t-9 33v654q0 12 7.5 20.5t21.5 8.5q11 0 19 -8.5t8 -20.5v-639h215v639q0 12 9 20.5t20 8.5q14 0 21.5 -8.5t7.5 -20.5v-639h213v639q0 12 8 20.5t19 8.5q14 0 21.5 -8.5t7.5 -20.5q0 -169 3.5 -293.5t7.5 -206.5t7.5 -121.5t3.5 -37.5h-21
q0 -19 -8 -27.5t-15 -8.5l-67 -1h-480z" />
    <glyph glyph-name="afii10090" unicode="&#x448;" horiz-adv-x="888" 
d="M763 525q0 11 7.5 20t21.5 9q13 0 21.5 -9t8.5 -20v-434q0 -33 -22 -51.5t-54 -27t-67.5 -10.5t-61.5 -2q-79 0 -150 58q-19 -22 -45 -34t-53.5 -17t-53.5 -6t-46 -1q-40 0 -77 14t-65 38.5t-44.5 59t-16.5 75.5v336q0 12 8 21t22 9q11 0 19.5 -9t8.5 -21v-338
q2 -37 17.5 -61.5t39.5 -39t54 -20.5t62 -6q31 0 59.5 3.5t57.5 10.5v453q0 11 8 20t21 9q14 0 21.5 -9t7.5 -20v-344q0 -36 15.5 -59.5t40 -38t55.5 -20t63 -5.5q28 0 59.5 4.5t57.5 11.5v451z" />
    <glyph glyph-name="afii10043" unicode="&#x429;" horiz-adv-x="730" 
d="M95 0q-11 1 -19.5 9t-9.5 33v654q0 12 8.5 20.5t19.5 8.5q12 0 20 -8.5t8 -20.5v-639h216v639q0 12 8.5 20.5t20.5 8.5q11 0 20 -8.5t9 -20.5v-639h212v639q0 12 8.5 20.5t19.5 8.5q12 0 20.5 -8.5t8.5 -20.5v-656q17 5 25 6.5t10 1.5h6q11 0 17.5 -8.5t6.5 -19.5
q0 -1 -1 -3q-6 -20 -12.5 -42t-11.5 -45l1 1q-8 -20 -27 -20h-7q-10 0 -16 9t-6 18q0 2 0.5 3.5t0.5 2.5l13 56h-569z" />
    <glyph glyph-name="afii10091" unicode="&#x449;" horiz-adv-x="893" 
d="M820 49h29q11 0 17.5 -7t6.5 -22v-1q-5 -22 -12 -45.5t-13 -45.5v1q-6 -20 -26 -20h-7q-10 0 -17 9t-7 19q0 4 1 6v-1l21 84q-19 -7 -34.5 -12t-36 -8t-49.5 -4.5t-75 -1.5q-80 0 -150 58q-19 -22 -45 -33.5t-53.5 -17t-53.5 -6.5t-45 -1q-41 0 -78 14t-65 38.5t-45 59
t-17 75.5v336q0 12 9 21t22 9q12 0 20 -9t8 -21v-338q2 -37 17.5 -61.5t39.5 -39t54.5 -20.5t62.5 -6q29 0 58 3.5t58 10.5v453q0 11 8 20t22 9q11 0 20 -9t9 -20v-344q0 -36 15.5 -60t40 -39t55.5 -20.5t63 -3.5q47 1 67 4t28 5q3 1 7 1h9l1 459q0 12 8.5 20t21.5 8
t21.5 -8t8.5 -20v-478z" />
    <glyph glyph-name="afii10029" unicode="&#x41b;" 
d="M408 653q-9 2 -24.5 4.5t-33.5 5t-36 4t-32 1.5q-29 0 -57 -7.5t-51 -23.5t-37 -39.5t-14 -55.5v-511q0 -13 -8 -21.5t-20 -8.5q-11 0 -20 8.5t-9 21.5v511q0 41 16 74.5t43.5 57.5t64 37.5t76.5 13.5q25 0 59.5 -1.5t65.5 -10.5t53 -27t22 -51v-606q0 -14 -8 -21.5
t-21 -7.5q-12 0 -20.5 7.5t-8.5 21.5v624z" />
    <glyph glyph-name="afii10077" unicode="&#x43b;" horiz-adv-x="538" 
d="M413 484q-2 0 -7.5 0.5t-9.5 0.5q-20 4 -50.5 7.5t-59.5 3.5q-30 0 -59 -7.5t-52 -23.5t-37.5 -40t-14.5 -58v-334q0 -13 -8.5 -22t-19.5 -9q-14 0 -21.5 9t-7.5 22v334q0 42 16 76.5t44 59.5t64.5 38.5t77.5 13.5q25 0 60.5 -1.5t67 -10t54 -26.5t22.5 -52v-436
q0 -12 -8 -20t-22 -8q-13 0 -21 8t-8 20v455z" />
    <glyph glyph-name="afii10078" unicode="&#x43c;" horiz-adv-x="542" 
d="M66 522q0 11 8.5 21t22.5 10q8 0 16.5 -5.5t12.5 -14.5v1l148 -413l143 412v-2q5 8 13 14.5t16 6.5q13 0 20 -9t10 -18v-496q0 -12 -8 -20.5t-22 -8.5q-11 0 -20 8.5t-9 20.5v326l-115 -335v1q-8 -21 -29 -21q-9 0 -17.5 5.5t-10.5 14.5l-120 335v-326q0 -12 -8 -20.5
t-21 -8.5t-21.5 8.5t-8.5 20.5v493z" />
    <glyph glyph-name="afii10027" unicode="&#x419;" horiz-adv-x="511" 
d="M266 841q27 0 53.5 11.5t43.5 32.5q8 8 18 8t16.5 -7t6.5 -15q0 -16 -14.5 -29.5t-35.5 -24t-45 -16.5t-43 -6q-17 0 -40.5 5.5t-44.5 16t-36 24t-15 30.5q0 8 6 15t17 7q4 0 8.5 -2t7.5 -4q15 -25 42 -35.5t55 -10.5zM464 693q0 11 -9 20t-20 9q-18 0 -29 -26l-283 -551
v548q0 11 -8.5 20t-20.5 9q-11 0 -19.5 -9t-8.5 -20v-666q0 -19 8 -24t12 -5q20 0 27 6t9 11l285 553v-541q0 -14 8 -21.5t20 -7.5q11 0 20 7.5t9 21.5v666z" />
    <glyph glyph-name="afii10072" unicode="&#x436;" horiz-adv-x="631" 
d="M345 30q0 -14 -8.5 -22t-20.5 -8q-13 0 -21.5 8t-8.5 22v216h-65q-28 0 -54 -9t-45.5 -26t-31.5 -41t-12 -53v-87q0 -14 -8 -22t-21 -8q-14 0 -21.5 8t-7.5 22v87q0 62 41.5 110.5t107.5 71.5l-144 208q-5 5 -5 16q0 10 7 20t21 10t26 -14l166 -235h46v219q0 12 8.5 21
t21.5 9q12 0 20.5 -9t8.5 -21v-219h46q40 57 82.5 118t82.5 117q9 14 27 14q14 0 21 -9.5t7 -20.5t-5 -16l-144 -208q66 -23 107.5 -71.5t41.5 -110.5v-87q0 -14 -8.5 -22t-21.5 -8q-12 0 -20.5 8t-8.5 22v87q0 29 -12 53t-32 41t-45.5 26t-53.5 9h-64v-216z" />
    <glyph glyph-name="afii10069" unicode="&#x434;" horiz-adv-x="539" 
d="M414 480q-33 8 -68.5 11.5t-63.5 3.5h-12q-29 0 -55 -9t-46 -25.5t-32 -40.5t-12 -53v-179q0 -31 12 -55t32 -40.5t46 -25t55 -8.5h10q29 0 65.5 4t68.5 12v405zM473 19q0 -39 -9 -75.5t-32 -65t-62 -45.5t-100 -17q-28 0 -57 9t-53 22.5t-39 29.5t-15 31q0 12 8.5 21
t21.5 9q6 0 13 -5t16 -13q17 -15 40.5 -30.5t64.5 -15.5q39 0 65.5 7t43.5 22t25 37.5t10 52.5l2 29l-21 -11q-1 -1 -3 -1q-38 -8 -66 -9t-49 -1h-7q-40 0 -77 13.5t-65 38.5t-45 59.5t-17 76.5v179q0 43 17 77.5t45 59t65 37.5t77 13q25 0 60 -2t66.5 -10.5t54 -26
t22.5 -49.5v-447z" />
    <glyph glyph-name="afii10021" unicode="&#x414;" horiz-adv-x="598" 
d="M67 0q2 -5 5.5 -19.5t5.5 -22.5v1q1 -2 1.5 -5.5t1.5 -5.5v-8q0 -1 0.5 -1.5t0.5 -1.5q0 -9 -6 -18t-16 -9h-8q-20 0 -27 21l1 -2l-19 71q-3 10 -5 17.5t-2 12.5q0 8 6.5 16t20.5 10h71v485q0 44 17 78t46 57.5t67.5 35.5t81.5 12q22 0 49 -2t52 -7.5t46 -16.5t31 -29
q10 -14 10 -59v-554h74q11 -2 18.5 -10t7.5 -16q0 -6 -5 -24t-10 -37q-3 -10 -6 -20.5t-5 -18.5h1q-8 -20 -27 -20h-7q-11 0 -17 9t-6 18q0 2 0.5 3.5t0.5 2.5l14 57h-464zM154 56h285v594q-11 4 -26.5 7t-32.5 5t-34 3.5t-32 1.5q-29 0 -57.5 -7.5t-51 -23.5t-37 -39.5
t-14.5 -55.5v-485z" />
    <glyph glyph-name="afii10044" unicode="&#x42a;" horiz-adv-x="492" 
d="M472 184q0 -45 -18 -79.5t-48 -57.5t-69 -35t-81 -12q-26 0 -58 2t-60 11t-47 27t-19 50v575h-36q-12 0 -20.5 8.5t-8.5 21.5q0 12 8.5 20.5t20.5 8.5h55q2 1 10 1q11 0 19.5 -8.5t8.5 -20.5v-286q48 11 80.5 12.5t55.5 1.5h7q39 0 75.5 -13t64 -37t44 -58t16.5 -75v-57z
M414 240q0 33 -13.5 57t-36 39.5t-50.5 22.5t-56 7t-61 -3.5t-68 -11.5v-278q31 -8 67.5 -11.5t65.5 -3.5q28 0 55.5 7.5t49 23.5t34.5 39.5t13 55.5v56z" />
    <glyph glyph-name="afii10046" unicode="&#x42c;" 
d="M466 184q0 -45 -17.5 -79.5t-47.5 -57.5t-69 -35t-82 -12q-26 0 -57.5 2t-60 11t-47.5 27t-19 50v607q0 12 9 20t20 8q14 0 21.5 -8.5t7.5 -20.5v-286q48 11 81 12.5t56 1.5h7q40 0 76 -13t63 -37t43 -58t16 -75v-57zM409 240q0 33 -13.5 57t-36 39.5t-50.5 22.5t-57 7
q-28 0 -60.5 -3.5t-67.5 -11.5v-278q31 -8 68 -11.5t66 -3.5q28 0 55 7.5t48.5 23.5t34.5 39.5t13 55.5v56z" />
    <glyph glyph-name="afii10045" unicode="&#x42b;" horiz-adv-x="656" 
d="M466 184q0 -45 -18 -79.5t-48 -57.5t-69 -35t-81 -12q-26 0 -57.5 2t-60 11t-47.5 27t-19 50v607q0 12 9 20t20 8q14 0 21.5 -8.5t7.5 -20.5v-286q48 11 81 12.5t56 1.5h7q40 0 76 -13t63 -37t43 -58t16 -75v-57zM409 240q0 33 -13.5 57t-36 39.5t-50.5 22.5t-57 7
q-28 0 -60.5 -3.5t-67.5 -11.5v-278q31 -8 67.5 -11.5t65.5 -3.5q28 0 55.5 7.5t49 23.5t34.5 39.5t13 55.5v56zM552 695q0 12 8.5 20.5t19.5 8.5q12 0 20.5 -8.5t8.5 -20.5v-666q0 -14 -8.5 -21.5t-20.5 -7.5q-11 0 -19.5 7.5t-8.5 21.5v666z" />
    </font>
</defs>
</svg>
