<svg width="145" height="32" fill="none" xmlns="http://www.w3.org/2000/svg">
  <path d="M13.577 28.967c.222.058.464.118.694.183a54.7 54.7 0 007.901 1.64 46.08 46.08 0 003.032.266c.878.054 1.76.082 2.64.077 3.187-.019 6.301-.523 9.359-1.422 4.323-1.271 8.402-3.117 12.354-5.253 4.113-2.22 8.212-4.463 12.299-6.73 4.803-2.653 9.62-5.275 14.56-7.67 3.27-1.581 6.58-3.062 10.014-4.257a54.562 54.562 0 018.757-2.248 56.636 56.636 0 016.855-.743 46.605 46.605 0 018.022.325 45.27 45.27 0 018.544 1.904c2.436.794 4.79 1.82 7.029 3.065-.113-.045-.231-.083-.341-.136a41.772 41.772 0 00-12.464-3.778c-1.794-.249-3.606-.384-5.413-.497-3.256-.203-6.485.094-9.711.56a54.202 54.202 0 00-14.232 4.119c-3.254 1.442-6.484 2.945-9.66 4.563-4.185 2.137-8.3 4.417-12.445 6.632-3.477 1.858-6.935 3.75-10.432 5.564-3.707 1.921-7.518 3.605-11.504 4.887-2.52.81-5.082 1.392-7.73 1.611-2.375.19-4.764.161-7.135-.085a47.746 47.746 0 01-10.177-2.193c-.282-.094-.563-.173-.845-.26l.029-.124zM43.98 5.724c-.906-.32-1.763-.643-2.632-.928-3.233-1.064-6.52-1.92-9.895-2.373-2.13-.288-4.271-.502-6.413-.67-1.605-.125-3.22-.126-4.83-.178-1.652-.054-3.303-.094-4.955-.157-.484-.018-.982-.026-1.466-.142 1.103-.68 10.935-.93 15.423-.21 5.062.819 10.303 2.092 14.768 4.658z" fill="#EED199"/>
  <path d="M12.594 28.734l.983.233-.031.12-.952-.353z" fill="#EED199"/>
  <path d="M1.887 8.995h7.78v.786H6.17v11.09h-.82V9.782H1.887v-.786zm9.252 5.955c0-.836.156-1.617.468-2.342a6.069 6.069 0 011.305-1.94 5.988 5.988 0 011.923-1.322 5.799 5.799 0 012.36-.485c.836 0 1.622.161 2.358.485a5.94 5.94 0 011.94 1.321 6.069 6.069 0 011.305 1.94c.324.726.486 1.507.486 2.343 0 .836-.162 1.623-.486 2.359a6.122 6.122 0 01-3.245 3.228 5.976 5.976 0 01-2.359.469 6.15 6.15 0 01-2.358-.452 6.026 6.026 0 01-1.924-1.271 5.88 5.88 0 01-1.305-1.924 6.105 6.105 0 01-.468-2.41zm.836.017a5.204 5.204 0 001.522 3.713c.48.48 1.032.86 1.656 1.138.636.268 1.31.401 2.024.401a5.25 5.25 0 002.058-.401 5.42 5.42 0 001.673-1.138 5.19 5.19 0 001.12-1.672 5.066 5.066 0 00.42-2.058c0-.725-.14-1.405-.42-2.041a5.144 5.144 0 00-1.12-1.69 5.284 5.284 0 00-1.673-1.154 5.025 5.025 0 00-2.04-.418c-.737 0-1.423.145-2.058.435a5.282 5.282 0 00-1.673 1.154 5.48 5.48 0 00-1.104 1.707 5.358 5.358 0 00-.385 2.024zm28.27-5.972v11.877h-.82v-5.588h-7.16v5.588h-.819V8.995h.82v5.52h7.16v-5.52h.82zm3.028 5.955c0-.836.156-1.617.468-2.342a6.068 6.068 0 011.305-1.94 5.988 5.988 0 011.924-1.322 5.798 5.798 0 012.358-.485c.837 0 1.623.161 2.36.485a5.94 5.94 0 011.94 1.321 6.067 6.067 0 011.304 1.94 5.68 5.68 0 01.486 2.343c0 .836-.162 1.623-.486 2.359a6.12 6.12 0 01-3.245 3.228 5.976 5.976 0 01-2.359.469 6.15 6.15 0 01-2.358-.452 6.026 6.026 0 01-1.924-1.271 5.878 5.878 0 01-1.305-1.924 6.106 6.106 0 01-.468-2.41zm.836.017a5.204 5.204 0 001.522 3.713 5.48 5.48 0 001.657 1.138c.635.268 1.31.401 2.024.401.736 0 1.422-.133 2.057-.401a5.422 5.422 0 001.673-1.138 5.19 5.19 0 001.121-1.672 5.066 5.066 0 00.418-2.058 5.04 5.04 0 00-.418-2.041 5.144 5.144 0 00-1.12-1.69 5.285 5.285 0 00-1.674-1.154 5.025 5.025 0 00-2.04-.418c-.737 0-1.422.145-2.058.435a5.282 5.282 0 00-1.673 1.154 5.481 5.481 0 00-1.104 1.707 5.358 5.358 0 00-.385 2.024zm14.342-5.972h.82v11.09h6.507v.787H58.45V8.995zm10.08 0h.82v11.09h6.507v.787H68.53V8.995zm12.72 7.645l-4.434-7.645h1.004l3.998 6.959-.284.016 3.981-6.975h.987L82.07 16.64v4.232h-.82V16.64zm6.76-7.612h.937l3.931 10.74-.184-.05 2.476-6.692.385 1.054-2.86 7.344L88.01 9.028zm5.47 0h.82l4.082 10.74-.25-.067 3.98-10.673h.87l-4.767 12.38-4.734-12.38zm10.711 5.922c0-.836.156-1.617.468-2.342a6.09 6.09 0 011.305-1.94 5.992 5.992 0 011.924-1.322 5.797 5.797 0 012.359-.485c.836 0 1.622.161 2.358.485a5.935 5.935 0 011.941 1.321 6.058 6.058 0 011.305 1.94c.323.726.485 1.507.485 2.343 0 .836-.162 1.623-.485 2.359a6.11 6.11 0 01-3.246 3.228 5.974 5.974 0 01-2.358.469c-.837 0-1.623-.15-2.359-.452a6.03 6.03 0 01-1.924-1.271 5.9 5.9 0 01-1.305-1.924 6.11 6.11 0 01-.468-2.41zm.836.017a5.2 5.2 0 001.523 3.713c.479.48 1.031.86 1.656 1.138a5.16 5.16 0 002.024.401c.736 0 1.422-.133 2.058-.401a5.42 5.42 0 001.672-1.138 5.18 5.18 0 001.121-1.672 5.063 5.063 0 00.419-2.058c0-.725-.14-1.405-.419-2.041a5.127 5.127 0 00-1.121-1.69 5.283 5.283 0 00-1.672-1.154 5.027 5.027 0 00-2.041-.418c-.736 0-1.422.145-2.058.435a5.284 5.284 0 00-1.673 1.154 5.494 5.494 0 00-1.104 1.707 5.368 5.368 0 00-.385 2.024zm13.589-.017c0-.836.156-1.617.469-2.342a6.072 6.072 0 011.304-1.94 5.992 5.992 0 011.924-1.322 5.8 5.8 0 012.359-.485 5.8 5.8 0 012.359.485 5.93 5.93 0 011.94 1.321 6.058 6.058 0 011.305 1.94c.323.726.485 1.507.485 2.343 0 .836-.162 1.623-.485 2.359a6.11 6.11 0 01-1.305 1.924 6.061 6.061 0 01-1.94 1.304 5.978 5.978 0 01-2.359.469 6.17 6.17 0 01-2.359-.452 6.03 6.03 0 01-1.924-1.271 5.882 5.882 0 01-1.304-1.924 6.092 6.092 0 01-.469-2.41zm.837.017a5.199 5.199 0 001.522 3.713 5.48 5.48 0 001.656 1.138c.636.268 1.31.401 2.024.401.736 0 1.422-.133 2.058-.401a5.424 5.424 0 001.673-1.138 5.204 5.204 0 001.121-1.672 5.08 5.08 0 00.418-2.058 5.04 5.04 0 00-.418-2.041 5.159 5.159 0 00-1.121-1.69 5.287 5.287 0 00-1.673-1.154 5.027 5.027 0 00-2.041-.418c-.736 0-1.422.145-2.058.435a5.295 5.295 0 00-1.673 1.154 5.494 5.494 0 00-1.104 1.707 5.367 5.367 0 00-.384 2.024zm14.341 5.905V8.995h2.928c1.148 0 2.124.184 2.927.552.814.356 1.472.83 1.974 1.421a5.82 5.82 0 011.104 1.941c.235.703.352 1.4.352 2.091 0 .903-.157 1.718-.469 2.442a5.524 5.524 0 01-1.288 1.84 5.735 5.735 0 01-1.84 1.188 6.02 6.02 0 01-2.192.402h-3.496zm.82-.786h2.459c.714 0 1.383-.117 2.007-.352a4.79 4.79 0 001.64-1.02 4.698 4.698 0 001.121-1.606c.267-.636.401-1.355.401-2.158 0-.68-.117-1.327-.351-1.94a4.62 4.62 0 00-1.021-1.657 4.901 4.901 0 00-1.689-1.137c-.669-.28-1.45-.419-2.342-.419h-2.225v10.289z" fill="#000"/>
</svg>
