<svg width="360" height="80" fill="none" xmlns="http://www.w3.org/2000/svg">
  <path d="M32.281 72.242c.554.145 1.159.295 1.733.457a136.286 136.286 0 0019.714 4.092c2.509.321 5.039.509 7.564.663 2.19.136 4.39.204 6.585.193 7.954-.047 15.725-1.304 23.353-3.548 10.786-3.173 20.963-7.778 30.826-13.106a3129.203 3129.203 0 0030.685-16.792c11.985-6.62 24.003-13.162 36.33-19.137 8.156-3.946 16.414-7.642 24.985-10.622a136.135 136.135 0 0121.85-5.609 141.287 141.287 0 0117.101-1.855c6.683-.306 13.38-.034 20.016.811a112.926 112.926 0 0121.318 4.751 99.805 99.805 0 0117.54 7.647c-.284-.113-.577-.206-.851-.34a104.222 104.222 0 00-31.101-9.424c-4.474-.622-8.995-.96-13.504-1.24-8.125-.507-16.18.234-24.23 1.395a135.234 135.234 0 00-35.509 10.277c-8.12 3.6-16.18 7.35-24.103 11.387-10.442 5.333-20.708 11.021-31.052 16.546-8.676 4.636-17.303 9.356-26.028 13.884-9.248 4.793-18.759 8.995-28.704 12.194-6.29 2.019-12.679 3.472-19.285 4.019a97.318 97.318 0 01-17.804-.214 119.135 119.135 0 01-25.391-5.47c-.704-.235-1.407-.432-2.11-.647l.072-.312zm75.858-57.992c-2.26-.8-4.399-1.604-6.566-2.317-8.066-2.655-16.269-4.788-24.69-5.92-5.313-.718-10.657-1.253-16-1.67-4.006-.312-8.035-.317-12.054-.446-4.12-.134-8.24-.235-12.36-.392-1.207-.044-2.45-.065-3.658-.354 2.75-1.697 27.283-2.321 38.483-.525 12.63 2.045 25.704 5.222 36.845 11.624zm-78.31 57.41l2.452.581-.077.303-2.375-.884z" fill="#EED199"/>
  <path d="M3.115 20.973h19.409v1.962H13.8v27.673h-2.045V22.935h-8.64v-1.962zm23.083 14.86c0-2.087.39-4.035 1.168-5.844a15.144 15.144 0 013.256-4.842 14.944 14.944 0 014.8-3.297c1.836-.807 3.798-1.21 5.885-1.21 2.087 0 4.049.403 5.885 1.21a14.82 14.82 0 014.842 3.297 15.144 15.144 0 013.256 4.842c.807 1.809 1.21 3.756 1.21 5.843s-.403 4.05-1.21 5.886a15.272 15.272 0 01-3.256 4.8 15.144 15.144 0 01-4.842 3.255c-1.836.78-3.798 1.17-5.885 1.17-2.087 0-4.049-.377-5.885-1.128a15.032 15.032 0 01-4.8-3.172 14.666 14.666 0 01-3.256-4.8c-.779-1.837-1.168-3.84-1.168-6.01zm2.087.041c0 1.809.333 3.506 1.001 5.092a12.946 12.946 0 002.797 4.174 13.679 13.679 0 004.132 2.839 12.881 12.881 0 005.05 1.001c1.837 0 3.548-.334 5.134-1.001a13.531 13.531 0 004.174-2.839 12.947 12.947 0 002.797-4.174c.696-1.586 1.043-3.297 1.043-5.134 0-1.808-.347-3.506-1.043-5.092a12.834 12.834 0 00-2.797-4.215 13.184 13.184 0 00-4.174-2.88c-1.586-.696-3.283-1.044-5.092-1.044-1.836 0-3.548.362-5.134 1.085A13.18 13.18 0 0032 26.566a13.676 13.676 0 00-2.755 4.258c-.64 1.586-.96 3.27-.96 5.05zm70.537-14.9v29.634h-2.046v-13.94H78.912v13.94h-2.045V20.973h2.045v13.774h17.864V20.973h2.046zm7.553 14.858c0-2.087.389-4.034 1.168-5.843a15.148 15.148 0 013.256-4.842 14.937 14.937 0 014.8-3.297c1.836-.807 3.798-1.21 5.885-1.21 2.087 0 4.049.403 5.885 1.21a14.813 14.813 0 014.842 3.297 15.132 15.132 0 013.256 4.842c.807 1.809 1.21 3.756 1.21 5.843s-.403 4.05-1.21 5.886a15.26 15.26 0 01-3.256 4.8 15.136 15.136 0 01-4.842 3.255c-1.836.78-3.798 1.17-5.885 1.17-2.087 0-4.049-.377-5.885-1.128a15.026 15.026 0 01-4.8-3.172 14.67 14.67 0 01-3.256-4.8c-.779-1.837-1.168-3.84-1.168-6.01zm2.087.042c0 1.809.333 3.506 1.001 5.092a12.944 12.944 0 002.797 4.174 13.675 13.675 0 004.132 2.839 12.882 12.882 0 005.05 1.001c1.837 0 3.548-.334 5.134-1.001a13.514 13.514 0 004.174-2.839 12.944 12.944 0 002.797-4.174c.696-1.586 1.043-3.297 1.043-5.134 0-1.808-.347-3.506-1.043-5.092a12.83 12.83 0 00-2.797-4.215 13.168 13.168 0 00-4.174-2.88c-1.586-.696-3.283-1.044-5.092-1.044-1.836 0-3.548.362-5.134 1.085a13.187 13.187 0 00-4.174 2.88 13.672 13.672 0 00-2.754 4.258c-.64 1.586-.96 3.27-.96 5.05zm35.783-14.9h2.045v27.672h16.237v1.962h-18.282V20.973zm25.149 0h2.046v27.672h16.236v1.962h-18.282V20.973zm31.738 19.074l-11.061-19.075h2.505l9.975 17.364-.709.041 9.934-17.405h2.463l-11.061 19.075v10.56h-2.046v-10.56zm16.869-18.991h2.337l9.809 26.796-.459-.125 6.177-16.696.96 2.63-7.137 18.324-11.687-30.93zm13.648 0h2.046l10.184 26.796-.626-.167 9.934-26.63h2.17l-11.895 30.888-11.813-30.887zm26.724 14.775c0-2.087.389-4.034 1.168-5.843a15.148 15.148 0 013.256-4.842 14.937 14.937 0 014.8-3.297c1.837-.807 3.798-1.21 5.885-1.21 2.087 0 4.049.403 5.886 1.21a14.82 14.82 0 014.841 3.297 15.132 15.132 0 013.256 4.842c.807 1.809 1.21 3.756 1.21 5.843s-.403 4.05-1.21 5.886a15.26 15.26 0 01-3.256 4.8 15.143 15.143 0 01-4.841 3.255c-1.837.78-3.799 1.17-5.886 1.17s-4.048-.377-5.885-1.128a15.026 15.026 0 01-4.8-3.172 14.67 14.67 0 01-3.256-4.8c-.779-1.837-1.168-3.84-1.168-6.01zm2.087.042c0 1.809.334 3.506 1.001 5.092a12.944 12.944 0 002.797 4.174 13.675 13.675 0 004.132 2.839 12.884 12.884 0 005.051 1.001c1.836 0 3.547-.334 5.134-1.001a13.521 13.521 0 004.173-2.839 12.944 12.944 0 002.797-4.174c.696-1.586 1.043-3.297 1.043-5.134 0-1.808-.347-3.506-1.043-5.092a12.83 12.83 0 00-2.797-4.215 13.175 13.175 0 00-4.173-2.88c-1.587-.696-3.284-1.044-5.093-1.044-1.836 0-3.548.362-5.134 1.085a13.187 13.187 0 00-4.174 2.88 13.672 13.672 0 00-2.754 4.258c-.64 1.586-.96 3.27-.96 5.05zm33.905-.042c0-2.087.389-4.034 1.168-5.843a15.164 15.164 0 013.256-4.842 14.937 14.937 0 014.8-3.297c1.837-.807 3.798-1.21 5.885-1.21 2.087 0 4.049.403 5.886 1.21a14.82 14.82 0 014.841 3.297 15.132 15.132 0 013.256 4.842c.807 1.809 1.21 3.756 1.21 5.843s-.403 4.05-1.21 5.886a15.26 15.26 0 01-3.256 4.8 15.143 15.143 0 01-4.841 3.255c-1.837.78-3.799 1.17-5.886 1.17s-4.048-.377-5.885-1.128a15.026 15.026 0 01-4.8-3.172 14.685 14.685 0 01-3.256-4.8c-.779-1.837-1.168-3.84-1.168-6.01zm2.087.042c0 1.809.334 3.506 1.001 5.092a12.944 12.944 0 002.797 4.174 13.675 13.675 0 004.132 2.839 12.884 12.884 0 005.051 1.001c1.836 0 3.547-.334 5.134-1.001a13.521 13.521 0 004.173-2.839 12.944 12.944 0 002.797-4.174c.696-1.586 1.044-3.297 1.044-5.134 0-1.808-.348-3.506-1.044-5.092a12.83 12.83 0 00-2.797-4.215 13.175 13.175 0 00-4.173-2.88c-1.587-.696-3.284-1.044-5.093-1.044-1.836 0-3.547.362-5.134 1.085a13.187 13.187 0 00-4.174 2.88 13.69 13.69 0 00-2.754 4.258c-.64 1.586-.96 3.27-.96 5.05zm35.783 14.734V20.973h7.304c2.867 0 5.301.46 7.305 1.378 2.031.89 3.673 2.073 4.925 3.547 1.252 1.475 2.17 3.09 2.755 4.842.584 1.753.876 3.492.876 5.218 0 2.254-.389 4.285-1.168 6.094-.779 1.78-1.851 3.31-3.214 4.59a14.304 14.304 0 01-4.592 2.964 15.009 15.009 0 01-5.467 1.002h-8.724zm2.045-1.962h6.136c1.781 0 3.45-.292 5.009-.876a11.946 11.946 0 004.09-2.546 11.687 11.687 0 002.797-4.007c.667-1.586 1.001-3.381 1.001-5.385 0-1.697-.292-3.31-.876-4.841a11.559 11.559 0 00-2.546-4.133c-1.141-1.196-2.546-2.142-4.216-2.838-1.669-.695-3.617-1.043-5.843-1.043h-5.552v25.67z" fill="#FEFDFB"/>
</svg>
