<svg width="80" height="80" fill="none" xmlns="http://www.w3.org/2000/svg">
  <path fill-rule="evenodd" clip-rule="evenodd" d="M51.03 1.011C53.246.475 55.212 0 57 0c4.102 0 16 4.775 16 15 0 7.525-2.417 12.88-4.136 16.686-.947 2.1-1.682 3.727-1.682 4.989 0 .625 0 3.325-2.91 3.325H17.728c-2.909 0-2.909-2.7-2.909-3.325 0-1.262-.735-2.89-1.682-4.989C11.417 27.88 9 22.526 9 15 9 4.775 20.898 0 25 0c1.788 0 3.753.475 5.97 1.011C33.838 1.705 37.128 2.5 41 2.5c3.872 0 7.162-.795 10.03-1.489zM26.63 40l.377 5h-6.78a2.5 2.5 0 000 5h7.13l.378 5h-4.599a2.5 2.5 0 000 5h4.948l.378 5h-2.416a2.5 2.5 0 100 5h2.765v.625c.185 2.542 1.492 4.928 3.655 6.67 2.162 1.743 5.017 2.71 7.981 2.705h1.047c2.965.005 5.82-.962 7.982-2.705 2.162-1.742 3.47-4.128 3.655-6.67V70h2.824a2.5 2.5 0 000-5h-2.417l.378-5h4.948a2.5 2.5 0 100-5h-4.599l.379-5h7.129a2.5 2.5 0 000-5h-6.78l.378-5h-5.818l-.378 5h-16.35l-.378-5H26.63zm18.889 33.643c1.082-.874 1.734-2.07 1.823-3.343l.058-.3H34.658v.3c.09 1.273.741 2.47 1.823 3.343 1.082.874 2.51 1.36 3.995 1.357h1.048c1.484.002 2.913-.483 3.995-1.357zM34.28 65h13.44l.378-5H33.902l.378 5zm-.727-10h14.894l.378-5h-15.65l.378 5z" fill="#EED199"/>
  <path fill-rule="evenodd" clip-rule="evenodd" d="M51.03 1.011C53.246.475 55.212 0 57 0c4.102 0 16 4.775 16 15 0 7.525-2.417 12.88-4.136 16.686-.947 2.1-1.682 3.727-1.682 4.989 0 .625 0 3.325-2.91 3.325H17.728c-2.909 0-2.909-2.7-2.909-3.325 0-1.262-.735-2.89-1.682-4.989C11.417 27.88 9 22.526 9 15 9 4.775 20.898 0 25 0c1.788 0 3.753.475 5.97 1.011C33.838 1.705 37.128 2.5 41 2.5c3.872 0 7.162-.795 10.03-1.489z" fill="#fff"/>
</svg>
