<svg width="80" height="80" fill="none" xmlns="http://www.w3.org/2000/svg">
  <path d="M47.804 32.5V25c0-.597-.271-1.17-.755-1.591a2.779 2.779 0 00-1.822-.659H33.772c-.683 0-1.339.237-1.822.659-.483.422-.755.994-.755 1.591v7.5c0 2.055-.935 4.027-2.6 5.48-1.665 1.454-3.923 2.27-6.277 2.27H13.87a233.38 233.38 0 002.864 26.875C18.223 75 19.426 80 22.804 80c3.38 0 5.527-9.525 6.93-17.05 1.404-7.525 5.384-17.625 9.88-17.625s8.591 10.425 9.88 17.625c1.288 7.2 3.58 17.05 6.959 17.05 3.379 0 4.553-5 6.042-12.875a233.38 233.38 0 002.863-26.875h-8.677c-2.354 0-4.612-.816-6.277-2.27-1.664-1.453-2.6-3.425-2.6-5.48z" fill="#fff"/>
  <path d="M55.25 0c-4.038 0-8.992 2.5-15.75 2.5C32.742 2.5 27.788 0 23.75 0S8 4.775 8 15c0 9.85 4.038 15.95 5.326 19.75h8.992a2.78 2.78 0 001.823-.659c.483-.422.754-.994.754-1.591V25c0-2.055.936-4.027 2.6-5.48 1.665-1.453 3.923-2.27 6.278-2.27h11.454c2.355 0 4.613.817 6.277 2.27 1.665 1.453 2.6 3.425 2.6 5.48v7.5c0 .597.272 1.169.755 1.591a2.78 2.78 0 001.823.659h8.992C66.962 30.95 71 24.75 71 15 71 4.775 59.288 0 55.25 0z" fill="#EED199"/>
</svg>
