<svg width="80" height="80" fill="none" xmlns="http://www.w3.org/2000/svg">
  <path d="M60.376.702C58.453 8.947 50.646 20.1 40.458 20.1 30.269 20.1 22.463 8.947 20.54.702c-3.33 1.079-6.218 3-8.293 5.517-2.076 2.517-3.245 5.518-3.36 8.618 0 11.704 5.74 18.17 5.74 21.73a247.934 247.934 0 002.87 30.526C19.018 74.987 20.367 80 23.611 80c3.243 0 5.539-9.549 6.945-17.093 1.407-7.544 5.396-17.669 9.902-17.669 4.506 0 8.61 10.451 9.902 17.67C51.65 70.124 53.947 80 57.334 80s4.563-5.013 6.056-12.907a247.934 247.934 0 002.87-30.527c0-3.559 5.74-10.025 5.74-21.729-.112-3.097-1.278-6.096-3.348-8.613-2.07-2.517-4.95-4.44-8.276-5.522z" fill="#fff"/>
  <path d="M40.458 14.586c6.113 0 12.054-8.52 13.633-14.586a68.535 68.535 0 01-13.633 2.306A68.536 68.536 0 0126.825 0c1.579 6.065 7.52 14.586 13.633 14.586z" fill="#EED199"/>
</svg>
