<svg width="86" height="86" fill="none" xmlns="http://www.w3.org/2000/svg">
  <path d="M58.271 6c-4.04 0-8.995 2.5-15.757 2.5C35.753 8.5 30.797 6 26.757 6 22.717 6 11 10.775 11 21c0 11.675 5.73 18.125 5.73 21.675a247.108 247.108 0 002.865 30.45C21.113 81 22.46 86 25.697 86c3.238 0 5.53-9.525 6.933-17.05 1.404-7.525 5.386-17.625 9.884-17.625S51.11 61.75 52.398 68.95C53.688 76.15 55.98 86 59.36 86s4.555-5 6.045-12.875a247.128 247.128 0 002.865-30.45c0-3.55 5.73-10 5.73-21.675.029-10.225-11.69-15-15.73-15zm-33.52 15c0-.593.202-1.173.58-1.667a3.38 3.38 0 011.543-1.105 3.906 3.906 0 011.986-.17 3.61 3.61 0 011.76.82c.481.42.809.955.941 1.537a2.647 2.647 0 01-.195 1.733 3.13 3.13 0 01-1.266 1.346c-.566.33-1.23.506-1.91.506-.912 0-1.787-.316-2.431-.879-.645-.562-1.007-1.325-1.007-2.121zm33.75 13.6c-1.35 2.722-3.583 5.04-6.423 6.668-2.84 1.628-6.165 2.496-9.564 2.496-3.398 0-6.723-.868-9.563-2.496-2.84-1.628-5.073-3.946-6.423-6.668a2.519 2.519 0 01-.415-1.093 2.42 2.42 0 01.133-1.146c.137-.369.362-.709.66-.997a3.175 3.175 0 011.07-.674 3.552 3.552 0 011.292-.233c.445.003.884.088 1.289.25.404.161.765.395 1.058.687.293.292.512.635.643 1.006.862 1.736 2.287 3.213 4.099 4.251 1.812 1.038 3.932 1.591 6.1 1.591 2.168 0 4.288-.552 6.1-1.59 1.812-1.039 3.237-2.516 4.1-4.252.39-.581 1.013-1.016 1.747-1.224a3.58 3.58 0 012.239.1c.706.271 1.274.76 1.596 1.373.321.612.374 1.307.147 1.951h.115zM56.839 24a3.8 3.8 0 01-1.91-.506 3.13 3.13 0 01-1.266-1.346 2.648 2.648 0 01-.196-1.733c.133-.582.46-1.117.941-1.536a3.618 3.618 0 011.76-.821 3.907 3.907 0 011.987.17 3.38 3.38 0 011.542 1.105c.378.494.58 1.074.58 1.667 0 .796-.362 1.559-1.007 2.121-.645.563-1.52.879-2.431.879z" fill="#fff"/>
  <path d="M24.752 21c0-.593.201-1.173.58-1.667a3.38 3.38 0 011.542-1.105 3.906 3.906 0 011.986-.17 3.61 3.61 0 011.76.82c.481.42.809.955.941 1.537a2.647 2.647 0 01-.195 1.733 3.13 3.13 0 01-1.266 1.346c-.566.33-1.23.506-1.91.506-.912 0-1.787-.316-2.431-.879-.645-.562-1.007-1.325-1.007-2.121zm32.087 3a3.8 3.8 0 01-1.91-.506 3.13 3.13 0 01-1.266-1.346 2.648 2.648 0 01-.196-1.733c.133-.582.46-1.117.941-1.536a3.618 3.618 0 011.76-.821 3.907 3.907 0 011.987.17 3.38 3.38 0 011.542 1.105c.378.494.58 1.074.58 1.667 0 .796-.362 1.559-1.007 2.121-.645.563-1.52.879-2.431.879zM58.5 34.6c-1.349 2.722-3.582 5.04-6.422 6.668-2.84 1.628-6.165 2.496-9.564 2.496-3.398 0-6.723-.868-9.563-2.496-2.84-1.628-5.073-3.946-6.423-6.668a2.519 2.519 0 01-.415-1.093 2.42 2.42 0 01.133-1.146c.137-.369.362-.709.66-.997a3.175 3.175 0 011.07-.674 3.552 3.552 0 011.292-.233c.445.003.884.088 1.289.25.404.161.765.395 1.058.687.293.292.512.635.643 1.006.862 1.736 2.287 3.213 4.099 4.251 1.812 1.038 3.932 1.591 6.1 1.591 2.168 0 4.288-.552 6.1-1.59 1.812-1.039 3.237-2.516 4.1-4.252.39-.581 1.013-1.016 1.747-1.224a3.58 3.58 0 012.239.1c.706.271 1.274.76 1.596 1.373.321.612.374 1.307.147 1.951h.115z" fill="#fff"/>
  <path d="M83 16.631C69.901 16.083 66.71 5.469 66.005 0 65.29 5.469 62.099 16.034 49 16.631c0 0 14.87 2.23 16.9 15.369C67.93 18.822 83 16.631 83 16.631zM47 37.434C37.754 37.057 35.501 29.76 35.003 26 34.5 29.76 32.246 37.023 23 37.434c0 0 10.497 1.533 11.93 10.566C36.361 38.94 47 37.434 47 37.434z" fill="#EED199"/>
</svg>
